<?xml version="1.0" encoding="UTF-8"?>
<svg xmlns="http://www.w3.org/2000/svg" xmlns:xlink="http://www.w3.org/1999/xlink" width="512pt" height="512pt" viewBox="0 0 512 512" style="background-color:white" version="1.1">
<g id="surface1">
<path style="fill:none;stroke-width:2.5;stroke-linecap:butt;stroke-linejoin:miter;stroke:blue;stroke-opacity:1;stroke-miterlimit:4;" d="M 384 0 L 384 768 M 0 384 L 768 384 " transform="matrix(0.666667,0,0,0.666667,0,0)"/>
<path style="fill:none;stroke-width:2.5;stroke-linecap:butt;stroke-linejoin:miter;stroke:blue;stroke-opacity:1;stroke-miterlimit:4;" d="M 256.001953 0 C 277.335938 256.001953 277.335938 511.998047 256.001953 768 " transform="matrix(0.666667,0,0,0.666667,0,0)"/>
<path style="fill:none;stroke-width:2.5;stroke-linecap:butt;stroke-linejoin:miter;stroke:blue;stroke-opacity:1;stroke-miterlimit:4;" d="M 127.998047 0 C 170.666016 256.001953 170.666016 511.998047 127.998047 768 " transform="matrix(0.666667,0,0,0.666667,0,0)"/>
<path style="fill:none;stroke-width:2.5;stroke-linecap:butt;stroke-linejoin:miter;stroke:blue;stroke-opacity:1;stroke-miterlimit:4;" d="M 0 0 C 64.001953 256.001953 64.001953 511.998047 0 768 " transform="matrix(0.666667,0,0,0.666667,0,0)"/>
<path style="fill:none;stroke-width:2.5;stroke-linecap:butt;stroke-linejoin:miter;stroke:blue;stroke-opacity:1;stroke-miterlimit:4;" d="M 256.001953 0 C 277.335938 256.001953 277.335937 511.998047 256.001953 768 " transform="matrix(0.000000000000000041,0.666667,-0.666667,0.000000000000000041,512,0)"/>
<path style="fill:none;stroke-width:2.5;stroke-linecap:butt;stroke-linejoin:miter;stroke:blue;stroke-opacity:1;stroke-miterlimit:4;" d="M 127.998047 0 C 170.666016 256.001953 170.666016 511.998047 127.998047 768 " transform="matrix(0.000000000000000041,0.666667,-0.666667,0.000000000000000041,512,0)"/>
<path style="fill:none;stroke-width:2.5;stroke-linecap:butt;stroke-linejoin:miter;stroke:blue;stroke-opacity:1;stroke-miterlimit:4;" d="M 0 0 C 64.001953 256.001953 64.001953 511.998047 -0.000000000000047026 768 " transform="matrix(0.000000000000000041,0.666667,-0.666667,0.000000000000000041,512,0)"/>
<path style="fill:none;stroke-width:2.5;stroke-linecap:butt;stroke-linejoin:miter;stroke:blue;stroke-opacity:1;stroke-miterlimit:4;" d="M 256.001953 0 C 277.335937 256.001953 277.335937 511.998047 256.001953 768 " transform="matrix(-0.666667,0.000000000000000082,-0.000000000000000082,-0.666667,512,512)"/>
<path style="fill:none;stroke-width:2.5;stroke-linecap:butt;stroke-linejoin:miter;stroke:blue;stroke-opacity:1;stroke-miterlimit:4;" d="M 127.998047 0 C 170.666016 256.001953 170.666016 511.998047 127.998047 768 " transform="matrix(-0.666667,0.000000000000000082,-0.000000000000000082,-0.666667,512,512)"/>
<path style="fill:none;stroke-width:2.5;stroke-linecap:butt;stroke-linejoin:miter;stroke:blue;stroke-opacity:1;stroke-miterlimit:4;" d="M -0.000000000000113687 0 C 64.001953 256.001953 64.001953 511.998047 -0.000000000000227374 768 " transform="matrix(-0.666667,0.000000000000000082,-0.000000000000000082,-0.666667,512,512)"/>
<path style="fill:none;stroke-width:2.5;stroke-linecap:butt;stroke-linejoin:miter;stroke:blue;stroke-opacity:1;stroke-miterlimit:4;" d="M 256.001953 -0.000000000000009817 C 277.335937 256.001953 277.335937 511.998047 256.001953 768 " transform="matrix(-0.000000000000000122,-0.666667,0.666667,-0.000000000000000122,0.000000000000037896,512)"/>
<path style="fill:none;stroke-width:2.5;stroke-linecap:butt;stroke-linejoin:miter;stroke:blue;stroke-opacity:1;stroke-miterlimit:4;" d="M 127.998047 -0.000000000000033331 C 170.666016 256.001953 170.666016 511.998047 127.998047 768 " transform="matrix(-0.000000000000000122,-0.666667,0.666667,-0.000000000000000122,0.000000000000037896,512)"/>
<path style="fill:none;stroke-width:2.5;stroke-linecap:butt;stroke-linejoin:miter;stroke:blue;stroke-opacity:1;stroke-miterlimit:4;" d="M 0 -0.000000000000056843 C 64.001953 256.001953 64.001953 511.998047 -0.000000000000113687 768 " transform="matrix(-0.000000000000000122,-0.666667,0.666667,-0.000000000000000122,0.000000000000037896,512)"/>
</g>
</svg>
