<svg xmlns="http://www.w3.org/2000/svg" version="1.1" xmlns:xlink="http://www.w3.org/1999/xlink" xmlns:svgjs="http://svgjs.com/svgjs" width="960" height="320" preserveAspectRatio="none" viewBox="0 0 960 320"><g mask="url(&quot;#SvgjsMask2202&quot;)" fill="none"><rect width="960" height="320" x="0" y="0" fill="url(#SvgjsLinearGradient2203)"></rect><g mask="url(&quot;#SvgjsMask2204&quot;)"><path d="M504 168L488 184L472 184L456 184M712 168L696 184L680 184M936 184L920 168L904 168M520 168L504 184L488 200L472 200L456 200L440 200L424 200M552 168L536 184L520 200M984 168L968 184L952 184L936 184L920 184L904 184L888 168L872 168L856 168L840 168L824 168L808 168L792 168L776 168L760 168L744 168L728 168L712 168L696 168L680 168L664 168L648 168L632 168L616 168L600 168L584 168L568 168L552 168L536 168L520 168L504 168L488 168" stroke="rgba(195, 181, 134, 1)" stroke-width="2.67"></path><path d="M484 168 a4 4 0 1 0 8 0 a4 4 0 1 0 -8 0zM452 184 a4 4 0 1 0 8 0 a4 4 0 1 0 -8 0zM676 184 a4 4 0 1 0 8 0 a4 4 0 1 0 -8 0zM900 168 a4 4 0 1 0 8 0 a4 4 0 1 0 -8 0zM420 200 a4 4 0 1 0 8 0 a4 4 0 1 0 -8 0zM516 200 a4 4 0 1 0 8 0 a4 4 0 1 0 -8 0z" fill="rgba(195, 181, 134, 1)"></path><path d="M904 152L888 136M792 152L776 136M648 152L632 136L616 136M872 152L856 136L840 136L824 136L808 136L792 136L776 120M968 152L952 168L936 168M920 152L904 136M600 152L584 136M984 152L968 152L952 152L936 152L920 152L904 152L888 152L872 152L856 152L840 152L824 152L808 152L792 152L776 152L760 152L744 152L728 152L712 152L696 152L680 152L664 152L648 152L632 152L616 152L600 152L584 152L568 152L552 152L536 152L520 152L504 152" stroke="rgba(153, 62, 35, 1)" stroke-width="2.67"></path><path d="M500 152 a4 4 0 1 0 8 0 a4 4 0 1 0 -8 0zM884 136 a4 4 0 1 0 8 0 a4 4 0 1 0 -8 0zM772 136 a4 4 0 1 0 8 0 a4 4 0 1 0 -8 0zM612 136 a4 4 0 1 0 8 0 a4 4 0 1 0 -8 0zM772 120 a4 4 0 1 0 8 0 a4 4 0 1 0 -8 0zM932 168 a4 4 0 1 0 8 0 a4 4 0 1 0 -8 0zM900 136 a4 4 0 1 0 8 0 a4 4 0 1 0 -8 0zM580 136 a4 4 0 1 0 8 0 a4 4 0 1 0 -8 0z" fill="rgba(153, 62, 35, 1)"></path><path d="M984 136L968 136L952 136" stroke="rgba(195, 181, 134, 1)" stroke-width="2.67"></path><path d="M948 136 a4 4 0 1 0 8 0 a4 4 0 1 0 -8 0z" fill="rgba(195, 181, 134, 1)"></path><path d="M616 184L600 200L584 216L568 216L552 216M824 184L808 200L792 200L776 200L760 200M840 184L824 200L808 216L792 216L776 216L760 216L744 216M904 200L888 200L872 216L856 216M696 200L680 216M664 184L648 200L632 200L616 200L600 216M984 200L968 200L952 200L936 200L920 200L904 200L888 184L872 184L856 184L840 184L824 184L808 184L792 184L776 184L760 184L744 184L728 184L712 200L696 200L680 200L664 184L648 184L632 184L616 184L600 184L584 184L568 184" stroke="rgba(153, 62, 35, 1)" stroke-width="2.67"></path><path d="M564 184 a4 4 0 1 0 8 0 a4 4 0 1 0 -8 0zM548 216 a4 4 0 1 0 8 0 a4 4 0 1 0 -8 0zM756 200 a4 4 0 1 0 8 0 a4 4 0 1 0 -8 0zM740 216 a4 4 0 1 0 8 0 a4 4 0 1 0 -8 0zM852 216 a4 4 0 1 0 8 0 a4 4 0 1 0 -8 0zM676 216 a4 4 0 1 0 8 0 a4 4 0 1 0 -8 0zM596 216 a4 4 0 1 0 8 0 a4 4 0 1 0 -8 0z" fill="rgba(153, 62, 35, 1)"></path><path d="M824 104L808 120L792 120M760 120L744 136L728 136M696 136L680 120L664 120M504 136L488 120L472 120L456 120L440 120L424 120M520 136L504 120L488 104L472 104M904 120L888 120L872 120L856 120M488 136L472 152L456 152L440 152L424 152M728 120L712 120L696 120M984 120L968 120L952 120L936 120L920 120L904 120L888 104L872 104L856 104L840 104L824 104L808 104L792 104L776 104L760 120L744 120L728 120L712 136L696 136L680 136L664 136L648 120L632 120L616 120L600 120L584 120L568 120L552 120L536 120L520 136L504 136L488 136L472 136L456 136" stroke="rgba(162, 105, 21, 1)" stroke-width="2.67"></path><path d="M452 136 a4 4 0 1 0 8 0 a4 4 0 1 0 -8 0zM788 120 a4 4 0 1 0 8 0 a4 4 0 1 0 -8 0zM724 136 a4 4 0 1 0 8 0 a4 4 0 1 0 -8 0zM660 120 a4 4 0 1 0 8 0 a4 4 0 1 0 -8 0zM420 120 a4 4 0 1 0 8 0 a4 4 0 1 0 -8 0zM468 104 a4 4 0 1 0 8 0 a4 4 0 1 0 -8 0zM852 120 a4 4 0 1 0 8 0 a4 4 0 1 0 -8 0zM420 152 a4 4 0 1 0 8 0 a4 4 0 1 0 -8 0zM692 120 a4 4 0 1 0 8 0 a4 4 0 1 0 -8 0z" fill="rgba(162, 105, 21, 1)"></path><path d="M952 216L936 216L920 216L904 216M824 248L808 232M840 232L824 232M808 248L792 264L776 264L760 264M984 216L968 216L952 216L936 232L920 232L904 232L888 232L872 232L856 232L840 232L824 248L808 248L792 248L776 248L760 248L744 264L728 264L712 264" stroke="rgba(195, 181, 134, 1)" stroke-width="2.67"></path><path d="M708 264 a4 4 0 1 0 8 0 a4 4 0 1 0 -8 0zM900 216 a4 4 0 1 0 8 0 a4 4 0 1 0 -8 0zM804 232 a4 4 0 1 0 8 0 a4 4 0 1 0 -8 0zM820 232 a4 4 0 1 0 8 0 a4 4 0 1 0 -8 0zM756 264 a4 4 0 1 0 8 0 a4 4 0 1 0 -8 0z" fill="rgba(195, 181, 134, 1)"></path><path d="M568 104L552 88L536 88L520 88M616 104L600 88L584 88L568 88L552 72M648 104L632 88L616 88M760 104L744 88L728 88L712 88L696 88M808 88L792 72L776 72L760 72M776 88L760 88M984 104L968 104L952 104L936 104L920 104L904 104L888 88L872 88L856 88L840 88L824 88L808 88L792 88L776 88L760 104L744 104L728 104L712 104L696 104L680 104L664 104L648 104L632 104L616 104L600 104L584 104L568 104L552 104L536 104" stroke="rgba(195, 181, 134, 1)" stroke-width="2.67"></path><path d="M532 104 a4 4 0 1 0 8 0 a4 4 0 1 0 -8 0zM516 88 a4 4 0 1 0 8 0 a4 4 0 1 0 -8 0zM548 72 a4 4 0 1 0 8 0 a4 4 0 1 0 -8 0zM612 88 a4 4 0 1 0 8 0 a4 4 0 1 0 -8 0zM692 88 a4 4 0 1 0 8 0 a4 4 0 1 0 -8 0zM756 72 a4 4 0 1 0 8 0 a4 4 0 1 0 -8 0zM756 88 a4 4 0 1 0 8 0 a4 4 0 1 0 -8 0z" fill="rgba(195, 181, 134, 1)"></path><path d="M920 248L904 248L888 248M968 232L952 248L936 264L920 264M872 264L856 248L840 248L824 264M984 232L968 232L952 232L936 248L920 248L904 264L888 264L872 264L856 264" stroke="rgba(153, 62, 35, 1)" stroke-width="2.67"></path><path d="M852 264 a4 4 0 1 0 8 0 a4 4 0 1 0 -8 0zM884 248 a4 4 0 1 0 8 0 a4 4 0 1 0 -8 0zM916 264 a4 4 0 1 0 8 0 a4 4 0 1 0 -8 0zM820 264 a4 4 0 1 0 8 0 a4 4 0 1 0 -8 0z" fill="rgba(153, 62, 35, 1)"></path><path d="M920 88L904 72L888 56L872 56M664 72L648 88M824 56L808 72M856 72L840 72L824 72M792 56L776 40L760 40L744 40L728 40M840 56L824 40L808 40L792 40M984 88L968 88L952 88L936 88L920 88L904 88L888 72L872 72L856 72L840 56L824 56L808 56L792 56L776 56L760 56L744 72L728 72L712 72L696 72L680 72L664 72L648 72L632 72L616 72L600 56" stroke="rgba(195, 181, 134, 1)" stroke-width="2.67"></path><path d="M596 56 a4 4 0 1 0 8 0 a4 4 0 1 0 -8 0zM868 56 a4 4 0 1 0 8 0 a4 4 0 1 0 -8 0zM644 88 a4 4 0 1 0 8 0 a4 4 0 1 0 -8 0zM804 72 a4 4 0 1 0 8 0 a4 4 0 1 0 -8 0zM820 72 a4 4 0 1 0 8 0 a4 4 0 1 0 -8 0zM724 40 a4 4 0 1 0 8 0 a4 4 0 1 0 -8 0zM788 40 a4 4 0 1 0 8 0 a4 4 0 1 0 -8 0z" fill="rgba(195, 181, 134, 1)"></path></g></g><defs><mask id="SvgjsMask2202"><rect width="960" height="320" fill="#ffffff"></rect></mask><linearGradient x1="100%" y1="50%" x2="0%" y2="50%" gradientUnits="userSpaceOnUse" id="SvgjsLinearGradient2203"><stop stop-color="rgba(36, 36, 36, 1)" offset="0"></stop><stop stop-color="rgba(18, 18, 18, 1)" offset="1"></stop></linearGradient><mask id="SvgjsMask2204"><rect width="960" height="320" fill="white"></rect><path d="M486 168 a2 2 0 1 0 4 0 a2 2 0 1 0 -4 0zM454 184 a2 2 0 1 0 4 0 a2 2 0 1 0 -4 0zM678 184 a2 2 0 1 0 4 0 a2 2 0 1 0 -4 0zM902 168 a2 2 0 1 0 4 0 a2 2 0 1 0 -4 0zM422 200 a2 2 0 1 0 4 0 a2 2 0 1 0 -4 0zM518 200 a2 2 0 1 0 4 0 a2 2 0 1 0 -4 0z" fill="black"></path><path d="M502 152 a2 2 0 1 0 4 0 a2 2 0 1 0 -4 0zM886 136 a2 2 0 1 0 4 0 a2 2 0 1 0 -4 0zM774 136 a2 2 0 1 0 4 0 a2 2 0 1 0 -4 0zM614 136 a2 2 0 1 0 4 0 a2 2 0 1 0 -4 0zM774 120 a2 2 0 1 0 4 0 a2 2 0 1 0 -4 0zM934 168 a2 2 0 1 0 4 0 a2 2 0 1 0 -4 0zM902 136 a2 2 0 1 0 4 0 a2 2 0 1 0 -4 0zM582 136 a2 2 0 1 0 4 0 a2 2 0 1 0 -4 0z" fill="black"></path><path d="M950 136 a2 2 0 1 0 4 0 a2 2 0 1 0 -4 0z" fill="black"></path><path d="M566 184 a2 2 0 1 0 4 0 a2 2 0 1 0 -4 0zM550 216 a2 2 0 1 0 4 0 a2 2 0 1 0 -4 0zM758 200 a2 2 0 1 0 4 0 a2 2 0 1 0 -4 0zM742 216 a2 2 0 1 0 4 0 a2 2 0 1 0 -4 0zM854 216 a2 2 0 1 0 4 0 a2 2 0 1 0 -4 0zM678 216 a2 2 0 1 0 4 0 a2 2 0 1 0 -4 0zM598 216 a2 2 0 1 0 4 0 a2 2 0 1 0 -4 0z" fill="black"></path><path d="M454 136 a2 2 0 1 0 4 0 a2 2 0 1 0 -4 0zM790 120 a2 2 0 1 0 4 0 a2 2 0 1 0 -4 0zM726 136 a2 2 0 1 0 4 0 a2 2 0 1 0 -4 0zM662 120 a2 2 0 1 0 4 0 a2 2 0 1 0 -4 0zM422 120 a2 2 0 1 0 4 0 a2 2 0 1 0 -4 0zM470 104 a2 2 0 1 0 4 0 a2 2 0 1 0 -4 0zM854 120 a2 2 0 1 0 4 0 a2 2 0 1 0 -4 0zM422 152 a2 2 0 1 0 4 0 a2 2 0 1 0 -4 0zM694 120 a2 2 0 1 0 4 0 a2 2 0 1 0 -4 0z" fill="black"></path><path d="M710 264 a2 2 0 1 0 4 0 a2 2 0 1 0 -4 0zM902 216 a2 2 0 1 0 4 0 a2 2 0 1 0 -4 0zM806 232 a2 2 0 1 0 4 0 a2 2 0 1 0 -4 0zM822 232 a2 2 0 1 0 4 0 a2 2 0 1 0 -4 0zM758 264 a2 2 0 1 0 4 0 a2 2 0 1 0 -4 0z" fill="black"></path><path d="M534 104 a2 2 0 1 0 4 0 a2 2 0 1 0 -4 0zM518 88 a2 2 0 1 0 4 0 a2 2 0 1 0 -4 0zM550 72 a2 2 0 1 0 4 0 a2 2 0 1 0 -4 0zM614 88 a2 2 0 1 0 4 0 a2 2 0 1 0 -4 0zM694 88 a2 2 0 1 0 4 0 a2 2 0 1 0 -4 0zM758 72 a2 2 0 1 0 4 0 a2 2 0 1 0 -4 0zM758 88 a2 2 0 1 0 4 0 a2 2 0 1 0 -4 0z" fill="black"></path><path d="M854 264 a2 2 0 1 0 4 0 a2 2 0 1 0 -4 0zM886 248 a2 2 0 1 0 4 0 a2 2 0 1 0 -4 0zM918 264 a2 2 0 1 0 4 0 a2 2 0 1 0 -4 0zM822 264 a2 2 0 1 0 4 0 a2 2 0 1 0 -4 0z" fill="black"></path><path d="M598 56 a2 2 0 1 0 4 0 a2 2 0 1 0 -4 0zM870 56 a2 2 0 1 0 4 0 a2 2 0 1 0 -4 0zM646 88 a2 2 0 1 0 4 0 a2 2 0 1 0 -4 0zM806 72 a2 2 0 1 0 4 0 a2 2 0 1 0 -4 0zM822 72 a2 2 0 1 0 4 0 a2 2 0 1 0 -4 0zM726 40 a2 2 0 1 0 4 0 a2 2 0 1 0 -4 0zM790 40 a2 2 0 1 0 4 0 a2 2 0 1 0 -4 0z" fill="black"></path></mask></defs></svg>