<svg xmlns="http://www.w3.org/2000/svg" xmlns:xlink="http://www.w3.org/1999/xlink" width="786" height="577" viewBox="-0.5 -0.5 786 577" style="background-color:rgb(255, 255, 255)" xmlns:v="https://vecta.io/nano"><style><![CDATA[.B{pointer-events:none}.C{stroke-opacity:.8}.D{fill:none}.E{fill-opacity:.8}.F{stroke-miterlimit:10}.G{stroke-width:2}.H{font-family:sans-serif}.I{font-size:12px}.J{opacity:.8}.K{fill:#000}.L{fill:#e54a32}.M{fill:#fa6800}.N{fill:#ffe100}.O{fill:#0cc}.P{fill:#1ba1e2}.Q{fill:#60a917}.R{stroke:#432d57}.S{fill:#635073}.T{fill:#fff}.U{fill:#d5e8d4}.V{fill:#fad9d5}.W{fill:#fad7ac}.X{fill:#fff2cc}.Y{fill:#b0e3e6}.Z{fill:#dae8fc}.a{stroke:#000}.b{font-family:serif}.c{font-size:16px}.d{text-anchor:middle}.e{stroke:#c73500}.f{stroke:#006eaf}.g{stroke:#b20000}.h{stroke:#b09500}.i{stroke:#2d7600}.j{stroke:#0e8088}.k{stroke-dasharray:6 6}]]></style><g class="F G g B C"><path d="M528 56l40 19.21v41.58L528 136l-40-19.21V75.21z" class="E L"/><use xlink:href="#B" class="D"/><use xlink:href="#C" class="E L"/><use xlink:href="#D" class="D"/><use xlink:href="#E" class="E L"/><use xlink:href="#F" class="D"/><path d="M408 116l40 19.21v41.58L408 196l-40-19.21v-41.58z" class="E L"/><use xlink:href="#G" class="D"/></g><text x="186" y="82" transform="matrix(2 0 0 2 -.5 -.5)" class="H I J K">                     2                 </text><g class="F G g B C"><path d="M528 16l40 19.21v41.58L528 96l-40-19.21V35.21z" class="E L"/><path d="M488 35.21l40 19.2 40-19.2m-40 19.2V96" class="D"/><path d="M488 36l40 19.21v41.58L488 116l-40-19.21V55.21z" class="E L"/><path d="M448 55.21l40 19.2 40-19.2m-40 19.2V116" class="D"/><path d="M448 56l40 19.21v41.58L448 136l-40-19.21V75.21z" class="E L"/><use xlink:href="#B" x="-80" class="D"/><path d="M408 76l40 19.21v41.58L408 156l-40-19.21V95.21z" class="E L"/><use xlink:href="#D" x="-80" class="D"/></g><text x="186" y="62" transform="matrix(2 0 0 2 -.5 -.5)" class="H I J K">                     0                 </text><g class="F G e B C"><use xlink:href="#H" class="E M"/><use xlink:href="#D" x="80" class="D"/><use xlink:href="#I" class="E M"/><use xlink:href="#F" x="80" class="D"/><use xlink:href="#J" class="E M"/><use xlink:href="#G" x="80" class="D"/><path d="M448 136l40 19.21v41.58L448 216l-40-19.21v-41.58z" class="E M"/><use xlink:href="#K" class="D"/></g><text x="206" y="92" transform="matrix(2 0 0 2 -.5 -.5)" class="H I J K">                     0                 </text><g class="F G e B C"><path d="M568 36l40 19.21v41.58L568 116l-40-19.21V55.21z" class="E M"/><path d="M528 55.21l40 19.2 40-19.2m-40 19.2V116" class="D"/><path d="M528 56l40 19.21v41.58L528 136l-40-19.21V75.21z" class="E M"/><use xlink:href="#B" class="D"/><use xlink:href="#C" class="E M"/><use xlink:href="#D" class="D"/><use xlink:href="#E" class="E M"/><use xlink:href="#F" class="D"/></g><text x="206" y="72" transform="matrix(2 0 0 2 -.5 -.5)" class="H I J K">                     3                 </text><g class="F G h B C"><use xlink:href="#L" class="E N"/><use xlink:href="#F" x="160" class="D"/><use xlink:href="#M" class="E N"/><use xlink:href="#G" x="160" class="D"/><use xlink:href="#N" class="E N"/><use xlink:href="#K" x="80" class="D"/><path d="M488 156l40 19.21v41.58L488 236l-40-19.21v-41.58z" class="E N"/><use xlink:href="#O" class="D"/></g><text x="226" y="102" transform="matrix(2 0 0 2 -.5 -.5)" class="H I J K">                     1                 </text><g class="F G h B C"><path d="M608 56l40 19.21v41.58L608 136l-40-19.21V75.21z" class="E N"/><use xlink:href="#B" x="80" class="D"/><use xlink:href="#H" class="E N"/><use xlink:href="#D" x="80" class="D"/><use xlink:href="#I" class="E N"/><use xlink:href="#F" x="80" class="D"/><use xlink:href="#J" class="E N"/><use xlink:href="#G" x="80" class="D"/></g><text x="226" y="82" transform="matrix(2 0 0 2 -.5 -.5)" class="H I J K">                     2                 </text><g class="F G i B C"><use xlink:href="#P" class="E Q"/><use xlink:href="#G" x="240" class="D"/><use xlink:href="#Q" class="E Q"/><use xlink:href="#K" x="160" class="D"/><use xlink:href="#R" class="E Q"/><use xlink:href="#O" x="80" class="D"/><path d="M528 176l40 19.21v41.58L528 256l-40-19.21v-41.58z" class="E Q"/><use xlink:href="#S" class="D"/></g><text x="246" y="112" transform="matrix(2 0 0 2 -.5 -.5)" class="H I J K">                     3                 </text><g class="F G i B C"><path d="M648 76l40 19.21v41.58L648 156l-40-19.21V95.21z" class="E Q"/><use xlink:href="#D" x="160" class="D"/><use xlink:href="#L" class="E Q"/><use xlink:href="#F" x="160" class="D"/><use xlink:href="#M" class="E Q"/><use xlink:href="#G" x="160" class="D"/><use xlink:href="#N" class="E Q"/><use xlink:href="#K" x="80" class="D"/></g><text x="246" y="92" transform="matrix(2 0 0 2 -.5 -.5)" class="H I J K">                     3                 </text><g class="F G j B C"><use xlink:href="#T" class="E O"/><use xlink:href="#K" x="240" class="D"/><use xlink:href="#U" class="E O"/><use xlink:href="#O" x="160" class="D"/><use xlink:href="#V" class="E O"/><use xlink:href="#S" x="80" class="D"/><path d="M568 196l40 19.21v41.58L568 276l-40-19.21v-41.58z" class="E O"/><use xlink:href="#W" class="D"/></g><text x="266" y="122" transform="matrix(2 0 0 2 -.5 -.5)" class="H I J K">                     0                 </text><g class="F G j B C"><path d="M688 96l40 19.21v41.58L688 176l-40-19.21v-41.58z" class="E O"/><use xlink:href="#F" x="240" class="D"/><use xlink:href="#P" class="E O"/><use xlink:href="#G" x="240" class="D"/><use xlink:href="#Q" class="E O"/><use xlink:href="#K" x="160" class="D"/><use xlink:href="#R" class="E O"/><use xlink:href="#O" x="80" class="D"/></g><text x="266" y="102" transform="matrix(2 0 0 2 -.5 -.5)" class="H I J K">                     1                 </text><g class="F G f B C"><path d="M728 156l40 19.21v41.58L728 236l-40-19.21v-41.58z" class="E P"/><use xlink:href="#O" x="240" class="D"/><path d="M688 176l40 19.21v41.58L688 256l-40-19.21v-41.58z" class="E P"/><use xlink:href="#S" x="160" class="D"/><path d="M648 196l40 19.21v41.58L648 276l-40-19.21v-41.58z" class="E P"/><use xlink:href="#W" x="80" class="D"/><path d="M608 216l40 19.21v41.58L608 296l-40-19.21v-41.58z" class="E P"/><use xlink:href="#X" class="D"/></g><text x="286" y="132" transform="matrix(2 0 0 2 -.5 -.5)" class="H I J K">                     2                 </text><g class="F G f B C"><path d="M728 116l40 19.21v41.58L728 196l-40-19.21v-41.58z" class="E P"/><use xlink:href="#G" x="320" class="D"/><use xlink:href="#T" class="E P"/><use xlink:href="#K" x="240" class="D"/><use xlink:href="#U" class="E P"/><use xlink:href="#O" x="160" class="D"/><use xlink:href="#V" class="E P"/><use xlink:href="#S" x="80" class="D"/></g><text x="286" y="112" transform="matrix(2 0 0 2 -.5 -.5)" class="H I J K">                     0                 </text><g class="G B"><g class="a"><path d="M533.37 293.32l43.24-21.62" class="D F k"/><circle cx="528" cy="296" r="6"/><g class="F"><use xlink:href="#Y"/><path d="M533.37 253.32l43.24-21.62" class="D k"/></g><circle cx="528" cy="256" r="6"/><use xlink:href="#Y" y="-40" class="F"/></g><g class="R C F"><path d="M308 166l40 19.21v41.58L308 246l-40-19.21v-41.58z" class="E S"/><path d="M268 185.21l40 19.2 40-19.2m-40 19.2V246" class="D"/></g></g><text x="136" y="107" transform="matrix(2 0 0 2 -.5 -.5)" class="H I J T">                     2                 </text><g class="F G R B C"><path d="M308 126l40 19.21v41.58L308 206l-40-19.21v-41.58z" class="E S"/><path d="M268 145.21l40 19.2 40-19.2m-40 19.2V206" class="D"/></g><text x="136" y="87" transform="matrix(2 0 0 2 -.5 -.5)" class="H I J T">                     1                 </text><g class="F G R B C"><path d="M348 186l40 19.21v41.58L348 266l-40-19.21v-41.58z" class="E S"/><path d="M308 205.21l40 19.2 40-19.2m-40 19.2V266" class="D"/></g><text x="156" y="117" transform="matrix(2 0 0 2 -.5 -.5)" class="H I J T">                     0                 </text><g class="F G R B C"><path d="M348 146l40 19.21v41.58L348 226l-40-19.21v-41.58z" class="E S"/><path d="M308 165.21l40 19.2 40-19.2m-40 19.2V226" class="D"/></g><text x="156" y="97" transform="matrix(2 0 0 2 -.5 -.5)" class="H I J T">                     3                 </text><g class="F G R B C"><path d="M388 206l40 19.21v41.58L388 286l-40-19.21v-41.58z" class="E S"/><path d="M348 225.21l40 19.2 40-19.2m-40 19.2V286" class="D"/></g><text x="176" y="127" transform="matrix(2 0 0 2 -.5 -.5)" class="H I J T">                     1                 </text><g class="F G R B C"><path d="M388 166l40 19.21v41.58L388 246l-40-19.21v-41.58z" class="E S"/><path d="M348 185.21l40 19.2 40-19.2m-40 19.2V246" class="D"/></g><text x="176" y="107" transform="matrix(2 0 0 2 -.5 -.5)" class="H I J T">                     2                 </text><g class="F G R B C"><path d="M428 226l40 19.21v41.58L428 306l-40-19.21v-41.58z" class="E S"/><path d="M388 245.21l40 19.2 40-19.2m-40 19.2V306" class="D"/></g><text x="196" y="137" transform="matrix(2 0 0 2 -.5 -.5)" class="H I J T">                     3                 </text><g class="F G R B C"><path d="M428 186l40 19.21v41.58L428 266l-40-19.21v-41.58z" class="E S"/><path d="M388 205.21l40 19.2 40-19.2m-40 19.2V266" class="D"/></g><text x="196" y="117" transform="matrix(2 0 0 2 -.5 -.5)" class="H I J T">                     3                 </text><g class="F G R B C"><path d="M468 246l40 19.21v41.58L468 326l-40-19.21v-41.58z" class="E S"/><path d="M428 265.21l40 19.2 40-19.2m-40 19.2V326" class="D"/></g><text x="216" y="147" transform="matrix(2 0 0 2 -.5 -.5)" class="H I J T">                     0                 </text><g class="F G R B C"><path d="M468 206l40 19.21v41.58L468 286l-40-19.21v-41.58z" class="E S"/><path d="M428 225.21l40 19.2 40-19.2m-40 19.2V286" class="D"/></g><text x="216" y="127" transform="matrix(2 0 0 2 -.5 -.5)" class="H I J T">                     1                 </text><g class="F G R B C"><path d="M508 266l40 19.21v41.58L508 346l-40-19.21v-41.58z" class="E S"/><path d="M468 285.21l40 19.2 40-19.2m-40 19.2V346" class="D"/></g><text x="236" y="157" transform="matrix(2 0 0 2 -.5 -.5)" class="H I J T">                     2                 </text><g class="F G R B C"><path d="M508 226l40 19.21v41.58L508 306l-40-19.21v-41.58z" class="E S"/><path d="M468 245.21l40 19.2 40-19.2m-40 19.2V306" class="D"/></g><text x="236" y="137" transform="matrix(2 0 0 2 -.5 -.5)" class="H I J T">                     0                 </text><g class="G a B"><path d="M433.37 303.32l43.24-21.62" class="D F"/><circle cx="428" cy="306" r="6"/><g class="F"><use xlink:href="#Y" x="-100" y="10"/><path d="M431.9 381.44l47.81-55.77" class="D"/></g><circle cx="428" cy="386" r="6"/><path d="M486.54 317.7l-3.79 15.18-3.04-7.21-7.59-1.9z" class="F"/></g><text x="289" y="183" transform="matrix(2 0 0 2 -.5 -.5)" class="K b c d">                     indices                 </text><text x="199" y="263" transform="matrix(2 0 0 2 -.5 -.5)" class="K b c d">                     data                 </text><text x="359" y="143" transform="matrix(2 0 0 2 -.5 -.5)" class="K b c d">                     output                 </text><g class="F G B"><g class="D"><path d="M28 426l20-10m220 130l20-10" stroke="#999" stroke-dasharray="2 2"/><path d="M36.71 430.35l222.58 111.3" class="a"/></g><path d="M30 427h11.18l-4.47 3.35v5.59zm236 118h-11.18l4.47-3.35v-5.59z" class="a"/></g><text x="59" y="263" transform="matrix(2 0 0 2 -.5 -.5)" class="K b c d">                     batched                 </text><g class="F G B C"><g stroke="#ae4132"><use xlink:href="#Z" class="E V"/><use xlink:href="#a" class="D"/><use xlink:href="#b" class="E V"/><use xlink:href="#c" class="D"/><use xlink:href="#d" class="E V"/><use xlink:href="#e" class="D"/><path d="M88 356l40 19.21v41.58L88 436l-40-19.21v-41.58z" class="E V"/><use xlink:href="#f" class="D"/></g><g class="g"><use xlink:href="#g" class="E L"/><use xlink:href="#h" class="D"/><use xlink:href="#i" class="E L"/><use xlink:href="#j" class="D"/><use xlink:href="#k" class="E L"/><use xlink:href="#a" x="-80" class="D"/><path d="M88 316l40 19.21v41.58L88 396l-40-19.21v-41.58z" class="E L"/><use xlink:href="#c" x="-80" class="D"/><use xlink:href="#l" class="E L"/><use xlink:href="#X" x="-400" class="D"/><use xlink:href="#m" class="E L"/><use xlink:href="#n" class="D"/><use xlink:href="#o" class="E L"/><use xlink:href="#h" x="-80" class="D"/><path d="M88 276l40 19.21v41.58L88 356l-40-19.21v-41.58z" class="E L"/><use xlink:href="#j" x="-80" class="D"/></g><g stroke="#ae4132"><path d="M208 176l40 19.21v41.58L208 256l-40-19.21v-41.58z" class="E V"/><use xlink:href="#S" x="-320" class="D"/><path d="M168 196l40 19.21v41.58L168 276l-40-19.21v-41.58z" class="E V"/><use xlink:href="#W" x="-400" class="D"/><path d="M128 216l40 19.21v41.58L128 296l-40-19.21v-41.58z" class="E V"/><use xlink:href="#X" x="-480" class="D"/><path d="M88 236l40 19.21v41.58L88 316l-40-19.21v-41.58z" class="E V"/><use xlink:href="#n" x="-80" class="D"/></g><g class="e"><use xlink:href="#p" class="E M"/><use xlink:href="#c" x="80" class="D"/><use xlink:href="#q" class="E M"/><use xlink:href="#e" x="80" class="D"/><use xlink:href="#r" class="E M"/><use xlink:href="#f" x="80" class="D"/><path d="M128 376l40 19.21v41.58L128 456l-40-19.21v-41.58z" class="E M"/><use xlink:href="#s" class="D"/></g><g stroke="#b46504"><use xlink:href="#t" class="E W"/><use xlink:href="#j" x="80" class="D"/><use xlink:href="#Z" class="E W"/><use xlink:href="#a" class="D"/><use xlink:href="#b" class="E W"/><use xlink:href="#c" class="D"/><use xlink:href="#d" class="E W"/><use xlink:href="#e" class="D"/><use xlink:href="#u" class="E W"/><use xlink:href="#n" x="80" class="D"/><use xlink:href="#g" class="E W"/><use xlink:href="#h" class="D"/><use xlink:href="#i" class="E W"/><use xlink:href="#j" class="D"/><use xlink:href="#k" class="E W"/><use xlink:href="#a" x="-80" class="D"/></g><g class="e"><path d="M248 196l40 19.21v41.58L248 276l-40-19.21v-41.58z" class="E M"/><use xlink:href="#W" x="-320" class="D"/><use xlink:href="#l" class="E M"/><use xlink:href="#X" x="-400" class="D"/><use xlink:href="#m" class="E M"/><use xlink:href="#n" class="D"/><use xlink:href="#o" class="E M"/><use xlink:href="#h" x="-80" class="D"/></g><g stroke="#d6b656"><use xlink:href="#v" class="E X"/><use xlink:href="#e" x="160" class="D"/><use xlink:href="#w" class="E X"/><use xlink:href="#f" x="160" class="D"/><use xlink:href="#x" class="E X"/><use xlink:href="#s" x="80" class="D"/><path d="M168 396l40 19.21v41.58L168 476l-40-19.21v-41.58z" class="E X"/><use xlink:href="#y" class="D"/></g><g class="h"><use xlink:href="#z" class="E N"/><use xlink:href="#a" x="80" class="D"/><use xlink:href="#p" class="E N"/><use xlink:href="#c" x="80" class="D"/><use xlink:href="#q" class="E N"/><use xlink:href="#e" x="80" class="D"/><use xlink:href="#r" class="E N"/><use xlink:href="#f" x="80" class="D"/><use xlink:href="#AA" class="E N"/><use xlink:href="#h" x="80" class="D"/><use xlink:href="#t" class="E N"/><use xlink:href="#j" x="80" class="D"/><use xlink:href="#Z" class="E N"/><use xlink:href="#a" class="D"/><use xlink:href="#b" class="E N"/><use xlink:href="#c" class="D"/></g><g stroke="#d6b656"><path d="M288 216l40 19.21v41.58L288 296l-40-19.21v-41.58z" class="E X"/><use xlink:href="#X" x="-320" class="D"/><use xlink:href="#u" class="E X"/><use xlink:href="#n" x="80" class="D"/><use xlink:href="#g" class="E X"/><use xlink:href="#h" class="D"/><use xlink:href="#i" class="E X"/><use xlink:href="#j" class="D"/></g><g class="i"><use xlink:href="#AB" class="E Q"/><use xlink:href="#f" x="240" class="D"/><use xlink:href="#AC" class="E Q"/><use xlink:href="#s" x="160" class="D"/><use xlink:href="#AD" class="E Q"/><use xlink:href="#y" x="80" class="D"/><path d="M208 416l40 19.21v41.58L208 496l-40-19.21v-41.58z" class="E Q"/><use xlink:href="#AE" class="D"/></g><g stroke="#82b366"><use xlink:href="#AF" class="E U"/><use xlink:href="#c" x="160" class="D"/><use xlink:href="#v" class="E U"/><use xlink:href="#e" x="160" class="D"/><use xlink:href="#w" class="E U"/><use xlink:href="#f" x="160" class="D"/><use xlink:href="#x" class="E U"/><use xlink:href="#s" x="80" class="D"/><use xlink:href="#AG" class="E U"/><use xlink:href="#j" x="160" class="D"/><use xlink:href="#z" class="E U"/><use xlink:href="#a" x="80" class="D"/><use xlink:href="#p" class="E U"/><use xlink:href="#c" x="80" class="D"/><use xlink:href="#q" class="E U"/><use xlink:href="#e" x="80" class="D"/><path d="M328 236l40 19.21v41.58L328 316l-40-19.21v-41.58z" class="E U"/><use xlink:href="#n" x="160" class="D"/><use xlink:href="#AA" class="E U"/><use xlink:href="#h" x="80" class="D"/><use xlink:href="#t" class="E U"/><use xlink:href="#j" x="80" class="D"/><use xlink:href="#Z" class="E U"/><use xlink:href="#a" class="D"/></g><g class="j"><use xlink:href="#AH" class="E Y"/><use xlink:href="#s" x="240" class="D"/><use xlink:href="#AI" class="E Y"/><use xlink:href="#y" x="160" class="D"/><use xlink:href="#AJ" class="E Y"/><use xlink:href="#AE" x="80" class="D"/><path d="M248 436l40 19.21v41.58L248 516l-40-19.21v-41.58z" class="E Y"/><path d="M208 455.21l40 19.2 40-19.2m-40 19.2V516" class="D"/><use xlink:href="#AK" class="E Y"/><use xlink:href="#e" x="240" class="D"/><use xlink:href="#AB" class="E Y"/><use xlink:href="#f" x="240" class="D"/><use xlink:href="#AC" class="E Y"/><use xlink:href="#s" x="160" class="D"/><use xlink:href="#AD" class="E Y"/><use xlink:href="#y" x="80" class="D"/><use xlink:href="#AL" class="E O"/><use xlink:href="#a" x="160" class="D"/><use xlink:href="#AF" class="E O"/><use xlink:href="#c" x="160" class="D"/><use xlink:href="#v" class="E O"/><use xlink:href="#e" x="160" class="D"/><use xlink:href="#w" class="E O"/><use xlink:href="#f" x="160" class="D"/><path d="M368 256l40 19.21v41.58L368 336l-40-19.21v-41.58z" class="E O"/><use xlink:href="#h" x="160" class="D"/><use xlink:href="#AG" class="E O"/><use xlink:href="#j" x="160" class="D"/><use xlink:href="#z" class="E O"/><use xlink:href="#a" x="80" class="D"/><use xlink:href="#p" class="E O"/><use xlink:href="#c" x="80" class="D"/></g><g stroke="#6c8ebf"><path d="M408 396l40 19.21v41.58L408 476l-40-19.21v-41.58z" class="E Z"/><use xlink:href="#y" x="240" class="D"/><path d="M368 416l40 19.21v41.58L368 496l-40-19.21v-41.58z" class="E Z"/><use xlink:href="#AE" x="160" class="D"/><path d="M328 436l40 19.21v41.58L328 516l-40-19.21v-41.58z" class="E Z"/><path d="M288 455.21l40 19.2 40-19.2m-40 19.2V516" class="D"/><path d="M288 456l40 19.21v41.58L288 536l-40-19.21v-41.58z" class="E Z"/><path d="M248 475.21l40 19.2 40-19.2m-40 19.2V536" class="D"/></g></g><text x="126" y="252" transform="matrix(2 0 0 2 -.5 -.5)" class="H I J K">                     3                 </text><g class="F G f B C"><path d="M408 356l40 19.21v41.58L408 436l-40-19.21v-41.58z" class="E P"/><use xlink:href="#f" x="320" class="D"/><use xlink:href="#AH" class="E P"/><use xlink:href="#s" x="240" class="D"/><use xlink:href="#AI" class="E P"/><use xlink:href="#y" x="160" class="D"/><use xlink:href="#AJ" class="E P"/><use xlink:href="#AE" x="80" class="D"/></g><text x="126" y="232" transform="matrix(2 0 0 2 -.5 -.5)" class="H I J K">                     2                 </text><g stroke="#6c8ebf" class="F G B C"><path d="M408 316l40 19.21v41.58L408 396l-40-19.21v-41.58z" class="E Z"/><use xlink:href="#c" x="240" class="D"/><use xlink:href="#AK" class="E Z"/><use xlink:href="#e" x="240" class="D"/><use xlink:href="#AB" class="E Z"/><use xlink:href="#f" x="240" class="D"/><use xlink:href="#AC" class="E Z"/><use xlink:href="#s" x="160" class="D"/></g><text x="126" y="212" transform="matrix(2 0 0 2 -.5 -.5)" class="H I J K">                     1                 </text><g class="F G f B C"><path d="M408 276l40 19.21v41.58L408 356l-40-19.21v-41.58z" class="E P"/><use xlink:href="#j" x="240" class="D"/><use xlink:href="#AL" class="E P"/><use xlink:href="#a" x="160" class="D"/><use xlink:href="#AF" class="E P"/><use xlink:href="#c" x="160" class="D"/><use xlink:href="#v" class="E P"/><use xlink:href="#e" x="160" class="D"/></g><text x="126" y="192" transform="matrix(2 0 0 2 -.5 -.5)" class="H I J K">                     0                 </text><text x="144" y="178" transform="matrix(2 0 0 2 -.5 -.5)" class="K b c d">                     axis                 </text><g stroke-width="4" class="a B"><path d="M287.93 382.08l.05 57.45" class="D F"/><circle cx="287.92" cy="376.08" r="6"/><path d="M288 451.53l-8.02-15.99 8 3.99 8-4.01z" class="F"/></g><defs ><path id="B" d="M488 75.21l40 19.2 40-19.2m-40 19.2V136"/><path id="C" d="M488 76l40 19.21v41.58L488 156l-40-19.21V95.21z"/><path id="D" d="M448 95.21l40 19.2 40-19.2m-40 19.2V156"/><path id="E" d="M448 96l40 19.21v41.58L448 176l-40-19.21v-41.58z"/><path id="F" d="M408 115.21l40 19.2 40-19.2m-40 19.2V176"/><path id="G" d="M368 135.21l40 19.2 40-19.2m-40 19.2V196"/><path id="H" d="M568 76l40 19.21v41.58L568 156l-40-19.21V95.21z"/><path id="I" d="M528 96l40 19.21v41.58L528 176l-40-19.21v-41.58z"/><path id="J" d="M488 116l40 19.21v41.58L488 196l-40-19.21v-41.58z"/><path id="K" d="M408 155.21l40 19.2 40-19.2m-40 19.2V216"/><path id="L" d="M608 96l40 19.21v41.58L608 176l-40-19.21v-41.58z"/><path id="M" d="M568 116l40 19.21v41.58L568 196l-40-19.21v-41.58z"/><path id="N" d="M528 136l40 19.21v41.58L528 216l-40-19.21v-41.58z"/><path id="O" d="M448 175.21l40 19.2 40-19.2m-40 19.2V236"/><path id="P" d="M648 116l40 19.21v41.58L648 196l-40-19.21v-41.58z"/><path id="Q" d="M608 136l40 19.21v41.58L608 216l-40-19.21v-41.58z"/><path id="R" d="M568 156l40 19.21v41.58L568 236l-40-19.21v-41.58z"/><path id="S" d="M488 195.21l40 19.2 40-19.2m-40 19.2V256"/><path id="T" d="M688 136l40 19.21v41.58L688 216l-40-19.21v-41.58z"/><path id="U" d="M648 156l40 19.21v41.58L648 236l-40-19.21v-41.58z"/><path id="V" d="M608 176l40 19.21v41.58L608 256l-40-19.21v-41.58z"/><path id="W" d="M528 215.21l40 19.2 40-19.2m-40 19.2V276"/><path id="X" d="M568 235.21l40 19.2 40-19.2m-40 19.2V296"/><path id="Y" d="M586 267l-9.39 12.52v-7.82l-6.26-4.7z"/><path id="Z" d="M208 296l40 19.21v41.58L208 376l-40-19.21v-41.58z"/><path id="a" d="M168 315.21l40 19.2 40-19.2m-40 19.2V376"/><path id="b" d="M168 316l40 19.21v41.58L168 396l-40-19.21v-41.58z"/><path id="c" d="M128 335.21l40 19.2 40-19.2m-40 19.2V396"/><path id="d" d="M128 336l40 19.21v41.58L128 416l-40-19.21v-41.58z"/><path id="e" d="M88 355.21l40 19.2 40-19.2m-40 19.2V416"/><path id="f" d="M48 375.21l40 19.2 40-19.2m-40 19.2V436"/><path id="g" d="M208 256l40 19.21v41.58L208 336l-40-19.21v-41.58z"/><path id="h" d="M168 275.21l40 19.2 40-19.2m-40 19.2V336"/><path id="i" d="M168 276l40 19.21v41.58L168 356l-40-19.21v-41.58z"/><path id="j" d="M128 295.21l40 19.2 40-19.2m-40 19.2V356"/><path id="k" d="M128 296l40 19.21v41.58L128 376l-40-19.21v-41.58z"/><path id="l" d="M208 216l40 19.21v41.58L208 296l-40-19.21v-41.58z"/><path id="m" d="M168 236l40 19.21v41.58L168 316l-40-19.21v-41.58z"/><path id="n" d="M128 255.21l40 19.2 40-19.2m-40 19.2V316"/><path id="o" d="M128 256l40 19.21v41.58L128 336l-40-19.21v-41.58z"/><path id="p" d="M248 316l40 19.21v41.58L248 396l-40-19.21v-41.58z"/><path id="q" d="M208 336l40 19.21v41.58L208 416l-40-19.21v-41.58z"/><path id="r" d="M168 356l40 19.21v41.58L168 436l-40-19.21v-41.58z"/><path id="s" d="M88 395.21l40 19.2 40-19.2m-40 19.2V456"/><path id="t" d="M248 276l40 19.21v41.58L248 356l-40-19.21v-41.58z"/><path id="u" d="M248 236l40 19.21v41.58L248 316l-40-19.21v-41.58z"/><path id="v" d="M288 336l40 19.21v41.58L288 416l-40-19.21v-41.58z"/><path id="w" d="M248 356l40 19.21v41.58L248 436l-40-19.21v-41.58z"/><path id="x" d="M208 376l40 19.21v41.58L208 456l-40-19.21v-41.58z"/><path id="y" d="M128 415.21l40 19.2 40-19.2m-40 19.2V476"/><path id="z" d="M288 296l40 19.21v41.58L288 376l-40-19.21v-41.58z"/><path id="AA" d="M288 256l40 19.21v41.58L288 336l-40-19.21v-41.58z"/><path id="AB" d="M328 356l40 19.21v41.58L328 436l-40-19.21v-41.58z"/><path id="AC" d="M288 376l40 19.21v41.58L288 456l-40-19.21v-41.58z"/><path id="AD" d="M248 396l40 19.21v41.58L248 476l-40-19.21v-41.58z"/><path id="AE" d="M168 435.21l40 19.2 40-19.2m-40 19.2V496"/><path id="AF" d="M328 316l40 19.21v41.58L328 396l-40-19.21v-41.58z"/><path id="AG" d="M328 276l40 19.21v41.58L328 356l-40-19.21v-41.58z"/><path id="AH" d="M368 376l40 19.21v41.58L368 456l-40-19.21v-41.58z"/><path id="AI" d="M328 396l40 19.21v41.58L328 476l-40-19.21v-41.58z"/><path id="AJ" d="M288 416l40 19.21v41.58L288 496l-40-19.21v-41.58z"/><path id="AK" d="M368 336l40 19.21v41.58L368 416l-40-19.21v-41.58z"/><path id="AL" d="M368 296l40 19.21v41.58L368 376l-40-19.21v-41.58z"/></defs></svg>