<svg xmlns="http://www.w3.org/2000/svg" width="1035" height="519" viewBox="-0.5 -0.5 1035 519" style="background-color:rgb(255, 255, 255)" xmlns:v="https://vecta.io/nano"><style><![CDATA[.B{pointer-events:none}.C{stroke-opacity:.8}.D{text-anchor:middle}.E{font-family:sans-serif}.F{font-size:12px}.G{fill:#000}.H{stroke-width:2}.I{fill:none}.J{fill-opacity:.8}.K{stroke-miterlimit:10}.L{fill:#fff}.M{stroke-dasharray:6 6}.N{font-family:serif}.O{font-size:16px}.P{fill:#76608a}.Q{pointer-events:all}]]></style><g stroke="#432d57" class="H C Q"><path d="M416 90h240v160H416z" class="J P"/><g class="I K"><path d="M416 170h240"/><path d="M496 90v160m80-160v160"/></g></g><g stroke="#b85450" class="B C H"><path fill="#f8cecc" d="M16 90h320v320H16z" class="J"/><g class="I K"><path d="M16 170h80 240M16 250h320"/><path d="M16 330h80 240M96 90v320"/><path d="M176 90v80 240m80-320v320"/></g></g><g stroke="#82b366" class="B C H"><path fill="#d5e8d4" d="M36 110h320v320H36z" class="J"/><g class="I K"><path d="M36 190h80 240M36 270h320"/><path d="M36 350h80 240M116 110v320"/><path d="M196 110v80 240m80-320v320"/></g></g><g stroke="#6c8ebf" class="B C H"><path fill="#dae8fc" d="M56 130h320v320H56z" class="J"/><g class="I K"><path d="M56 210h80 240M56 290h320"/><path d="M56 370h80 240M136 130v320"/><path d="M216 130v80 240m78-320v320"/></g></g><text x="48" y="89" transform="matrix(2 0 0 2 -.5 -.5)" class="D E F G">                     A                 </text><text x="88" y="89" transform="matrix(2 0 0 2 -.5 -.5)" class="D E F G">                     B                 </text><text x="128" y="89" transform="matrix(2 0 0 2 -.5 -.5)" class="D E F G">                     C                 </text><text x="168" y="89" transform="matrix(2 0 0 2 -.5 -.5)" class="D E F G">                     D                 </text><text x="48" y="129" transform="matrix(2 0 0 2 -.5 -.5)" class="D E F G">                     E                 </text><text x="88" y="129" transform="matrix(2 0 0 2 -.5 -.5)" class="D E F G">                     F                 </text><text x="128" y="129" transform="matrix(2 0 0 2 -.5 -.5)" class="D E F G">                     G                 </text><text x="168" y="129" transform="matrix(2 0 0 2 -.5 -.5)" class="D E F G">                     H                 </text><text x="48" y="169" transform="matrix(2 0 0 2 -.5 -.5)" class="D E F G">                     I                 </text><text x="88" y="169" transform="matrix(2 0 0 2 -.5 -.5)" class="D E F G">                     J                 </text><text x="128" y="169" transform="matrix(2 0 0 2 -.5 -.5)" class="D E F G">                     K                 </text><text x="168" y="169" transform="matrix(2 0 0 2 -.5 -.5)" class="D E F G">                     L                 </text><text x="48" y="209" transform="matrix(2 0 0 2 -.5 -.5)" class="D E F G">                     M                 </text><text x="88" y="209" transform="matrix(2 0 0 2 -.5 -.5)" class="D E F G">                     N                 </text><text x="128" y="209" transform="matrix(2 0 0 2 -.5 -.5)" class="D E F G">                     O                 </text><text x="168" y="209" transform="matrix(2 0 0 2 -.5 -.5)" class="D E F G">                     P                 </text><g stroke="#000" stroke-width="4" class="B"><path d="M61.68 129.72l57.85.41" class="I K"/><circle cx="55.68" cy="129.68" r="6"/><path d="M131.53 130.21l-16.06 7.89 4.06-7.97-3.95-8.03z" class="K"/></g><g stroke="#432d57" class="H B C"><path d="M436 110h240v160H436z" class="J P"/><g class="I K"><path d="M436 190h240"/><path d="M516 110v160m80-160v160"/></g><path d="M456 130h240v160H456z" class="J P"/><g class="I K"><path d="M456 210h240"/><path d="M536 130v160m80-160v160"/></g></g><text x="248" y="89" transform="matrix(2 0 0 2 -.5 -.5)" class="D E F L">                     0                 </text><text x="288" y="89" transform="matrix(2 0 0 2 -.5 -.5)" class="D E F L">                     3                 </text><text x="328" y="89" transform="matrix(2 0 0 2 -.5 -.5)" class="D E F L">                     2                 </text><text x="248" y="129" transform="matrix(2 0 0 2 -.5 -.5)" class="D E F L">                     1                 </text><text x="288" y="129" transform="matrix(2 0 0 2 -.5 -.5)" class="D E F L">                     0                 </text><text x="328" y="129" transform="matrix(2 0 0 2 -.5 -.5)" class="D E F L">                     1                 </text><g class="H B C"><g stroke="#6f0000"><path fill="#a20025" d="M736 90h240v160H736z" class="J"/><g class="I K"><path d="M736 170h240"/><path d="M816 90v160m80-160v160"/></g></g><g stroke="#2d7600"><path fill="#60a917" d="M756 110h240v160H756z" class="J"/><g class="I K"><path d="M756 190h240"/><path d="M836 110v160m80-160v160"/></g></g><g stroke="#006eaf"><path fill="#1ba1e2" d="M776 130h240v160H776z" class="J"/><g class="I K"><path d="M776 210h240"/><path d="M856 130v160m80-160v160"/></g></g></g><text x="408" y="89" transform="matrix(2 0 0 2 -.5 -.5)" class="D E F G">                     A                 </text><text x="448" y="89" transform="matrix(2 0 0 2 -.5 -.5)" class="D E F G">                     D                 </text><text x="488" y="89" transform="matrix(2 0 0 2 -.5 -.5)" class="D E F G">                     C                 </text><text x="408" y="129" transform="matrix(2 0 0 2 -.5 -.5)" class="D E F G">                     F                 </text><text x="448" y="129" transform="matrix(2 0 0 2 -.5 -.5)" class="D E F G">                     E                 </text><text x="488" y="129" transform="matrix(2 0 0 2 -.5 -.5)" class="D E F G">                     F                 </text><g class="H I M B"><rect x="66" y="140" width="300" height="60" rx="9" stroke="#314354"/><rect x="466" y="140" width="220" height="60" rx="9" stroke="#cce5ff"/><rect x="786" y="140" width="220" height="60" rx="9" stroke="#314354"/></g><text x="28" y="60" transform="matrix(2 0 0 2 -.5 -.5)" class="D G N O">                     axis                 </text><g stroke="#000" class="H K B"><path d="M96 200v15q0 15 20 15h360q20 0 20-8.63v-8.63" class="I"/><path d="M496 202.24l7 14-7-3.5-7 3.5z"/><path d="M336 200v30q0 20 20 20h200q20 0 20-18.63v-18.63" class="I"/><path d="M576 202.24l7 14-7-3.5-7 3.5z"/><path d="M256 200v50q0 20 20 20h360q20 0 20-20v-37.26" class="I"/><path d="M656 202.24l7 14-7-3.5-7 3.5z"/><path d="M576 140V70q0-20 20-20h280q20 0 20 20v57.26" class="C I M"/><path d="M896 137.76l-7-14 7 3.5 7-3.5z" class="C J"/><path d="M496 140V90q0-20 20-20h280q20 0 20 20v37.26" class="C I M"/><path d="M816 137.76l-7-14 7 3.5 7-3.5z" class="C J"/><path d="M656 140V50q0-20 20-20h280q20 0 20 20v77.26" class="C I M"/><path d="M976 137.76l-7-14 7 3.5 7-3.5z" class="C J"/></g><text x="108" y="245" transform="matrix(2 0 0 2 -.5 -.5)" class="D G N O">                     data                 </text><text x="288" y="165" transform="matrix(2 0 0 2 -.5 -.5)" class="D G N O">                     indices                 </text><text x="448" y="165" transform="matrix(2 0 0 2 -.5 -.5)" class="D G N O">                     output                 </text></svg>