<svg xmlns="http://www.w3.org/2000/svg" width="1035" height="445" viewBox="-0.5 -0.5 1035 445" style="background-color:rgb(255, 255, 255)" xmlns:v="https://vecta.io/nano"><style><![CDATA[.B{pointer-events:none}.C{stroke-opacity:.8}.D{text-anchor:middle}.E{font-family:sans-serif}.F{font-size:12px}.G{fill:#000}.H{stroke-width:2}.I{stroke-miterlimit:10}.J{fill:none}.K{fill-opacity:.8}.L{stroke:#000}.M{fill:#fff}.N{stroke-dasharray:6 6}.O{font-family:serif}.P{font-size:16px}.Q{fill:#76608a}.R{pointer-events:all}]]></style><g stroke="#432d57" class="H C R"><path d="M416 16h240v160H416z" class="K Q"/><g class="I J"><path d="M416 96h240"/><path d="M496 16v160m80-160v160"/></g></g><g stroke="#b85450" class="B C H"><path fill="#f8cecc" d="M16 16h320v320H16z" class="K"/><g class="I J"><path d="M16 96h80 240M16 176h320"/><path d="M16 256h80 240M96 16v320"/><path d="M176 16v80 240m80-320v320"/></g></g><g stroke="#82b366" class="B C H"><path fill="#d5e8d4" d="M36 36h320v320H36z" class="K"/><g class="I J"><path d="M36 116h80 240M36 196h320"/><path d="M36 276h80 240M116 36v320"/><path d="M196 36v80 240m80-320v320"/></g></g><g stroke="#6c8ebf" class="B C H"><path fill="#dae8fc" d="M56 56h320v320H56z" class="K"/><g class="I J"><path d="M56 136h80 240M56 216h320"/><path d="M56 296h80 240M136 56v320"/><path d="M216 56v80 240m78-320v320"/></g></g><text x="48" y="52" transform="matrix(2 0 0 2 -.5 -.5)" class="D E F G">                     A                 </text><text x="88" y="52" transform="matrix(2 0 0 2 -.5 -.5)" class="D E F G">                     B                 </text><text x="128" y="52" transform="matrix(2 0 0 2 -.5 -.5)" class="D E F G">                     C                 </text><text x="168" y="52" transform="matrix(2 0 0 2 -.5 -.5)" class="D E F G">                     D                 </text><text x="48" y="92" transform="matrix(2 0 0 2 -.5 -.5)" class="D E F G">                     E                 </text><text x="88" y="92" transform="matrix(2 0 0 2 -.5 -.5)" class="D E F G">                     F                 </text><text x="128" y="92" transform="matrix(2 0 0 2 -.5 -.5)" class="D E F G">                     G                 </text><text x="168" y="92" transform="matrix(2 0 0 2 -.5 -.5)" class="D E F G">                     H                 </text><text x="48" y="132" transform="matrix(2 0 0 2 -.5 -.5)" class="D E F G">                     I                 </text><text x="88" y="132" transform="matrix(2 0 0 2 -.5 -.5)" class="D E F G">                     J                 </text><text x="128" y="132" transform="matrix(2 0 0 2 -.5 -.5)" class="D E F G">                     K                 </text><text x="168" y="132" transform="matrix(2 0 0 2 -.5 -.5)" class="D E F G">                     L                 </text><text x="48" y="172" transform="matrix(2 0 0 2 -.5 -.5)" class="D E F G">                     M                 </text><text x="88" y="172" transform="matrix(2 0 0 2 -.5 -.5)" class="D E F G">                     N                 </text><text x="128" y="172" transform="matrix(2 0 0 2 -.5 -.5)" class="D E F G">                     O                 </text><text x="168" y="172" transform="matrix(2 0 0 2 -.5 -.5)" class="D E F G">                     P                 </text><g stroke-width="4" class="L B"><path d="M54.79 62.16l.69 57.53" class="I J"/><circle cx="54.72" cy="56.16" r="6"/><path d="M55.63 131.69l-8.2-15.9 8.05 3.9 7.95-4.1z" class="I"/></g><g stroke="#432d57" class="H B C"><path d="M436 36h240v160H436z" class="K Q"/><g class="I J"><path d="M436 116h240"/><path d="M516 36v160m80-160v160"/></g><path d="M456 56h240v160H456z" class="K Q"/><g class="I J"><path d="M456 136h240"/><path d="M536 56v160m80-160v160"/></g></g><text x="248" y="52" transform="matrix(2 0 0 2 -.5 -.5)" class="D E F M">                     0                 </text><text x="288" y="52" transform="matrix(2 0 0 2 -.5 -.5)" class="D E F M">                     3                 </text><text x="328" y="52" transform="matrix(2 0 0 2 -.5 -.5)" class="D E F M">                     2                 </text><text x="248" y="92" transform="matrix(2 0 0 2 -.5 -.5)" class="D E F M">                     1                 </text><text x="288" y="92" transform="matrix(2 0 0 2 -.5 -.5)" class="D E F M">                     0                 </text><text x="328" y="92" transform="matrix(2 0 0 2 -.5 -.5)" class="D E F M">                     1                 </text><g class="H B C"><g stroke="#6f0000"><path fill="#a20025" d="M736 16h240v160H736z" class="K"/><g class="I J"><path d="M736 96h240"/><path d="M816 16v160m80-160v160"/></g></g><g stroke="#2d7600"><path fill="#60a917" d="M756 36h240v160H756z" class="K"/><g class="I J"><path d="M756 116h240"/><path d="M836 36v160m80-160v160"/></g></g><g stroke="#006eaf"><path fill="#1ba1e2" d="M776 56h240v160H776z" class="K"/><g class="I J"><path d="M776 136h240"/><path d="M856 56v160m80-160v160"/></g></g></g><text x="408" y="52" transform="matrix(2 0 0 2 -.5 -.5)" class="D E F G">                     A                 </text><text x="448" y="52" transform="matrix(2 0 0 2 -.5 -.5)" class="D E F G">                     N                 </text><text x="488" y="52" transform="matrix(2 0 0 2 -.5 -.5)" class="D E F G">                     K                 </text><text x="408" y="92" transform="matrix(2 0 0 2 -.5 -.5)" class="D E F G">                     E                 </text><text x="448" y="92" transform="matrix(2 0 0 2 -.5 -.5)" class="D E F G">                     B                 </text><text x="488" y="92" transform="matrix(2 0 0 2 -.5 -.5)" class="D E F G">                     G                 </text><g class="H B"><g class="J"><g class="N"><rect x="146" y="66" width="60" height="300" rx="9" stroke="#314354"/><rect x="546" y="66" width="60" height="140" rx="9" stroke="#cce5ff"/></g><path d="M206 326l329.45-222.86" class="I L"/></g><path d="M544.15 97.25l-7.68 13.65-1.02-7.76-6.82-3.84z" class="I L"/><path d="M206 96l327.6 77.08" class="I J L"/><path d="M543.82 175.49l-15.23 3.61 5.01-6.02-1.8-7.61z" class="I L"/><rect x="866" y="66" width="60" height="140" rx="9" stroke="#314354" class="J N"/></g><text x="28" y="23" transform="matrix(2 0 0 2 -.5 -.5)" class="D G O P">                     axis                 </text><g class="H I L B C"><path d="M606 96h247.26" class="J N"/><path d="M863.76 96l-14 7 3.5-7-3.5-7z" class="K"/><path d="M606 176h247.26" class="J N"/><path d="M863.76 176l-14 7 3.5-7-3.5-7z" class="K"/></g><text x="108" y="208" transform="matrix(2 0 0 2 -.5 -.5)" class="D G O P">                     data                 </text><text x="288" y="128" transform="matrix(2 0 0 2 -.5 -.5)" class="D G O P">                     indices                 </text><text x="448" y="128" transform="matrix(2 0 0 2 -.5 -.5)" class="D G O P">                     output                 </text></svg>