<svg xmlns="http://www.w3.org/2000/svg" xmlns:xlink="http://www.w3.org/1999/xlink" width="1184" height="695" viewBox="-0.5 -0.5 1184 695" style="background-color:rgb(255, 255, 255)" xmlns:v="https://vecta.io/nano"><style><![CDATA[.B{pointer-events:none}.C{stroke-opacity:.8}.D{fill:none}.E{fill-opacity:.8}.F{fill:#fff2cc}.G{stroke-miterlimit:10}.H{fill:#f8cecc}.I{fill:#d5e8d4}.J{fill:#dae8fc}.K{font-family:sans-serif}.L{font-size:12px}.M{fill:#000}.N{stroke-width:2}.O{text-anchor:middle}.P{fill:#fff}.Q{font-family:serif}.R{font-size:16px}.S{stroke:#d6b656}.T{pointer-events:all}.U{stroke-dasharray:6 6}]]></style><g stroke="#432d57" class="N T"><path fill="#76608a" d="M456 196h240v160H456z"/><g class="D G"><path d="M456 276h240"/><path d="M536 196v160m80-160v160"/></g></g><text x="248" y="122" transform="matrix(2 0 0 2 -.5 -.5)" class="K L O P">                     3                 </text><text x="288" y="122" transform="matrix(2 0 0 2 -.5 -.5)" class="K L O P">                     1                 </text><text x="328" y="122" transform="matrix(2 0 0 2 -.5 -.5)" class="K L O P">                     0                 </text><text x="248" y="162" transform="matrix(2 0 0 2 -.5 -.5)" class="K L O P">                     2                 </text><text x="288" y="162" transform="matrix(2 0 0 2 -.5 -.5)" class="K L O P">                     2                 </text><text x="328" y="162" transform="matrix(2 0 0 2 -.5 -.5)" class="K L O P">                     2                 </text><text x="378" y="173" transform="matrix(2 0 0 2 -.5 -.5)" class="M O Q R">                     indices                 </text><g stroke="#b85450" class="G N B C"><use xlink:href="#B" class="E H"/><use xlink:href="#C" class="D"/><use xlink:href="#D" class="E H"/><use xlink:href="#E" class="D"/><path d="M96 176l40 19.21v41.58L96 256l-40-19.21v-41.58z" class="E H"/><use xlink:href="#F" class="D"/><path d="M56 196l40 19.21v41.58L56 276l-40-19.21v-41.58z" class="E H"/><use xlink:href="#G" class="D"/><use xlink:href="#H" class="E H"/><use xlink:href="#E" x="80" class="D"/><use xlink:href="#I" class="E H"/><use xlink:href="#F" x="80" class="D"/><path d="M136 196l40 19.21v41.58L136 276l-40-19.21v-41.58z" class="E H"/><use xlink:href="#G" x="80" class="D"/><path d="M96 216l40 19.21v41.58L96 296l-40-19.21v-41.58z" class="E H"/><use xlink:href="#J" class="D"/><use xlink:href="#K" class="E H"/><use xlink:href="#F" x="160" class="D"/><use xlink:href="#L" class="E H"/><use xlink:href="#G" x="160" class="D"/><path d="M176 216l40 19.21v41.58L176 296l-40-19.21v-41.58z" class="E H"/><use xlink:href="#J" x="80" class="D"/><path d="M136 236l40 19.21v41.58L136 316l-40-19.21v-41.58z" class="E H"/><use xlink:href="#M" class="D"/><use xlink:href="#N" class="E H"/><use xlink:href="#G" x="240" class="D"/><use xlink:href="#O" class="E H"/><use xlink:href="#J" x="160" class="D"/><path d="M216 236l40 19.21v41.58L216 316l-40-19.21v-41.58z" class="E H"/><use xlink:href="#M" x="80" class="D"/><path d="M176 256l40 19.21v41.58L176 336l-40-19.21v-41.58z" class="E H"/><path d="M136 275.21l40 19.2 40-19.2m-40 19.2V336" class="D"/><path d="M336 216l40 19.21v41.58L336 296l-40-19.21v-41.58z" class="E H"/><use xlink:href="#J" x="240" class="D"/><path d="M296 236l40 19.21v41.58L296 316l-40-19.21v-41.58z" class="E H"/><use xlink:href="#M" x="160" class="D"/><path d="M256 256l40 19.21v41.58L256 336l-40-19.21v-41.58z" class="E H"/><path d="M216 275.21l40 19.2 40-19.2m-40 19.2V336" class="D"/><path d="M216 276l40 19.21v41.58L216 356l-40-19.21v-41.58z" class="E H"/><path d="M176 295.21l40 19.2 40-19.2m-40 19.2V356" class="D"/><path d="M376 236l40 19.21v41.58L376 316l-40-19.21v-41.58z" class="E H"/><use xlink:href="#M" x="240" class="D"/><path d="M336 256l40 19.21v41.58L336 336l-40-19.21v-41.58z" class="E H"/><path d="M296 275.21l40 19.2 40-19.2m-40 19.2V336" class="D"/><path d="M296 276l40 19.21v41.58L296 356l-40-19.21v-41.58z" class="E H"/><path d="M256 295.21l40 19.2 40-19.2m-40 19.2V356" class="D"/><path d="M256 296l40 19.21v41.58L256 376l-40-19.21v-41.58z" class="E H"/><path d="M216 315.21l40 19.2 40-19.2m-40 19.2V376" class="D"/></g><text x="110" y="172" transform="matrix(2 0 0 2 -.5 -.5)" class="K L M">                     3                 </text><g class="G N S B C"><use xlink:href="#P" class="E F"/><use xlink:href="#Q" class="D"/><use xlink:href="#R" class="E F"/><use xlink:href="#S" class="D"/><path d="M96 136l40 19.21v41.58L96 216l-40-19.21v-41.58z" class="E F"/><use xlink:href="#C" x="-80" class="D"/><path d="M56 156l40 19.21v41.58L56 236l-40-19.21v-41.58z" class="E F"/><use xlink:href="#E" x="-80" class="D"/><use xlink:href="#T" class="E F"/><use xlink:href="#S" x="80" class="D"/><use xlink:href="#B" class="E F"/><use xlink:href="#C" class="D"/><use xlink:href="#D" class="E F"/><use xlink:href="#E" class="D"/><path d="M96 176l40 19.21v41.58L96 256l-40-19.21v-41.58z" class="E F"/><use xlink:href="#F" class="D"/><use xlink:href="#U" class="E F"/><use xlink:href="#C" x="80" class="D"/><use xlink:href="#H" class="E F"/><use xlink:href="#E" x="80" class="D"/><use xlink:href="#I" class="E F"/><use xlink:href="#F" x="80" class="D"/><path d="M136 196l40 19.21v41.58L136 276l-40-19.21v-41.58z" class="E F"/><use xlink:href="#G" x="80" class="D"/><use xlink:href="#V" class="E F"/><use xlink:href="#E" x="160" class="D"/><use xlink:href="#K" class="E F"/><use xlink:href="#F" x="160" class="D"/><use xlink:href="#L" class="E F"/><use xlink:href="#G" x="160" class="D"/><path d="M176 216l40 19.21v41.58L176 296l-40-19.21v-41.58z" class="E F"/><use xlink:href="#J" x="80" class="D"/><path d="M336 176l40 19.21v41.58L336 256l-40-19.21v-41.58z" class="E F"/><use xlink:href="#F" x="240" class="D"/><use xlink:href="#N" class="E F"/><use xlink:href="#G" x="240" class="D"/><use xlink:href="#O" class="E F"/><use xlink:href="#J" x="160" class="D"/><path d="M216 236l40 19.21v41.58L216 316l-40-19.21v-41.58z" class="E F"/><use xlink:href="#M" x="80" class="D"/><path d="M376 196l40 19.21v41.58L376 276l-40-19.21v-41.58z" class="E F"/><use xlink:href="#G" x="320" class="D"/><path d="M336 216l40 19.21v41.58L336 296l-40-19.21v-41.58z" class="E F"/><use xlink:href="#J" x="240" class="D"/><path d="M296 236l40 19.21v41.58L296 316l-40-19.21v-41.58z" class="E F"/><use xlink:href="#M" x="160" class="D"/><path d="M256 256l40 19.21v41.58L256 336l-40-19.21v-41.58z" class="E F"/><path d="M216 275.21l40 19.2 40-19.2m-40 19.2V336" class="D"/></g><text x="110" y="152" transform="matrix(2 0 0 2 -.5 -.5)" class="K L M">                     2                 </text><g stroke="#82b366" class="G N B C"><path d="M176 56l40 19.21v41.58L176 136l-40-19.21V75.21z" class="E I"/><use xlink:href="#W" class="D"/><path d="M136 76l40 19.21v41.58L136 156l-40-19.21V95.21z" class="E I"/><use xlink:href="#X" class="D"/><path d="M96 96l40 19.21v41.58L96 176l-40-19.21v-41.58z" class="E I"/><use xlink:href="#Q" x="-80" class="D"/><path d="M56 116l40 19.21v41.58L56 196l-40-19.21v-41.58z" class="E I"/><use xlink:href="#S" x="-80" class="D"/><path d="M216 76l40 19.21v41.58L216 156l-40-19.21V95.21z" class="E I"/><use xlink:href="#X" x="80" class="D"/><use xlink:href="#P" class="E I"/><use xlink:href="#Q" class="D"/><use xlink:href="#R" class="E I"/><use xlink:href="#S" class="D"/><path d="M96 136l40 19.21v41.58L96 216l-40-19.21v-41.58z" class="E I"/><use xlink:href="#C" x="-80" class="D"/><path d="M256 96l40 19.21v41.58L256 176l-40-19.21v-41.58z" class="E I"/><use xlink:href="#Q" x="80" class="D"/><use xlink:href="#T" class="E I"/><use xlink:href="#S" x="80" class="D"/><use xlink:href="#B" class="E I"/><use xlink:href="#C" class="D"/><use xlink:href="#D" class="E I"/><use xlink:href="#E" class="D"/><path d="M296 116l40 19.21v41.58L296 196l-40-19.21v-41.58z" class="E I"/><use xlink:href="#S" x="160" class="D"/><use xlink:href="#U" class="E I"/><use xlink:href="#C" x="80" class="D"/><use xlink:href="#H" class="E I"/><use xlink:href="#E" x="80" class="D"/><use xlink:href="#I" class="E I"/><use xlink:href="#F" x="80" class="D"/><path d="M336 136l40 19.21v41.58L336 216l-40-19.21v-41.58z" class="E I"/><use xlink:href="#C" x="160" class="D"/><use xlink:href="#V" class="E I"/><use xlink:href="#E" x="160" class="D"/><use xlink:href="#K" class="E I"/><use xlink:href="#F" x="160" class="D"/><use xlink:href="#L" class="E I"/><use xlink:href="#G" x="160" class="D"/><path d="M376 156l40 19.21v41.58L376 236l-40-19.21v-41.58z" class="E I"/><use xlink:href="#E" x="240" class="D"/><path d="M336 176l40 19.21v41.58L336 256l-40-19.21v-41.58z" class="E I"/><use xlink:href="#F" x="240" class="D"/><use xlink:href="#N" class="E I"/><use xlink:href="#G" x="240" class="D"/><use xlink:href="#O" class="E I"/><use xlink:href="#J" x="160" class="D"/></g><text x="110" y="132" transform="matrix(2 0 0 2 -.5 -.5)" class="K L M">                     1                 </text><g stroke="#6c8ebf" class="G N B C"><path d="M176 16l40 19.21v41.58L176 96l-40-19.21V35.21z" class="E J"/><path d="M136 35.21l40 19.2 40-19.2m-40 19.2V96" class="D"/><path d="M136 36l40 19.21v41.58L136 116 96 96.79V55.21z" class="E J"/><path d="M96 55.21l40 19.2 40-19.2m-40 19.2V116" class="D"/><path d="M96 56l40 19.21v41.58L96 136l-40-19.21V75.21z" class="E J"/><use xlink:href="#W" x="-80" class="D"/><path d="M56 76l40 19.21v41.58L56 156l-40-19.21V95.21z" class="E J"/><use xlink:href="#X" x="-80" class="D"/><path d="M216 36l40 19.21v41.58L216 116l-40-19.21V55.21z" class="E J"/><path d="M176 55.21l40 19.2 40-19.2m-40 19.2V116" class="D"/><path d="M176 56l40 19.21v41.58L176 136l-40-19.21V75.21z" class="E J"/><use xlink:href="#W" class="D"/><path d="M136 76l40 19.21v41.58L136 156l-40-19.21V95.21z" class="E J"/><use xlink:href="#X" class="D"/><path d="M96 96l40 19.21v41.58L96 176l-40-19.21v-41.58z" class="E J"/><use xlink:href="#Q" x="-80" class="D"/><path d="M256 56l40 19.21v41.58L256 136l-40-19.21V75.21z" class="E J"/><use xlink:href="#W" x="80" class="D"/><path d="M216 76l40 19.21v41.58L216 156l-40-19.21V95.21z" class="E J"/><use xlink:href="#X" x="80" class="D"/><use xlink:href="#P" class="E J"/><use xlink:href="#Q" class="D"/><use xlink:href="#R" class="E J"/><use xlink:href="#S" class="D"/><path d="M296 76l40 19.21v41.58L296 156l-40-19.21V95.21z" class="E J"/><use xlink:href="#X" x="160" class="D"/><path d="M256 96l40 19.21v41.58L256 176l-40-19.21v-41.58z" class="E J"/><use xlink:href="#Q" x="80" class="D"/><use xlink:href="#T" class="E J"/><use xlink:href="#S" x="80" class="D"/><use xlink:href="#B" class="E J"/><use xlink:href="#C" class="D"/><path d="M336 96l40 19.21v41.58L336 176l-40-19.21v-41.58z" class="E J"/><use xlink:href="#Q" x="160" class="D"/><path d="M296 116l40 19.21v41.58L296 196l-40-19.21v-41.58z" class="E J"/><use xlink:href="#S" x="160" class="D"/><use xlink:href="#U" class="E J"/><use xlink:href="#C" x="80" class="D"/><use xlink:href="#H" class="E J"/><use xlink:href="#E" x="80" class="D"/><path d="M376 116l40 19.21v41.58L376 196l-40-19.21v-41.58z" class="E J"/><use xlink:href="#S" x="240" class="D"/><path d="M336 136l40 19.21v41.58L336 216l-40-19.21v-41.58z" class="E J"/><use xlink:href="#C" x="160" class="D"/><use xlink:href="#V" class="E J"/><use xlink:href="#E" x="160" class="D"/><use xlink:href="#K" class="E J"/><use xlink:href="#F" x="160" class="D"/></g><text x="110" y="112" transform="matrix(2 0 0 2 -.5 -.5)" class="K L M">                     0                 </text><text x="128" y="98" transform="matrix(2 0 0 2 -.5 -.5)" class="M O Q R">                     axis                 </text><g stroke="#000" stroke-width="4" class="B"><path d="M255.85 221.92l.12 57.61" class="D G"/><circle cx="255.84" cy="215.92" r="6"/><path d="M255.99 291.53l-8.03-15.99 8.01 3.99 7.99-4.02z" class="G"/></g><g stroke="#6c8ebf" class="N B C G"><path d="M896 98l40 19.21v41.58L896 178l-40-19.21v-41.58z" class="E J"/><use xlink:href="#Y" class="D"/><path d="M856 118l40 19.21v41.58L856 198l-40-19.21v-41.58z" class="E J"/><use xlink:href="#Z" class="D"/><path d="M816 138l40 19.21v41.58L816 218l-40-19.21v-41.58z" class="E J"/><use xlink:href="#a" class="D"/><path d="M776 158l40 19.21v41.58L776 238l-40-19.21v-41.58z" class="E J"/><use xlink:href="#b" class="D"/><path d="M936 118l40 19.21v41.58L936 198l-40-19.21v-41.58z" class="E J"/><use xlink:href="#Z" x="80" class="D"/><path d="M896 138l40 19.21v41.58L896 218l-40-19.21v-41.58z" class="E J"/><use xlink:href="#a" x="80" class="D"/><path d="M856 158l40 19.21v41.58L856 238l-40-19.21v-41.58z" class="E J"/><use xlink:href="#b" x="80" class="D"/><path d="M816 178l40 19.21v41.58L816 258l-40-19.21v-41.58z" class="E J"/><use xlink:href="#c" class="D"/><path d="M976 138l40 19.21v41.58L976 218l-40-19.21v-41.58z" class="E J"/><use xlink:href="#a" x="160" class="D"/><path d="M936 158l40 19.21v41.58L936 238l-40-19.21v-41.58z" class="E J"/><use xlink:href="#b" x="160" class="D"/><path d="M896 178l40 19.21v41.58L896 258l-40-19.21v-41.58z" class="E J"/><use xlink:href="#c" x="80" class="D"/><path d="M856 198l40 19.21v41.58L856 278l-40-19.21v-41.58z" class="E J"/><use xlink:href="#d" class="D"/><path d="M1016 158l40 19.21v41.58L1016 238l-40-19.21v-41.58z" class="E J"/><use xlink:href="#b" x="240" class="D"/><path d="M976 178l40 19.21v41.58L976 258l-40-19.21v-41.58z" class="E J"/><use xlink:href="#c" x="160" class="D"/><path d="M936 198l40 19.21v41.58L936 278l-40-19.21v-41.58z" class="E J"/><use xlink:href="#d" x="80" class="D"/><path d="M896 218l40 19.21v41.58L896 298l-40-19.21v-41.58z" class="E J"/><path d="M856 237.21l40 19.2 40-19.2m-40 19.2V298" class="D"/><path d="M1056 178l40 19.21v41.58L1056 258l-40-19.21v-41.58z" class="E J"/><use xlink:href="#c" x="240" class="D"/><path d="M1016 198l40 19.21v41.58L1016 278l-40-19.21v-41.58z" class="E J"/><use xlink:href="#d" x="160" class="D"/><path d="M976 218l40 19.21v41.58L976 298l-40-19.21v-41.58z" class="E J"/><path d="M936 237.21l40 19.2 40-19.2m-40 19.2V298" class="D"/><path d="M936 238l40 19.21v41.58L936 318l-40-19.21v-41.58z" class="E J"/><path d="M896 257.21l40 19.2 40-19.2m-40 19.2V318" class="D"/><path d="M1096 198l40 19.21v41.58L1096 278l-40-19.21v-41.58z" class="E J"/><use xlink:href="#d" x="240" class="D"/><path d="M1056 218l40 19.21v41.58L1056 298l-40-19.21v-41.58z" class="E J"/><path d="M1016 237.21l40 19.2 40-19.2m-40 19.2V298" class="D"/><path d="M1016 238l40 19.21v41.58L1016 318l-40-19.21v-41.58z" class="E J"/><path d="M976 257.21l40 19.2 40-19.2m-40 19.2V318" class="D"/><path d="M976 258l40 19.21v41.58L976 338l-40-19.21v-41.58z" class="E J"/><path d="M936 277.21l40 19.2 40-19.2m-40 19.2V338" class="D"/></g><text x="470" y="153" transform="matrix(2 0 0 2 -.5 -.5)" class="K L M">                     0                 </text><g stroke="#82b366" class="G N B C"><path d="M896 58l40 19.21v41.58L896 138l-40-19.21V77.21z" class="E I"/><path d="M856 77.21l40 19.2 40-19.2m-40 19.2V138" class="D"/><path d="M856 78l40 19.21v41.58L856 158l-40-19.21V97.21z" class="E I"/><path d="M816 97.21l40 19.2 40-19.2m-40 19.2V158" class="D"/><path d="M816 98l40 19.21v41.58L816 178l-40-19.21v-41.58z" class="E I"/><use xlink:href="#Y" x="-80" class="D"/><path d="M776 118l40 19.21v41.58L776 198l-40-19.21v-41.58z" class="E I"/><use xlink:href="#Z" x="-80" class="D"/><path d="M936 78l40 19.21v41.58L936 158l-40-19.21V97.21z" class="E I"/><path d="M896 97.21l40 19.2 40-19.2m-40 19.2V158" class="D"/><path d="M896 98l40 19.21v41.58L896 178l-40-19.21v-41.58z" class="E I"/><use xlink:href="#Y" class="D"/><path d="M856 118l40 19.21v41.58L856 198l-40-19.21v-41.58z" class="E I"/><use xlink:href="#Z" class="D"/><path d="M816 138l40 19.21v41.58L816 218l-40-19.21v-41.58z" class="E I"/><use xlink:href="#a" class="D"/><path d="M976 98l40 19.21v41.58L976 178l-40-19.21v-41.58z" class="E I"/><use xlink:href="#Y" x="80" class="D"/><path d="M936 118l40 19.21v41.58L936 198l-40-19.21v-41.58z" class="E I"/><use xlink:href="#Z" x="80" class="D"/><path d="M896 138l40 19.21v41.58L896 218l-40-19.21v-41.58z" class="E I"/><use xlink:href="#a" x="80" class="D"/><path d="M856 158l40 19.21v41.58L856 238l-40-19.21v-41.58z" class="E I"/><use xlink:href="#b" x="80" class="D"/><path d="M1016 118l40 19.21v41.58L1016 198l-40-19.21v-41.58z" class="E I"/><use xlink:href="#Z" x="160" class="D"/><path d="M976 138l40 19.21v41.58L976 218l-40-19.21v-41.58z" class="E I"/><use xlink:href="#a" x="160" class="D"/><path d="M936 158l40 19.21v41.58L936 238l-40-19.21v-41.58z" class="E I"/><use xlink:href="#b" x="160" class="D"/><path d="M896 178l40 19.21v41.58L896 258l-40-19.21v-41.58z" class="E I"/><use xlink:href="#c" x="80" class="D"/><path d="M1056 138l40 19.21v41.58L1056 218l-40-19.21v-41.58z" class="E I"/><use xlink:href="#a" x="240" class="D"/><path d="M1016 158l40 19.21v41.58L1016 238l-40-19.21v-41.58z" class="E I"/><use xlink:href="#b" x="240" class="D"/><path d="M976 178l40 19.21v41.58L976 258l-40-19.21v-41.58z" class="E I"/><use xlink:href="#c" x="160" class="D"/><path d="M936 198l40 19.21v41.58L936 278l-40-19.21v-41.58z" class="E I"/><use xlink:href="#d" x="80" class="D"/><path d="M1096 158l40 19.21v41.58L1096 238l-40-19.21v-41.58z" class="E I"/><use xlink:href="#b" x="320" class="D"/><path d="M1056 178l40 19.21v41.58L1056 258l-40-19.21v-41.58z" class="E I"/><use xlink:href="#c" x="240" class="D"/><path d="M1016 198l40 19.21v41.58L1016 278l-40-19.21v-41.58z" class="E I"/><use xlink:href="#d" x="160" class="D"/><path d="M976 218l40 19.21v41.58L976 298l-40-19.21v-41.58z" class="E I"/><path d="M936 237.21l40 19.2 40-19.2m-40 19.2V298" class="D"/></g><text x="470" y="133" transform="matrix(2 0 0 2 -.5 -.5)" class="K L M">                     1                 </text><g stroke="#b85450" class="G N B C"><path d="M896 16l40 19.21v41.58L896 96l-40-19.21V35.21z" class="E H"/><path d="M856 35.21l40 19.2 40-19.2m-40 19.2V96" class="D"/><path d="M856 36l40 19.21v41.58L856 116l-40-19.21V55.21z" class="E H"/><path d="M816 55.21l40 19.2 40-19.2m-40 19.2V116" class="D"/><path d="M816 56l40 19.21v41.58L816 136l-40-19.21V75.21z" class="E H"/><use xlink:href="#W" x="640" class="D"/><path d="M776 76l40 19.21v41.58L776 156l-40-19.21V95.21z" class="E H"/><use xlink:href="#X" x="640" class="D"/><path d="M936 36l40 19.21v41.58L936 116l-40-19.21V55.21z" class="E H"/><path d="M896 55.21l40 19.2 40-19.2m-40 19.2V116" class="D"/><path d="M896 56l40 19.21v41.58L896 136l-40-19.21V75.21z" class="E H"/><use xlink:href="#W" x="720" class="D"/><path d="M856 76l40 19.21v41.58L856 156l-40-19.21V95.21z" class="E H"/><use xlink:href="#X" x="720" class="D"/><path d="M816 96l40 19.21v41.58L816 176l-40-19.21v-41.58z" class="E H"/><use xlink:href="#Q" x="640" class="D"/><path d="M976 56l40 19.21v41.58L976 136l-40-19.21V75.21z" class="E H"/><use xlink:href="#W" x="800" class="D"/><path d="M936 76l40 19.21v41.58L936 156l-40-19.21V95.21z" class="E H"/><use xlink:href="#X" x="800" class="D"/><path d="M896 96l40 19.21v41.58L896 176l-40-19.21v-41.58z" class="E H"/><use xlink:href="#Q" x="720" class="D"/><path d="M856 116l40 19.21v41.58L856 196l-40-19.21v-41.58z" class="E H"/><use xlink:href="#S" x="720" class="D"/><path d="M1016 76l40 19.21v41.58L1016 156l-40-19.21V95.21z" class="E H"/><use xlink:href="#X" x="880" class="D"/><path d="M976 96l40 19.21v41.58L976 176l-40-19.21v-41.58z" class="E H"/><use xlink:href="#Q" x="800" class="D"/><path d="M936 116l40 19.21v41.58L936 196l-40-19.21v-41.58z" class="E H"/><use xlink:href="#S" x="800" class="D"/><path d="M896 136l40 19.21v41.58L896 216l-40-19.21v-41.58z" class="E H"/><use xlink:href="#C" x="720" class="D"/><path d="M1056 96l40 19.21v41.58L1056 176l-40-19.21v-41.58z" class="E H"/><use xlink:href="#Q" x="880" class="D"/><path d="M1016 116l40 19.21v41.58L1016 196l-40-19.21v-41.58z" class="E H"/><use xlink:href="#S" x="880" class="D"/><path d="M976 136l40 19.21v41.58L976 216l-40-19.21v-41.58z" class="E H"/><use xlink:href="#C" x="800" class="D"/><path d="M936 156l40 19.21v41.58L936 236l-40-19.21v-41.58z" class="E H"/><use xlink:href="#E" x="800" class="D"/><path d="M1096 116l40 19.21v41.58L1096 196l-40-19.21v-41.58z" class="E H"/><use xlink:href="#S" x="960" class="D"/><path d="M1056 136l40 19.21v41.58L1056 216l-40-19.21v-41.58z" class="E H"/><use xlink:href="#C" x="880" class="D"/><path d="M1016 156l40 19.21v41.58L1016 236l-40-19.21v-41.58z" class="E H"/><use xlink:href="#E" x="880" class="D"/><path d="M976 176l40 19.21v41.58L976 256l-40-19.21v-41.58z" class="E H"/><use xlink:href="#F" x="880" class="D"/></g><text x="470" y="112" transform="matrix(2 0 0 2 -.5 -.5)" class="K L M">                     3                 </text><g class="G N S B C"><use xlink:href="#e" class="E F"/><use xlink:href="#f" class="D"/><use xlink:href="#g" class="E F"/><use xlink:href="#h" class="D"/><path d="M816 456l40 19.21v41.58L816 536l-40-19.21v-41.58z" class="E F"/><use xlink:href="#i" class="D"/><path d="M776 476l40 19.21v41.58L776 556l-40-19.21v-41.58z" class="E F"/><use xlink:href="#j" class="D"/><use xlink:href="#k" class="E F"/><use xlink:href="#h" x="80" class="D"/><use xlink:href="#l" class="E F"/><use xlink:href="#i" x="80" class="D"/><path d="M856 476l40 19.21v41.58L856 556l-40-19.21v-41.58z" class="E F"/><use xlink:href="#j" x="80" class="D"/><path d="M816 496l40 19.21v41.58L816 576l-40-19.21v-41.58z" class="E F"/><use xlink:href="#m" class="D"/><use xlink:href="#n" class="E F"/><use xlink:href="#i" x="160" class="D"/><use xlink:href="#o" class="E F"/><use xlink:href="#j" x="160" class="D"/><path d="M896 496l40 19.21v41.58L896 576l-40-19.21v-41.58z" class="E F"/><use xlink:href="#m" x="80" class="D"/><path d="M856 516l40 19.21v41.58L856 596l-40-19.21v-41.58z" class="E F"/><use xlink:href="#p" class="D"/><use xlink:href="#q" class="E F"/><use xlink:href="#j" x="240" class="D"/><use xlink:href="#r" class="E F"/><use xlink:href="#m" x="160" class="D"/><path d="M936 516l40 19.21v41.58L936 596l-40-19.21v-41.58z" class="E F"/><use xlink:href="#p" x="80" class="D"/><path d="M896 536l40 19.21v41.58L896 616l-40-19.21v-41.58z" class="E F"/><path d="M856 555.21l40 19.2 40-19.2m-40 19.2V616" class="D"/><path d="M1056 496l40 19.21v41.58L1056 576l-40-19.21v-41.58z" class="E F"/><use xlink:href="#m" x="240" class="D"/><path d="M1016 516l40 19.21v41.58L1016 596l-40-19.21v-41.58z" class="E F"/><use xlink:href="#p" x="160" class="D"/><path d="M976 536l40 19.21v41.58L976 616l-40-19.21v-41.58z" class="E F"/><path d="M936 555.21l40 19.2 40-19.2m-40 19.2V616" class="D"/><path d="M936 556l40 19.21v41.58L936 636l-40-19.21v-41.58z" class="E F"/><path d="M896 575.21l40 19.2 40-19.2m-40 19.2V636" class="D"/><path d="M1096 516l40 19.21v41.58L1096 596l-40-19.21v-41.58z" class="E F"/><use xlink:href="#p" x="240" class="D"/><path d="M1056 536l40 19.21v41.58L1056 616l-40-19.21v-41.58z" class="E F"/><path d="M1016 555.21l40 19.2 40-19.2m-40 19.2V616" class="D"/><path d="M1016 556l40 19.21v41.58L1016 636l-40-19.21v-41.58z" class="E F"/><path d="M976 575.21l40 19.2 40-19.2m-40 19.2V636" class="D"/><path d="M976 576l40 19.21v41.58L976 656l-40-19.21v-41.58z" class="E F"/><path d="M936 595.21l40 19.2 40-19.2m-40 19.2V656" class="D"/></g><text x="470" y="312" transform="matrix(2 0 0 2 -.5 -.5)" class="K L M">                     2                 </text><g class="G N S B C"><path d="M896 376l40 19.21v41.58L896 456l-40-19.21v-41.58z" class="E F"/><use xlink:href="#s" class="D"/><path d="M856 396l40 19.21v41.58L856 476l-40-19.21v-41.58z" class="E F"/><use xlink:href="#t" class="D"/><path d="M816 416l40 19.21v41.58L816 496l-40-19.21v-41.58z" class="E F"/><use xlink:href="#f" x="-80" class="D"/><path d="M776 436l40 19.21v41.58L776 516l-40-19.21v-41.58z" class="E F"/><use xlink:href="#h" x="-80" class="D"/><path d="M936 396l40 19.21v41.58L936 476l-40-19.21v-41.58z" class="E F"/><use xlink:href="#t" x="80" class="D"/><use xlink:href="#e" class="E F"/><use xlink:href="#f" class="D"/><use xlink:href="#g" class="E F"/><use xlink:href="#h" class="D"/><path d="M816 456l40 19.21v41.58L816 536l-40-19.21v-41.58z" class="E F"/><use xlink:href="#i" class="D"/><path d="M976 416l40 19.21v41.58L976 496l-40-19.21v-41.58z" class="E F"/><use xlink:href="#f" x="80" class="D"/><use xlink:href="#k" class="E F"/><use xlink:href="#h" x="80" class="D"/><use xlink:href="#l" class="E F"/><use xlink:href="#i" x="80" class="D"/><path d="M856 476l40 19.21v41.58L856 556l-40-19.21v-41.58z" class="E F"/><use xlink:href="#j" x="80" class="D"/><path d="M1016 436l40 19.21v41.58L1016 516l-40-19.21v-41.58z" class="E F"/><use xlink:href="#h" x="160" class="D"/><use xlink:href="#n" class="E F"/><use xlink:href="#i" x="160" class="D"/><use xlink:href="#o" class="E F"/><use xlink:href="#j" x="160" class="D"/><path d="M896 496l40 19.21v41.58L896 576l-40-19.21v-41.58z" class="E F"/><use xlink:href="#m" x="80" class="D"/><path d="M1056 456l40 19.21v41.58L1056 536l-40-19.21v-41.58z" class="E F"/><use xlink:href="#i" x="240" class="D"/><use xlink:href="#q" class="E F"/><use xlink:href="#j" x="240" class="D"/><use xlink:href="#r" class="E F"/><use xlink:href="#m" x="160" class="D"/><path d="M936 516l40 19.21v41.58L936 596l-40-19.21v-41.58z" class="E F"/><use xlink:href="#p" x="80" class="D"/><path d="M1096 476l40 19.21v41.58L1096 556l-40-19.21v-41.58z" class="E F"/><use xlink:href="#j" x="320" class="D"/><path d="M1056 496l40 19.21v41.58L1056 576l-40-19.21v-41.58z" class="E F"/><use xlink:href="#m" x="240" class="D"/><path d="M1016 516l40 19.21v41.58L1016 596l-40-19.21v-41.58z" class="E F"/><use xlink:href="#p" x="160" class="D"/><path d="M976 536l40 19.21v41.58L976 616l-40-19.21v-41.58z" class="E F"/><path d="M936 555.21l40 19.2 40-19.2m-40 19.2V616" class="D"/></g><text x="470" y="292" transform="matrix(2 0 0 2 -.5 -.5)" class="K L M">                     2                 </text><g class="G N S B C"><path d="M896 336l40 19.21v41.58L896 416l-40-19.21v-41.58z" class="E F"/><path d="M856 355.21l40 19.2 40-19.2m-40 19.2V416" class="D"/><path d="M856 356l40 19.21v41.58L856 436l-40-19.21v-41.58z" class="E F"/><path d="M816 375.21l40 19.2 40-19.2m-40 19.2V436" class="D"/><path d="M816 376l40 19.21v41.58L816 456l-40-19.21v-41.58z" class="E F"/><use xlink:href="#s" x="-80" class="D"/><path d="M776 396l40 19.21v41.58L776 476l-40-19.21v-41.58z" class="E F"/><use xlink:href="#t" x="-80" class="D"/><path d="M936 356l40 19.21v41.58L936 436l-40-19.21v-41.58z" class="E F"/><path d="M896 375.21l40 19.2 40-19.2m-40 19.2V436" class="D"/><path d="M896 376l40 19.21v41.58L896 456l-40-19.21v-41.58z" class="E F"/><use xlink:href="#s" class="D"/><path d="M856 396l40 19.21v41.58L856 476l-40-19.21v-41.58z" class="E F"/><use xlink:href="#t" class="D"/><path d="M816 416l40 19.21v41.58L816 496l-40-19.21v-41.58z" class="E F"/><use xlink:href="#f" x="-80" class="D"/><path d="M976 376l40 19.21v41.58L976 456l-40-19.21v-41.58z" class="E F"/><use xlink:href="#s" x="80" class="D"/><path d="M936 396l40 19.21v41.58L936 476l-40-19.21v-41.58z" class="E F"/><use xlink:href="#t" x="80" class="D"/><use xlink:href="#e" class="E F"/><use xlink:href="#f" class="D"/><use xlink:href="#g" class="E F"/><use xlink:href="#h" class="D"/><path d="M1016 396l40 19.21v41.58L1016 476l-40-19.21v-41.58z" class="E F"/><use xlink:href="#t" x="160" class="D"/><path d="M976 416l40 19.21v41.58L976 496l-40-19.21v-41.58z" class="E F"/><use xlink:href="#f" x="80" class="D"/><use xlink:href="#k" class="E F"/><use xlink:href="#h" x="80" class="D"/><use xlink:href="#l" class="E F"/><use xlink:href="#i" x="80" class="D"/><path d="M1056 416l40 19.21v41.58L1056 496l-40-19.21v-41.58z" class="E F"/><use xlink:href="#f" x="160" class="D"/><path d="M1016 436l40 19.21v41.58L1016 516l-40-19.21v-41.58z" class="E F"/><use xlink:href="#h" x="160" class="D"/><use xlink:href="#n" class="E F"/><use xlink:href="#i" x="160" class="D"/><use xlink:href="#o" class="E F"/><use xlink:href="#j" x="160" class="D"/><path d="M1096 436l40 19.21v41.58L1096 516l-40-19.21v-41.58z" class="E F"/><use xlink:href="#h" x="240" class="D"/><path d="M1056 456l40 19.21v41.58L1056 536l-40-19.21v-41.58z" class="E F"/><use xlink:href="#i" x="240" class="D"/><use xlink:href="#q" class="E F"/><use xlink:href="#j" x="240" class="D"/><use xlink:href="#r" class="E F"/><use xlink:href="#m" x="160" class="D"/></g><text x="470" y="272" transform="matrix(2 0 0 2 -.5 -.5)" class="K L M">                     2                 </text><g stroke="#000" class="N B"><path d="M342 316h133.33q20 0 20.01-13.67l.01-13.67" class="D G"/><circle cx="336" cy="316" r="6"/><g class="G"><path d="M495.36 278.16l6.99 14-7-3.5-7 3.49z"/><path d="M342 236h7q7 0 7 20v80q0 20 20 20h180.83q20 0 19.98-20l-.07-47.58" class="D"/></g><circle cx="336" cy="236" r="6"/><g class="G"><path d="M576.72 277.92l7.02 13.99-7-3.49-7 3.51z"/><path d="M342 196h34q20 0 20 20v160q0 20 20 20h220q20 0 20-20v-87.1" class="D"/></g><circle cx="336" cy="196" r="6"/><g class="G"><path d="M656 278.4l7 14-7-3.5-7 3.5z"/><path d="M535.92 236h10.04Q556 236 556 216v-70q0-20 20-20h167.26" class="D U"/><path d="M753.76 126l-14 7 3.5-7-3.5-7z"/><path d="M616.08 236h9.96q9.96 0 9.96-20v-30q0-20 20-20h87.26" class="D U"/><path d="M753.76 166l-14 7 3.5-7-3.5-7z"/><path d="M696 236h10q10 0 10-15v-7.5q0-7.5 13.63-7.5h13.63" class="D U"/><path d="M753.76 206l-14 7 3.5-7-3.5-7z"/></g></g><text x="53" y="183" transform="matrix(2 0 0 2 -.5 -.5)" class="M O Q R">                     data                 </text><text x="543" y="173" transform="matrix(2 0 0 2 -.5 -.5)" class="M O Q R">                     output[0, ...]                 </text><text x="543" y="333" transform="matrix(2 0 0 2 -.5 -.5)" class="M O Q R">                     output[1, ...]                 </text><defs ><path id="B" d="M176 136l40 19.21v41.58L176 216l-40-19.21v-41.58z"/><path id="C" d="M136 155.21l40 19.2 40-19.2m-40 19.2V216"/><path id="D" d="M136 156l40 19.21v41.58L136 236l-40-19.21v-41.58z"/><path id="E" d="M96 175.21l40 19.2 40-19.2m-40 19.2V236"/><path id="F" d="M56 195.21l40 19.2 40-19.2m-40 19.2V256"/><path id="G" d="M16 215.21l40 19.2 40-19.2m-40 19.2V276"/><path id="H" d="M216 156l40 19.21v41.58L216 236l-40-19.21v-41.58z"/><path id="I" d="M176 176l40 19.21v41.58L176 256l-40-19.21v-41.58z"/><path id="J" d="M56 235.21l40 19.2 40-19.2m-40 19.2V296"/><path id="K" d="M256 176l40 19.21v41.58L256 256l-40-19.21v-41.58z"/><path id="L" d="M216 196l40 19.21v41.58L216 276l-40-19.21v-41.58z"/><path id="M" d="M96 255.21l40 19.2 40-19.2m-40 19.2V316"/><path id="N" d="M296 196l40 19.21v41.58L296 276l-40-19.21v-41.58z"/><path id="O" d="M256 216l40 19.21v41.58L256 296l-40-19.21v-41.58z"/><path id="P" d="M176 96l40 19.21v41.58L176 176l-40-19.21v-41.58z"/><path id="Q" d="M136 115.21l40 19.2 40-19.2m-40 19.2V176"/><path id="R" d="M136 116l40 19.21v41.58L136 196l-40-19.21v-41.58z"/><path id="S" d="M96 135.21l40 19.2 40-19.2m-40 19.2V196"/><path id="T" d="M216 116l40 19.21v41.58L216 196l-40-19.21v-41.58z"/><path id="U" d="M256 136l40 19.21v41.58L256 216l-40-19.21v-41.58z"/><path id="V" d="M296 156l40 19.21v41.58L296 236l-40-19.21v-41.58z"/><path id="W" d="M136 75.21l40 19.2 40-19.2m-40 19.2V136"/><path id="X" d="M96 95.21l40 19.2 40-19.2m-40 19.2V156"/><path id="Y" d="M856 117.21l40 19.2 40-19.2m-40 19.2V178"/><path id="Z" d="M816 137.21l40 19.2 40-19.2m-40 19.2V198"/><path id="a" d="M776 157.21l40 19.2 40-19.2m-40 19.2V218"/><path id="b" d="M736 177.21l40 19.2 40-19.2m-40 19.2V238"/><path id="c" d="M776 197.21l40 19.2 40-19.2m-40 19.2V258"/><path id="d" d="M816 217.21l40 19.2 40-19.2m-40 19.2V278"/><path id="e" d="M896 416l40 19.21v41.58L896 496l-40-19.21v-41.58z"/><path id="f" d="M856 435.21l40 19.2 40-19.2m-40 19.2V496"/><path id="g" d="M856 436l40 19.21v41.58L856 516l-40-19.21v-41.58z"/><path id="h" d="M816 455.21l40 19.2 40-19.2m-40 19.2V516"/><path id="i" d="M776 475.21l40 19.2 40-19.2m-40 19.2V536"/><path id="j" d="M736 495.21l40 19.2 40-19.2m-40 19.2V556"/><path id="k" d="M936 436l40 19.21v41.58L936 516l-40-19.21v-41.58z"/><path id="l" d="M896 456l40 19.21v41.58L896 536l-40-19.21v-41.58z"/><path id="m" d="M776 515.21l40 19.2 40-19.2m-40 19.2V576"/><path id="n" d="M976 456l40 19.21v41.58L976 536l-40-19.21v-41.58z"/><path id="o" d="M936 476l40 19.21v41.58L936 556l-40-19.21v-41.58z"/><path id="p" d="M816 535.21l40 19.2 40-19.2m-40 19.2V596"/><path id="q" d="M1016 476l40 19.21v41.58L1016 556l-40-19.21v-41.58z"/><path id="r" d="M976 496l40 19.21v41.58L976 576l-40-19.21v-41.58z"/><path id="s" d="M856 395.21l40 19.2 40-19.2m-40 19.2V456"/><path id="t" d="M816 415.21l40 19.2 40-19.2m-40 19.2V476"/></defs></svg>