<svg xmlns="http://www.w3.org/2000/svg" xmlns:xlink="http://www.w3.org/1999/xlink" width="934" height="395" viewBox="-0.5 -0.5 934 395" style="background-color:rgb(255, 255, 255)" xmlns:v="https://vecta.io/nano"><style><![CDATA[.B{pointer-events:none}.C{stroke-opacity:.8}.D{fill:none}.E{fill-opacity:.8}.F{stroke-miterlimit:10}.G{stroke-width:2}.H{fill:#a20025}.I{fill:#60a917}.J{fill:#1ba1e2}.K{fill:#fad7ac}.L{fill:#fff2cc}.M{fill:#b0e3e6}.N{font-family:sans-serif}.O{font-size:12px}.P{fill:#000}.Q{text-anchor:middle}.R{opacity:.8}.S{font-family:serif}.T{stroke-dasharray:6 6}.U{pointer-events:all}]]></style><g stroke="#432d57" class="G U"><path fill="#76608a" d="M476 56h80v240h-80z"/><path d="M476 136h80m-80 80h80" class="D F"/></g><text x="258" y="52" fill="#fff" transform="matrix(2 0 0 2 -.5 -.5)" class="N O Q">                     5                 </text><text x="258" y="92" fill="#fff" transform="matrix(2 0 0 2 -.5 -.5)" class="N O Q">                     2                 </text><text x="258" y="132" fill="#fff" transform="matrix(2 0 0 2 -.5 -.5)" class="N O Q">                     0                 </text><text x="258" y="168" font-size="16" transform="matrix(2 0 0 2 -.5 -.5)" class="P Q S">                     indices                 </text><text x="428" y="158" font-size="16" transform="matrix(2 0 0 2 -.5 -.5)" class="P Q S">                     updates                 </text><text x="53" y="183" font-size="16" transform="matrix(2 0 0 2 -.5 -.5)" class="P Q S">                     data &amp; output                 </text><g stroke="#6f0000" class="F G B C"><use xlink:href="#B" class="E H"/><use xlink:href="#C" class="D"/><use xlink:href="#D" class="E H"/><use xlink:href="#E" class="D"/><use xlink:href="#F" class="E H"/><use xlink:href="#G" class="D"/><path d="M76 196l40 19.21v41.58L76 276l-40-19.21v-41.58z" class="E H"/><use xlink:href="#H" class="D"/><use xlink:href="#I" class="E H"/><use xlink:href="#J" class="D"/><use xlink:href="#K" class="E H"/><use xlink:href="#L" class="D"/><use xlink:href="#M" class="E H"/><use xlink:href="#C" x="-80" class="D"/><path d="M76 156l40 19.21v41.58L76 236l-40-19.21v-41.58z" class="E H"/><use xlink:href="#E" x="-80" class="D"/><use xlink:href="#N" class="E H"/><use xlink:href="#O" class="D"/><use xlink:href="#P" class="E H"/><use xlink:href="#Q" class="D"/><use xlink:href="#R" class="E H"/><use xlink:href="#J" x="-80" class="D"/><path d="M76 116l40 19.21v41.58L76 196l-40-19.21v-41.58z" class="E H"/><use xlink:href="#L" x="-80" class="D"/><path d="M196 16l40 19.21v41.58L196 96l-40-19.21V35.21z" class="E H"/><path d="M156 35.21l40 19.2 40-19.2m-40 19.2V96" class="D"/><path d="M156 36l40 19.21v41.58L156 116l-40-19.21V55.21z" class="E H"/><path d="M116 55.21l40 19.2 40-19.2m-40 19.2V116" class="D"/><path d="M116 56l40 19.21v41.58L116 136l-40-19.21V75.21z" class="E H"/><use xlink:href="#O" x="-80" class="D"/><path d="M76 76l40 19.21v41.58L76 156l-40-19.21V95.21z" class="E H"/><use xlink:href="#Q" x="-80" class="D"/></g><text x="20" y="62" transform="matrix(2 0 0 2 -.5 -.5)" class="N O P R">                     5                 </text><g stroke="#b46504" class="F G B C"><use xlink:href="#S" class="E K"/><use xlink:href="#E" x="80" class="D"/><use xlink:href="#T" class="E K"/><use xlink:href="#G" x="80" class="D"/><use xlink:href="#U" class="E K"/><use xlink:href="#H" x="80" class="D"/><path d="M116 216l40 19.21v41.58L116 296l-40-19.21v-41.58z" class="E K"/><use xlink:href="#V" class="D"/><use xlink:href="#W" class="E K"/><use xlink:href="#L" x="80" class="D"/><use xlink:href="#B" class="E K"/><use xlink:href="#C" class="D"/><use xlink:href="#D" class="E K"/><use xlink:href="#E" class="D"/><use xlink:href="#F" class="E K"/><use xlink:href="#G" class="D"/><use xlink:href="#X" class="E K"/><use xlink:href="#Q" x="80" class="D"/><use xlink:href="#I" class="E K"/><use xlink:href="#J" class="D"/><use xlink:href="#K" class="E K"/><use xlink:href="#L" class="D"/><use xlink:href="#M" class="E K"/><use xlink:href="#C" x="-80" class="D"/><path d="M236 36l40 19.21v41.58L236 116l-40-19.21V55.21z" class="E K"/><path d="M196 55.21l40 19.2 40-19.2m-40 19.2V116" class="D"/><use xlink:href="#N" class="E K"/><use xlink:href="#O" class="D"/><use xlink:href="#P" class="E K"/><use xlink:href="#Q" class="D"/><use xlink:href="#R" class="E K"/><use xlink:href="#J" x="-80" class="D"/></g><text x="40" y="72" transform="matrix(2 0 0 2 -.5 -.5)" class="N O P R">                     4                 </text><g stroke="#d6b656" class="F G B C"><use xlink:href="#Y" class="E L"/><use xlink:href="#G" x="160" class="D"/><use xlink:href="#Z" class="E L"/><use xlink:href="#H" x="160" class="D"/><use xlink:href="#a" class="E L"/><use xlink:href="#V" x="80" class="D"/><path d="M156 236l40 19.21v41.58L156 316l-40-19.21v-41.58z" class="E L"/><use xlink:href="#b" class="D"/><use xlink:href="#c" class="E L"/><use xlink:href="#C" x="80" class="D"/><use xlink:href="#S" class="E L"/><use xlink:href="#E" x="80" class="D"/><use xlink:href="#T" class="E L"/><use xlink:href="#G" x="80" class="D"/><use xlink:href="#U" class="E L"/><use xlink:href="#H" x="80" class="D"/><use xlink:href="#d" class="E L"/><use xlink:href="#J" x="80" class="D"/><use xlink:href="#W" class="E L"/><use xlink:href="#L" x="80" class="D"/><use xlink:href="#B" class="E L"/><use xlink:href="#C" class="D"/><use xlink:href="#D" class="E L"/><use xlink:href="#E" class="D"/><path d="M276 56l40 19.21v41.58L276 136l-40-19.21V75.21z" class="E L"/><use xlink:href="#O" x="80" class="D"/><use xlink:href="#X" class="E L"/><use xlink:href="#Q" x="80" class="D"/><use xlink:href="#I" class="E L"/><use xlink:href="#J" class="D"/><use xlink:href="#K" class="E L"/><use xlink:href="#L" class="D"/></g><text x="60" y="82" transform="matrix(2 0 0 2 -.5 -.5)" class="N O P R">                     3                 </text><g stroke="#2d7600" class="F G B C"><use xlink:href="#e" class="E I"/><use xlink:href="#H" x="240" class="D"/><use xlink:href="#f" class="E I"/><use xlink:href="#V" x="160" class="D"/><use xlink:href="#g" class="E I"/><use xlink:href="#b" x="80" class="D"/><path d="M196 256l40 19.21v41.58L196 336l-40-19.21v-41.58z" class="E I"/><use xlink:href="#h" class="D"/><use xlink:href="#i" class="E I"/><use xlink:href="#E" x="160" class="D"/><use xlink:href="#Y" class="E I"/><use xlink:href="#G" x="160" class="D"/><use xlink:href="#Z" class="E I"/><use xlink:href="#H" x="160" class="D"/><use xlink:href="#a" class="E I"/><use xlink:href="#V" x="80" class="D"/><use xlink:href="#j" class="E I"/><use xlink:href="#L" x="160" class="D"/><use xlink:href="#c" class="E I"/><use xlink:href="#C" x="80" class="D"/><use xlink:href="#S" class="E I"/><use xlink:href="#E" x="80" class="D"/><use xlink:href="#T" class="E I"/><use xlink:href="#G" x="80" class="D"/><path d="M316 76l40 19.21v41.58L316 156l-40-19.21V95.21z" class="E I"/><use xlink:href="#Q" x="160" class="D"/><use xlink:href="#d" class="E I"/><use xlink:href="#J" x="80" class="D"/><use xlink:href="#W" class="E I"/><use xlink:href="#L" x="80" class="D"/><use xlink:href="#B" class="E I"/><use xlink:href="#C" class="D"/></g><text x="80" y="92" transform="matrix(2 0 0 2 -.5 -.5)" class="N O P R">                     2                 </text><g stroke="#0e8088" class="F G B C"><use xlink:href="#k" class="E M"/><use xlink:href="#V" x="240" class="D"/><use xlink:href="#l" class="E M"/><use xlink:href="#b" x="160" class="D"/><use xlink:href="#m" class="E M"/><use xlink:href="#h" x="80" class="D"/><path d="M236 276l40 19.21v41.58L236 356l-40-19.21v-41.58z" class="E M"/><path d="M196 295.21l40 19.2 40-19.2m-40 19.2V356" class="D"/><use xlink:href="#n" class="E M"/><use xlink:href="#G" x="240" class="D"/><use xlink:href="#e" class="E M"/><use xlink:href="#H" x="240" class="D"/><use xlink:href="#f" class="E M"/><use xlink:href="#V" x="160" class="D"/><use xlink:href="#g" class="E M"/><use xlink:href="#b" x="80" class="D"/><use xlink:href="#o" class="E M"/><use xlink:href="#C" x="160" class="D"/><use xlink:href="#i" class="E M"/><use xlink:href="#E" x="160" class="D"/><use xlink:href="#Y" class="E M"/><use xlink:href="#G" x="160" class="D"/><use xlink:href="#Z" class="E M"/><use xlink:href="#H" x="160" class="D"/><path d="M356 96l40 19.21v41.58L356 176l-40-19.21v-41.58z" class="E M"/><use xlink:href="#J" x="160" class="D"/><use xlink:href="#j" class="E M"/><use xlink:href="#L" x="160" class="D"/><use xlink:href="#c" class="E M"/><use xlink:href="#C" x="80" class="D"/><use xlink:href="#S" class="E M"/><use xlink:href="#E" x="80" class="D"/></g><text x="100" y="102" transform="matrix(2 0 0 2 -.5 -.5)" class="N O P R">                     1                 </text><g stroke="#006eaf" class="F G B C"><path d="M396 236l40 19.21v41.58L396 316l-40-19.21v-41.58z" class="E J"/><use xlink:href="#b" x="240" class="D"/><path d="M356 256l40 19.21v41.58L356 336l-40-19.21v-41.58z" class="E J"/><use xlink:href="#h" x="160" class="D"/><path d="M316 276l40 19.21v41.58L316 356l-40-19.21v-41.58z" class="E J"/><path d="M276 295.21l40 19.2 40-19.2m-40 19.2V356" class="D"/><path d="M276 296l40 19.21v41.58L276 376l-40-19.21v-41.58z" class="E J"/><path d="M236 315.21l40 19.2 40-19.2m-40 19.2V376" class="D"/><path d="M396 196l40 19.21v41.58L396 276l-40-19.21v-41.58z" class="E J"/><use xlink:href="#H" x="320" class="D"/><use xlink:href="#k" class="E J"/><use xlink:href="#V" x="240" class="D"/><use xlink:href="#l" class="E J"/><use xlink:href="#b" x="160" class="D"/><use xlink:href="#m" class="E J"/><use xlink:href="#h" x="80" class="D"/><path d="M396 156l40 19.21v41.58L396 236l-40-19.21v-41.58z" class="E J"/><use xlink:href="#E" x="240" class="D"/><use xlink:href="#n" class="E J"/><use xlink:href="#G" x="240" class="D"/><use xlink:href="#e" class="E J"/><use xlink:href="#H" x="240" class="D"/><use xlink:href="#f" class="E J"/><use xlink:href="#V" x="160" class="D"/><path d="M396 116l40 19.21v41.58L396 196l-40-19.21v-41.58z" class="E J"/><use xlink:href="#L" x="240" class="D"/><use xlink:href="#o" class="E J"/><use xlink:href="#C" x="160" class="D"/><use xlink:href="#i" class="E J"/><use xlink:href="#E" x="160" class="D"/><use xlink:href="#Y" class="E J"/><use xlink:href="#G" x="160" class="D"/></g><text x="120" y="112" transform="matrix(2 0 0 2 -.5 -.5)" class="N O P R">                     0                 </text><g stroke="#000" class="B"><g stroke-width="4"><path d="M270.73 212.88l-76.44-38.79" class="D F"/><circle cx="276.08" cy="215.6" r="6"/><path d="M183.59 168.66l17.89.11-7.19 5.32-.05 8.95z" class="F"/></g><g class="G F"><path d="M476 96h-10q-10 0-10-20V56q0-20-20-20H156q-20 0-20 8.63v8.63" class="D"/><path d="M136 63.76l-7-14 7 3.5 7-3.5z"/><path d="M476 176h-40q-20 0-20-20v-40q0-20-20-20H276q-20 0-20 8.63v8.63" class="D"/><path d="M256 123.76l-7-14 7 3.5 7-3.5z"/><path d="M476 256h-80q-20 0-20-20v-80q0-20-20-20h-10q-10 0-10 8.63v8.63" class="D"/><path d="M336 163.76l-7-14 7 3.5 7-3.5z"/></g></g><g stroke="#006eaf" class="B C F G"><use xlink:href="#p" class="E J"/><use xlink:href="#q" class="D"/><use xlink:href="#r" class="E J"/><use xlink:href="#s" class="D"/><use xlink:href="#t" class="E J"/><use xlink:href="#u" class="D"/><path d="M636 206l40 19.21v41.58L636 286l-40-19.21v-41.58z" class="E J"/><use xlink:href="#v" class="D"/><use xlink:href="#w" class="E J"/><use xlink:href="#x" class="D"/><use xlink:href="#y" class="E J"/><use xlink:href="#z" class="D"/><use xlink:href="#AA" class="E J"/><use xlink:href="#q" x="-80" class="D"/><path d="M636 166l40 19.21v41.58L636 246l-40-19.21v-41.58z" class="E J"/><use xlink:href="#s" x="-80" class="D"/><use xlink:href="#AB" class="E J"/><use xlink:href="#AC" class="D"/><use xlink:href="#AD" class="E J"/><use xlink:href="#AE" class="D"/><use xlink:href="#AF" class="E J"/><use xlink:href="#x" x="-80" class="D"/><path d="M636 126l40 19.21v41.58L636 206l-40-19.21v-41.58z" class="E J"/><use xlink:href="#z" x="-80" class="D"/><path d="M756 26l40 19.21v41.58L756 106l-40-19.21V45.21z" class="E J"/><path d="M716 45.21l40 19.2 40-19.2m-40 19.2V106" class="D"/><path d="M716 46l40 19.21v41.58L716 126l-40-19.21V65.21z" class="E J"/><path d="M676 65.21l40 19.2 40-19.2m-40 19.2V126" class="D"/><path d="M676 66l40 19.21v41.58L676 146l-40-19.21V85.21z" class="E J"/><use xlink:href="#AC" x="-80" class="D"/><path d="M636 86l40 19.21v41.58L636 166l-40-19.21v-41.58z" class="E J"/><use xlink:href="#AE" x="-80" class="D"/></g><g stroke="#2d7600" class="B C F G"><use xlink:href="#AG" class="E I"/><use xlink:href="#s" x="80" class="D"/><use xlink:href="#AH" class="E I"/><use xlink:href="#u" x="80" class="D"/><use xlink:href="#AI" class="E I"/><use xlink:href="#v" x="80" class="D"/><path d="M676 226l40 19.21v41.58L676 306l-40-19.21v-41.58z" class="E I"/><path d="M636 245.21l40 19.2 40-19.2m-40 19.2V306" class="D"/><use xlink:href="#AJ" class="E I"/><use xlink:href="#z" x="80" class="D"/><use xlink:href="#p" class="E I"/><use xlink:href="#q" class="D"/><use xlink:href="#r" class="E I"/><use xlink:href="#s" class="D"/><use xlink:href="#t" class="E I"/><use xlink:href="#u" class="D"/><use xlink:href="#AK" class="E I"/><use xlink:href="#AE" x="80" class="D"/><use xlink:href="#w" class="E I"/><use xlink:href="#x" class="D"/><use xlink:href="#y" class="E I"/><use xlink:href="#z" class="D"/><use xlink:href="#AA" class="E I"/><use xlink:href="#q" x="-80" class="D"/><path d="M796 46l40 19.21v41.58L796 126l-40-19.21V65.21z" class="E I"/><path d="M756 65.21l40 19.2 40-19.2m-40 19.2V126" class="D"/><use xlink:href="#AB" class="E I"/><use xlink:href="#AC" class="D"/><use xlink:href="#AD" class="E I"/><use xlink:href="#AE" class="D"/><use xlink:href="#AF" class="E I"/><use xlink:href="#x" x="-80" class="D"/></g><g stroke="#6f0000" class="B C F G"><path d="M836 186l40 19.21v41.58L836 266l-40-19.21v-41.58z" class="E H"/><use xlink:href="#u" x="160" class="D"/><path d="M796 206l40 19.21v41.58L796 286l-40-19.21v-41.58z" class="E H"/><use xlink:href="#v" x="160" class="D"/><path d="M756 226l40 19.21v41.58L756 306l-40-19.21v-41.58z" class="E H"/><path d="M716 245.21l40 19.2 40-19.2m-40 19.2V306" class="D"/><path d="M716 246l40 19.21v41.58L716 326l-40-19.21v-41.58z" class="E H"/><path d="M676 265.21l40 19.2 40-19.2m-40 19.2V326" class="D"/><path d="M836 146l40 19.21v41.58L836 226l-40-19.21v-41.58z" class="E H"/><use xlink:href="#q" x="80" class="D"/><use xlink:href="#AG" class="E H"/><use xlink:href="#s" x="80" class="D"/><use xlink:href="#AH" class="E H"/><use xlink:href="#u" x="80" class="D"/><use xlink:href="#AI" class="E H"/><use xlink:href="#v" x="80" class="D"/><path d="M836 106l40 19.21v41.58L836 186l-40-19.21v-41.58z" class="E H"/><use xlink:href="#x" x="80" class="D"/><use xlink:href="#AJ" class="E H"/><use xlink:href="#z" x="80" class="D"/><use xlink:href="#p" class="E H"/><use xlink:href="#q" class="D"/><use xlink:href="#r" class="E H"/><use xlink:href="#s" class="D"/><path d="M836 66l40 19.21v41.58L836 146l-40-19.21V85.21z" class="E H"/><use xlink:href="#AC" x="80" class="D"/><use xlink:href="#AK" class="E H"/><use xlink:href="#AE" x="80" class="D"/><use xlink:href="#w" class="E H"/><use xlink:href="#x" class="D"/><use xlink:href="#y" class="E H"/><use xlink:href="#z" class="D"/></g><g stroke="#000" class="B G"><path d="M690 236h-7q-7 0-7-20V116q0-20-20-20h-87.26" class="D F T"/><circle cx="696" cy="236" r="6"/><g class="F"><path d="M558.24 96l14-7-3.5 7 3.5 7z"/><path d="M650 216h-7q-7 0-7-20v-10q0-10-20-10h-47.26" class="D T"/></g><circle cx="656" cy="216" r="6"/><g class="F"><path d="M558.24 176l14-7-3.5 7 3.5 7z"/><path d="M610 196h-7q-7 0-7 20v20q0 20-13.63 20h-13.63" class="D T"/></g><circle cx="616" cy="196" r="6"/><path d="M558.24 256l14-7-3.5 7 3.5 7z" class="F"/></g><defs ><path id="B" d="M196 136l40 19.21v41.58L196 216l-40-19.21v-41.58z"/><path id="C" d="M156 155.21l40 19.2 40-19.2m-40 19.2V216"/><path id="D" d="M156 156l40 19.21v41.58L156 236l-40-19.21v-41.58z"/><path id="E" d="M116 175.21l40 19.2 40-19.2m-40 19.2V236"/><path id="F" d="M116 176l40 19.21v41.58L116 256l-40-19.21v-41.58z"/><path id="G" d="M76 195.21l40 19.2 40-19.2m-40 19.2V256"/><path id="H" d="M36 215.21l40 19.2 40-19.2m-40 19.2V276"/><path id="I" d="M196 96l40 19.21v41.58L196 176l-40-19.21v-41.58z"/><path id="J" d="M156 115.21l40 19.2 40-19.2m-40 19.2V176"/><path id="K" d="M156 116l40 19.21v41.58L156 196l-40-19.21v-41.58z"/><path id="L" d="M116 135.21l40 19.2 40-19.2m-40 19.2V196"/><path id="M" d="M116 136l40 19.21v41.58L116 216l-40-19.21v-41.58z"/><path id="N" d="M196 56l40 19.21v41.58L196 136l-40-19.21V75.21z"/><path id="O" d="M156 75.21l40 19.2 40-19.2m-40 19.2V136"/><path id="P" d="M156 76l40 19.21v41.58L156 156l-40-19.21V95.21z"/><path id="Q" d="M116 95.21l40 19.2 40-19.2m-40 19.2V156"/><path id="R" d="M116 96l40 19.21v41.58L116 176l-40-19.21v-41.58z"/><path id="S" d="M236 156l40 19.21v41.58L236 236l-40-19.21v-41.58z"/><path id="T" d="M196 176l40 19.21v41.58L196 256l-40-19.21v-41.58z"/><path id="U" d="M156 196l40 19.21v41.58L156 276l-40-19.21v-41.58z"/><path id="V" d="M76 235.21l40 19.2 40-19.2m-40 19.2V296"/><path id="W" d="M236 116l40 19.21v41.58L236 196l-40-19.21v-41.58z"/><path id="X" d="M236 76l40 19.21v41.58L236 156l-40-19.21V95.21z"/><path id="Y" d="M276 176l40 19.21v41.58L276 256l-40-19.21v-41.58z"/><path id="Z" d="M236 196l40 19.21v41.58L236 276l-40-19.21v-41.58z"/><path id="a" d="M196 216l40 19.21v41.58L196 296l-40-19.21v-41.58z"/><path id="b" d="M116 255.21l40 19.2 40-19.2m-40 19.2V316"/><path id="c" d="M276 136l40 19.21v41.58L276 216l-40-19.21v-41.58z"/><path id="d" d="M276 96l40 19.21v41.58L276 176l-40-19.21v-41.58z"/><path id="e" d="M316 196l40 19.21v41.58L316 276l-40-19.21v-41.58z"/><path id="f" d="M276 216l40 19.21v41.58L276 296l-40-19.21v-41.58z"/><path id="g" d="M236 236l40 19.21v41.58L236 316l-40-19.21v-41.58z"/><path id="h" d="M156 275.21l40 19.2 40-19.2m-40 19.2V336"/><path id="i" d="M316 156l40 19.21v41.58L316 236l-40-19.21v-41.58z"/><path id="j" d="M316 116l40 19.21v41.58L316 196l-40-19.21v-41.58z"/><path id="k" d="M356 216l40 19.21v41.58L356 296l-40-19.21v-41.58z"/><path id="l" d="M316 236l40 19.21v41.58L316 316l-40-19.21v-41.58z"/><path id="m" d="M276 256l40 19.21v41.58L276 336l-40-19.21v-41.58z"/><path id="n" d="M356 176l40 19.21v41.58L356 256l-40-19.21v-41.58z"/><path id="o" d="M356 136l40 19.21v41.58L356 216l-40-19.21v-41.58z"/><path id="p" d="M756 146l40 19.21v41.58L756 226l-40-19.21v-41.58z"/><path id="q" d="M716 165.21l40 19.2 40-19.2m-40 19.2V226"/><path id="r" d="M716 166l40 19.21v41.58L716 246l-40-19.21v-41.58z"/><path id="s" d="M676 185.21l40 19.2 40-19.2m-40 19.2V246"/><path id="t" d="M676 186l40 19.21v41.58L676 266l-40-19.21v-41.58z"/><path id="u" d="M636 205.21l40 19.2 40-19.2m-40 19.2V266"/><path id="v" d="M596 225.21l40 19.2 40-19.2m-40 19.2V286"/><path id="w" d="M756 106l40 19.21v41.58L756 186l-40-19.21v-41.58z"/><path id="x" d="M716 125.21l40 19.2 40-19.2m-40 19.2V186"/><path id="y" d="M716 126l40 19.21v41.58L716 206l-40-19.21v-41.58z"/><path id="z" d="M676 145.21l40 19.2 40-19.2m-40 19.2V206"/><path id="AA" d="M676 146l40 19.21v41.58L676 226l-40-19.21v-41.58z"/><path id="AB" d="M756 66l40 19.21v41.58L756 146l-40-19.21V85.21z"/><path id="AC" d="M716 85.21l40 19.2 40-19.2m-40 19.2V146"/><path id="AD" d="M716 86l40 19.21v41.58L716 166l-40-19.21v-41.58z"/><path id="AE" d="M676 105.21l40 19.2 40-19.2m-40 19.2V166"/><path id="AF" d="M676 106l40 19.21v41.58L676 186l-40-19.21v-41.58z"/><path id="AG" d="M796 166l40 19.21v41.58L796 246l-40-19.21v-41.58z"/><path id="AH" d="M756 186l40 19.21v41.58L756 266l-40-19.21v-41.58z"/><path id="AI" d="M716 206l40 19.21v41.58L716 286l-40-19.21v-41.58z"/><path id="AJ" d="M796 126l40 19.21v41.58L796 206l-40-19.21v-41.58z"/><path id="AK" d="M796 86l40 19.21v41.58L796 166l-40-19.21v-41.58z"/></defs></svg>