<svg xmlns="http://www.w3.org/2000/svg" width="1034" height="444" viewBox="-0.5 -0.5 1034 444" style="background-color:rgb(255, 255, 255)" xmlns:v="https://vecta.io/nano"><style><![CDATA[.B{pointer-events:none}.C{text-anchor:middle}.D{font-family:sans-serif}.E{font-size:12px}.F{fill:#000}.G{stroke-opacity:.6}.H{stroke-miterlimit:10}.I{stroke-opacity:.8}.J{fill:none}.K{stroke:#000}.L{fill-opacity:.8}.M{fill:#1ba1e2}.N{fill-opacity:.6}.O{fill:#fff}.P{fill-opacity:.5}.Q{stroke-width:2}.R{stroke-dasharray:6 6}.S{font-family:serif}.T{font-size:16px}.U{fill:#76608a}.V{pointer-events:all}]]></style><g stroke="#432d57" class="Q"><path d="M416 16h240v160H416z" class="G N U V"/><g class="H J G V"><path d="M416 96h240"/><path d="M496 16v160m80-160v160"/></g><path d="M436 36h240v160H436z" class="B G N U"/><g class="H J B G"><path d="M436 116h240"/><path d="M516 36v160m80-160v160"/></g><path d="M456 56h240v160H456z" class="B I L U"/><g class="H J B I"><path d="M456 136h240"/><path d="M536 56v160m80-160v160"/></g></g><text x="248" y="52" transform="matrix(2 0 0 2 -.5 -.5)" class="C D E O">                     0                 </text><text x="288" y="52" transform="matrix(2 0 0 2 -.5 -.5)" class="C D E O">                     3                 </text><text x="328" y="52" transform="matrix(2 0 0 2 -.5 -.5)" class="C D E O">                     2                 </text><text x="248" y="92" transform="matrix(2 0 0 2 -.5 -.5)" class="C D E O">                     1                 </text><text x="288" y="92" transform="matrix(2 0 0 2 -.5 -.5)" class="C D E O">                     0                 </text><text x="328" y="92" transform="matrix(2 0 0 2 -.5 -.5)" class="C D E O">                     1                 </text><g class="Q B"><rect x="546" y="66" width="60" height="140" rx="9" stroke="#ccf" class="J R"/><g stroke="#b85450" class="G"><path fill="#f8cecc" d="M16 16h320v320H16z" class="N"/><g class="H J"><path d="M16 96h80 240M16 176h320"/><path d="M16 256h80 240M96 16v320"/><path d="M176 16v80 240m80-320v320"/></g></g><g stroke="#82b366" class="G"><path fill="#d5e8d4" d="M36 36h320v320H36z" class="N"/><g class="H J"><path d="M36 116h80 240M36 196h320"/><path d="M36 276h80 240M116 36v320"/><path d="M196 36v80 240m80-320v320"/></g></g><g stroke="#6c8ebf" class="I"><path fill="#dae8fc" d="M56 56h320v320H56z" class="L"/><g class="H J"><path d="M56 136h80 240M56 216h320"/><path d="M56 296h80 240M136 56v320"/><path d="M216 56v80 240m78-320v320"/></g></g></g><path d="M56 56h80v80H56z" class="B M P"/><text x="48" y="52" transform="matrix(2 0 0 2 -.5 -.5)" class="C D E F">                     α                 </text><path d="M136 56h80v80h-80z" class="B M P"/><text x="88" y="52" transform="matrix(2 0 0 2 -.5 -.5)" class="C D E F">                     β                 </text><text x="128" y="52" transform="matrix(2 0 0 2 -.5 -.5)" class="C D E F">                     C                 </text><text x="168" y="52" transform="matrix(2 0 0 2 -.5 -.5)" class="C D E F">                     D                 </text><path d="M56 136h80v80H56z" class="B M P"/><text x="48" y="92" transform="matrix(2 0 0 2 -.5 -.5)" class="C D E F">                     ε                 </text><text x="88" y="92" transform="matrix(2 0 0 2 -.5 -.5)" class="C D E F">                     F                 </text><path d="M216 136h78v80h-78z" class="B M P"/><text x="128" y="92" transform="matrix(2 0 0 2 -.5 -.5)" class="C D E F">                     λ                 </text><text x="168" y="92" transform="matrix(2 0 0 2 -.5 -.5)" class="C D E F">                     H                 </text><text x="48" y="132" transform="matrix(2 0 0 2 -.5 -.5)" class="C D E F">                     I                 </text><text x="88" y="132" transform="matrix(2 0 0 2 -.5 -.5)" class="C D E F">                     J                 </text><path d="M216 216h78v80h-78z" class="B M P"/><text x="128" y="132" transform="matrix(2 0 0 2 -.5 -.5)" class="C D E F">                     κ                 </text><text x="168" y="132" transform="matrix(2 0 0 2 -.5 -.5)" class="C D E F">                     L                 </text><text x="48" y="172" transform="matrix(2 0 0 2 -.5 -.5)" class="C D E F">                     M                 </text><path d="M136 296h80v80h-80z" class="B M P"/><text x="88" y="172" transform="matrix(2 0 0 2 -.5 -.5)" class="C D E F">                     ν                 </text><text x="128" y="172" transform="matrix(2 0 0 2 -.5 -.5)" class="C D E F">                     O                 </text><text x="168" y="172" transform="matrix(2 0 0 2 -.5 -.5)" class="C D E F">                     P                 </text><g stroke-width="4" class="K B"><path d="M56 62.24v57.29" class="H J"/><circle cx="56" cy="56.24" r="6"/><path d="M56 131.53l-8-16 8 4 8-4z" class="H"/></g><g class="Q B"><g class="J"><rect x="146" y="66" width="60" height="300" rx="9" stroke="#314354" class="R"/><path d="M546 171l-327.53-67.91" class="H I K"/></g><path d="M208.19 100.95l15.13-4.01-4.85 6.15 2.01 7.56z" class="H I K L"/><path d="M546 101L216.55 323.47" class="H I J K"/><path d="M207.85 329.35l7.69-13.64 1.01 7.76 6.82 3.84z" class="H I K L"/></g><text x="28" y="23" transform="matrix(2 0 0 2 -.5 -.5)" class="C F S T">                     axis                 </text><text x="108" y="208" transform="matrix(2 0 0 2 -.5 -.5)" class="C F S T">                     data &amp; output                 </text><text x="288" y="128" transform="matrix(2 0 0 2 -.5 -.5)" class="C F S T">                     indices                 </text><text x="448" y="128" transform="matrix(2 0 0 2 -.5 -.5)" class="C F S T">                     updates                 </text><g class="Q B"><g stroke="#6f0000" class="G"><path fill="#a20025" d="M736 16h240v160H736z" class="N"/><g class="H J"><path d="M736 96h240"/><path d="M816 16v160m80-160v160"/></g></g><g stroke="#2d7600" class="G"><path fill="#60a917" d="M756 36h240v160H756z" class="N"/><g class="H J"><path d="M756 116h240"/><path d="M836 36v160m80-160v160"/></g></g><g stroke="#006eaf" class="I"><path d="M776 56h240v160H776z" class="L M"/><g class="H J"><path d="M776 136h240"/><path d="M856 56v160m80-160v160"/></g></g></g><text x="408" y="52" transform="matrix(2 0 0 2 -.5 -.5)" class="C D E F">                     α                 </text><text x="448" y="52" transform="matrix(2 0 0 2 -.5 -.5)" class="C D E F">                     ν                 </text><text x="488" y="52" transform="matrix(2 0 0 2 -.5 -.5)" class="C D E F">                     κ                 </text><text x="408" y="92" transform="matrix(2 0 0 2 -.5 -.5)" class="C D E F">                     ε                 </text><text x="448" y="92" transform="matrix(2 0 0 2 -.5 -.5)" class="C D E F">                     β                 </text><text x="488" y="92" transform="matrix(2 0 0 2 -.5 -.5)" class="C D E F">                     λ                 </text><g class="Q B"><g class="J R"><rect x="866" y="66" width="60" height="140" rx="9" stroke="#cff"/><path d="M866 101H618.74" class="H I K"/></g><path d="M608.24 101l14-7-3.5 7 3.5 7z" class="H I K L"/><path d="M866 171H618.74" class="H I J K R"/><path d="M608.24 171l14-7-3.5 7 3.5 7z" class="H I K L"/></g></svg>