<svg xmlns="http://www.w3.org/2000/svg" xmlns:xlink="http://www.w3.org/1999/xlink" width="747" height="498" viewBox="-0.5 -0.5 747 498" style="background-color:rgb(255, 255, 255)" xmlns:v="https://vecta.io/nano"><style><![CDATA[.B{pointer-events:none}.C{stroke-opacity:.8}.D{fill:none}.E{fill-opacity:.8}.F{stroke-miterlimit:10}.G{stroke-width:2}.H{font-family:sans-serif}.I{font-size:12px}.J{opacity:.8}.K{text-anchor:middle}.L{fill:#000}.M{fill:#fad7ac}.N{fill:#fff2cc}.O{fill:#d5e8d4}.P{fill:#b0e3e6}.Q{fill:#dae8fc}.R{fill:#fad9d5}.S{stroke:#432d57}.T{fill:#635073}.U{fill:#fff}.V{stroke:#6c8ebf}.W{stroke:#000}.X{font-family:serif}.Y{font-size:16px}]]></style><g stroke="#b20000" class="F G B C"><path d="M448 16l40 19.21v41.58L448 96l-40-19.21V35.21z" fill="#e54a32" class="E"/><path d="M408 35.21l40 19.2 40-19.2m-40 19.2V96" class="D"/></g><text x="206" y="27" transform="matrix(2 0 0 2 -.5 -.5)" class="H I J L">                     (0, 2)                 </text><g stroke="#c73500" class="F G B C"><path d="M488 36l40 19.21v41.58L488 116l-40-19.21V55.21z" fill="#fa6800" class="E"/><path d="M448 55.21l40 19.2 40-19.2m-40 19.2V116" class="D"/></g><text x="226" y="37" transform="matrix(2 0 0 2 -.5 -.5)" class="H I J L">                     (3, 0)                 </text><g stroke="#b09500" class="F G B C"><path d="M528 56l40 19.21v41.58L528 136l-40-19.21V75.21z" fill="#ffe100" class="E"/><path d="M488 75.21l40 19.2 40-19.2m-40 19.2V136" class="D"/></g><text x="246" y="47" transform="matrix(2 0 0 2 -.5 -.5)" class="H I J L">                     (2, 1)                 </text><g stroke="#2d7600" class="F G B C"><path d="M568 76l40 19.21v41.58L568 156l-40-19.21V95.21z" fill="#60a917" class="E"/><path d="M528 95.21l40 19.2 40-19.2m-40 19.2V156" class="D"/></g><text x="266" y="57" transform="matrix(2 0 0 2 -.5 -.5)" class="H I J L">                     (3, 3)                 </text><g stroke="#0e8088" class="F G B C"><path d="M608 96l40 19.21v41.58L608 176l-40-19.21v-41.58z" fill="#0cc" class="E"/><path d="M568 115.21l40 19.2 40-19.2m-40 19.2V176" class="D"/></g><text x="286" y="67" transform="matrix(2 0 0 2 -.5 -.5)" class="H I J L">                     (1, 0)                 </text><g stroke="#006eaf" class="F G B C"><path d="M648 116l40 19.21v41.58L648 196l-40-19.21v-41.58z" fill="#1ba1e2" class="E"/><use xlink:href="#B" class="D"/></g><text x="306" y="77" transform="matrix(2 0 0 2 -.5 -.5)" class="H I J L">                     (2, 2)                 </text><g class="G W B"><path d="M573.37 193.32l43.24-21.62" stroke-dasharray="6 6" class="D F"/><circle cx="568" cy="196" r="6"/><path d="M626 167l-9.39 12.52v-7.82l-6.26-4.7z" class="F"/></g><text x="289" y="143" transform="matrix(2 0 0 2 -.5 -.5)" class="K L X Y">                     indices                 </text><text x="189" y="228" transform="matrix(2 0 0 2 -.5 -.5)" class="K L X Y">                     data                 </text><text x="339" y="113" transform="matrix(2 0 0 2 -.5 -.5)" class="K L X Y">                     output                 </text><g class="F G B"><g class="D"><path d="M28 346l20-10m220 130l20-10" stroke="#999" stroke-dasharray="2 2"/><path d="M36.71 350.35l222.58 111.3" class="W"/></g><path d="M30 347h11.18l-4.47 3.35v5.59zm236 118h-11.18l4.47-3.35v-5.59z" class="W"/></g><text x="59" y="223" transform="matrix(2 0 0 2 -.5 -.5)" class="K L X Y">                     batched                 </text><g class="F G S B C"><path d="M348 66l40 19.21v41.58L348 146l-40-19.21V85.21z" class="E T"/><path d="M308 85.21l40 19.2 40-19.2m-40 19.2V146" class="D"/></g><text x="174" y="52" transform="matrix(2 0 0 2 -.5 -.5)" class="H I J K U">                     2                 </text><g class="F G S B C"><path d="M308 86l40 19.21v41.58L308 166l-40-19.21v-41.58z" class="E T"/><path d="M268 105.21l40 19.2 40-19.2m-40 19.2V166" class="D"/></g><text x="154" y="62" transform="matrix(2 0 0 2 -.5 -.5)" class="H I J K U">                     0                 </text><g class="F G S B C"><path d="M388 86l40 19.21v41.58L388 166l-40-19.21v-41.58z" class="E T"/><path d="M348 105.21l40 19.2 40-19.2m-40 19.2V166" class="D"/></g><text x="194" y="62" transform="matrix(2 0 0 2 -.5 -.5)" class="H I J K U">                     0                 </text><g class="F G S B C"><path d="M348 106l40 19.21v41.58L348 186l-40-19.21v-41.58z" class="E T"/><path d="M308 125.21l40 19.2 40-19.2m-40 19.2V186" class="D"/></g><text x="174" y="72" transform="matrix(2 0 0 2 -.5 -.5)" class="H I J K U">                     3                 </text><g class="F G S B C"><path d="M428 106l40 19.21v41.58L428 186l-40-19.21v-41.58z" class="E T"/><path d="M388 125.21l40 19.2 40-19.2m-40 19.2V186" class="D"/></g><text x="214" y="72" transform="matrix(2 0 0 2 -.5 -.5)" class="H I J K U">                     1                 </text><g class="F G S B C"><path d="M388 126l40 19.21v41.58L388 206l-40-19.21v-41.58z" class="E T"/><path d="M348 145.21l40 19.2 40-19.2m-40 19.2V206" class="D"/></g><text x="194" y="82" transform="matrix(2 0 0 2 -.5 -.5)" class="H I J K U">                     2                 </text><g class="F G S B C"><path d="M468 126l40 19.21v41.58L468 206l-40-19.21v-41.58z" class="E T"/><path d="M428 145.21l40 19.2 40-19.2m-40 19.2V206" class="D"/></g><text x="234" y="82" transform="matrix(2 0 0 2 -.5 -.5)" class="H I J K U">                     3                 </text><g class="F G S B C"><path d="M428 146l40 19.21v41.58L428 226l-40-19.21v-41.58z" class="E T"/><path d="M388 165.21l40 19.2 40-19.2m-40 19.2V226" class="D"/></g><text x="214" y="92" transform="matrix(2 0 0 2 -.5 -.5)" class="H I J K U">                     3                 </text><g class="F G S B C"><path d="M508 146l40 19.21v41.58L508 226l-40-19.21v-41.58z" class="E T"/><path d="M468 165.21l40 19.2 40-19.2m-40 19.2V226" class="D"/></g><text x="254" y="92" transform="matrix(2 0 0 2 -.5 -.5)" class="H I J K U">                     0                 </text><g class="F G S B C"><path d="M468 166l40 19.21v41.58L468 246l-40-19.21v-41.58z" class="E T"/><path d="M428 185.21l40 19.2 40-19.2m-40 19.2V246" class="D"/></g><text x="234" y="102" transform="matrix(2 0 0 2 -.5 -.5)" class="H I J K U">                     1                 </text><g class="F G S B C"><path d="M548 166l40 19.21v41.58L548 246l-40-19.21v-41.58z" class="E T"/><path d="M508 185.21l40 19.2 40-19.2m-40 19.2V246" class="D"/></g><text x="274" y="102" transform="matrix(2 0 0 2 -.5 -.5)" class="H I J K U">                     2                 </text><g class="F G S B C"><path d="M508 186l40 19.21v41.58L508 266l-40-19.21v-41.58z" class="E T"/><path d="M468 205.21l40 19.2 40-19.2m-40 19.2V266" class="D"/></g><text x="254" y="112" transform="matrix(2 0 0 2 -.5 -.5)" class="H I J K U">                     2                 </text><g class="F G B C"><g stroke="#ae4132"><use xlink:href="#C" class="E R"/><use xlink:href="#D" class="D"/><use xlink:href="#E" class="E R"/><use xlink:href="#F" class="D"/><use xlink:href="#G" class="E R"/><use xlink:href="#H" class="D"/><path d="M88 276l40 19.21v41.58L88 356l-40-19.21v-41.58z" class="E R"/><use xlink:href="#I" class="D"/><use xlink:href="#J" class="E R"/><use xlink:href="#K" class="D"/><use xlink:href="#L" class="E R"/><use xlink:href="#M" class="D"/><use xlink:href="#N" class="E R"/><use xlink:href="#D" x="-80" class="D"/><path d="M88 236l40 19.21v41.58L88 316l-40-19.21v-41.58z" class="E R"/><use xlink:href="#F" x="-80" class="D"/><use xlink:href="#O" class="E R"/><use xlink:href="#P" class="D"/><use xlink:href="#Q" class="E R"/><use xlink:href="#R" class="D"/><use xlink:href="#S" class="E R"/><use xlink:href="#K" x="-80" class="D"/><path d="M88 196l40 19.21v41.58L88 276l-40-19.21v-41.58z" class="E R"/><use xlink:href="#M" x="-80" class="D"/></g><g stroke="#b85450"><path d="M208 96l40 19.21v41.58L208 176l-40-19.21v-41.58z" fill="#f8cecc" class="E"/><path d="M168 115.21l40 19.2 40-19.2m-40 19.2V176" class="D"/></g><g stroke="#b20000"><path d="M168 116l40 19.21v41.58L168 196l-40-19.21v-41.58z" fill="#e54a32" class="E"/><use xlink:href="#B" x="-480" class="D"/></g><g stroke="#ae4132"><path d="M128 136l40 19.21v41.58L128 216l-40-19.21v-41.58z" class="E R"/><use xlink:href="#P" x="-80" class="D"/><path d="M88 156l40 19.21v41.58L88 236l-40-19.21v-41.58z" class="E R"/><use xlink:href="#R" x="-80" class="D"/></g><g stroke="#b46504"><use xlink:href="#T" class="E M"/><use xlink:href="#F" x="80" class="D"/><use xlink:href="#U" class="E M"/><use xlink:href="#H" x="80" class="D"/><use xlink:href="#V" class="E M"/><use xlink:href="#I" x="80" class="D"/></g><g stroke="#c73500"><path d="M128 296l40 19.21v41.58L128 376l-40-19.21v-41.58z" fill="#fa6800" class="E"/><use xlink:href="#W" class="D"/></g><g stroke="#b46504"><use xlink:href="#X" class="E M"/><use xlink:href="#M" x="80" class="D"/><use xlink:href="#C" class="E M"/><use xlink:href="#D" class="D"/><use xlink:href="#E" class="E M"/><use xlink:href="#F" class="D"/><use xlink:href="#G" class="E M"/><use xlink:href="#H" class="D"/><use xlink:href="#Y" class="E M"/><use xlink:href="#R" x="80" class="D"/><use xlink:href="#J" class="E M"/><use xlink:href="#K" class="D"/><use xlink:href="#L" class="E M"/><use xlink:href="#M" class="D"/><use xlink:href="#N" class="E M"/><use xlink:href="#D" x="-80" class="D"/><path d="M248 116l40 19.21v41.58L248 196l-40-19.21v-41.58z" class="E M"/><use xlink:href="#B" x="-400" class="D"/><use xlink:href="#O" class="E M"/><use xlink:href="#P" class="D"/><use xlink:href="#Q" class="E M"/><use xlink:href="#R" class="D"/><use xlink:href="#S" class="E M"/><use xlink:href="#K" x="-80" class="D"/></g><g stroke="#d6b656"><use xlink:href="#Z" class="E N"/><use xlink:href="#H" x="160" class="D"/><use xlink:href="#a" class="E N"/><use xlink:href="#I" x="160" class="D"/><use xlink:href="#b" class="E N"/><use xlink:href="#W" x="80" class="D"/><path d="M168 316l40 19.21v41.58L168 396l-40-19.21v-41.58z" class="E N"/><use xlink:href="#c" class="D"/><use xlink:href="#d" class="E N"/><use xlink:href="#D" x="80" class="D"/><use xlink:href="#T" class="E N"/><use xlink:href="#F" x="80" class="D"/></g><g stroke="#b09500"><use xlink:href="#U" fill="#ffe100" class="E"/><use xlink:href="#H" x="80" class="D"/></g><g stroke="#d6b656"><use xlink:href="#V" class="E N"/><use xlink:href="#I" x="80" class="D"/><use xlink:href="#e" class="E N"/><use xlink:href="#K" x="80" class="D"/><use xlink:href="#X" class="E N"/><use xlink:href="#M" x="80" class="D"/><use xlink:href="#C" class="E N"/><use xlink:href="#D" class="D"/><use xlink:href="#E" class="E N"/><use xlink:href="#F" class="D"/><path d="M288 136l40 19.21v41.58L288 216l-40-19.21v-41.58z" class="E N"/><use xlink:href="#P" x="80" class="D"/><use xlink:href="#Y" class="E N"/><use xlink:href="#R" x="80" class="D"/><use xlink:href="#J" class="E N"/><use xlink:href="#K" class="D"/><use xlink:href="#L" class="E N"/><use xlink:href="#M" class="D"/></g><g stroke="#2d7600"><use xlink:href="#f" fill="#60a917" class="E"/><use xlink:href="#I" x="240" class="D"/></g><g stroke="#82b366"><use xlink:href="#g" class="E O"/><use xlink:href="#W" x="160" class="D"/><use xlink:href="#h" class="E O"/><use xlink:href="#c" x="80" class="D"/><path d="M208 336l40 19.21v41.58L208 416l-40-19.21v-41.58z" class="E O"/><use xlink:href="#i" class="D"/><use xlink:href="#j" class="E O"/><use xlink:href="#F" x="160" class="D"/><use xlink:href="#Z" class="E O"/><use xlink:href="#H" x="160" class="D"/><use xlink:href="#a" class="E O"/><use xlink:href="#I" x="160" class="D"/><use xlink:href="#b" class="E O"/><use xlink:href="#W" x="80" class="D"/><use xlink:href="#k" class="E O"/><use xlink:href="#M" x="160" class="D"/><use xlink:href="#d" class="E O"/><use xlink:href="#D" x="80" class="D"/><use xlink:href="#T" class="E O"/><use xlink:href="#F" x="80" class="D"/><use xlink:href="#U" class="E O"/><use xlink:href="#H" x="80" class="D"/><path d="M328 156l40 19.21v41.58L328 236l-40-19.21v-41.58z" class="E O"/><use xlink:href="#R" x="160" class="D"/><use xlink:href="#e" class="E O"/><use xlink:href="#K" x="80" class="D"/><use xlink:href="#X" class="E O"/><use xlink:href="#M" x="80" class="D"/><use xlink:href="#C" class="E O"/><use xlink:href="#D" class="D"/></g><g stroke="#0e8088"><use xlink:href="#l" class="E P"/><use xlink:href="#W" x="240" class="D"/><use xlink:href="#m" class="E P"/><use xlink:href="#c" x="160" class="D"/><use xlink:href="#n" class="E P"/><use xlink:href="#i" x="80" class="D"/><path d="M248 356l40 19.21v41.58L248 436l-40-19.21v-41.58z" class="E P"/><path d="M208 375.21l40 19.2 40-19.2m-40 19.2V436" class="D"/><use xlink:href="#o" class="E P"/><use xlink:href="#H" x="240" class="D"/><use xlink:href="#f" class="E P"/><use xlink:href="#I" x="240" class="D"/><use xlink:href="#g" class="E P"/><use xlink:href="#W" x="160" class="D"/><use xlink:href="#h" class="E P"/><use xlink:href="#c" x="80" class="D"/><use xlink:href="#p" class="E P"/><use xlink:href="#D" x="160" class="D"/><use xlink:href="#j" class="E P"/><use xlink:href="#F" x="160" class="D"/><use xlink:href="#Z" class="E P"/><use xlink:href="#H" x="160" class="D"/><use xlink:href="#a" fill="#0cc" class="E"/><use xlink:href="#I" x="160" class="D"/><path d="M368 176l40 19.21v41.58L368 256l-40-19.21v-41.58z" class="E P"/><use xlink:href="#K" x="160" class="D"/><use xlink:href="#k" class="E P"/><use xlink:href="#M" x="160" class="D"/><use xlink:href="#d" class="E P"/><use xlink:href="#D" x="80" class="D"/><use xlink:href="#T" class="E P"/><use xlink:href="#F" x="80" class="D"/></g><g class="V"><path d="M408 316l40 19.21v41.58L408 396l-40-19.21v-41.58z" class="E Q"/><use xlink:href="#c" x="240" class="D"/><path d="M368 336l40 19.21v41.58L368 416l-40-19.21v-41.58z" class="E Q"/><use xlink:href="#i" x="160" class="D"/><path d="M328 356l40 19.21v41.58L328 436l-40-19.21v-41.58z" class="E Q"/><path d="M288 375.21l40 19.2 40-19.2m-40 19.2V436" class="D"/><path d="M288 376l40 19.21v41.58L288 456l-40-19.21v-41.58z" class="E Q"/><path d="M248 395.21l40 19.2 40-19.2m-40 19.2V456" class="D"/></g></g><text x="126" y="212" transform="matrix(2 0 0 2 -.5 -.5)" class="H I J L">                     3                 </text><g class="F G B C"><g class="V"><path d="M408 276l40 19.21v41.58L408 356l-40-19.21v-41.58z" class="E Q"/><use xlink:href="#I" x="320" class="D"/></g><g stroke="#006eaf"><use xlink:href="#l" fill="#1ba1e2" class="E"/><use xlink:href="#W" x="240" class="D"/></g><g class="V"><use xlink:href="#m" class="E Q"/><use xlink:href="#c" x="160" class="D"/><use xlink:href="#n" class="E Q"/><use xlink:href="#i" x="80" class="D"/></g></g><text x="126" y="192" transform="matrix(2 0 0 2 -.5 -.5)" class="H I J L">                     2                 </text><g class="F G V B C"><path d="M408 236l40 19.21v41.58L408 316l-40-19.21v-41.58z" class="E Q"/><use xlink:href="#F" x="240" class="D"/><use xlink:href="#o" class="E Q"/><use xlink:href="#H" x="240" class="D"/><use xlink:href="#f" class="E Q"/><use xlink:href="#I" x="240" class="D"/><use xlink:href="#g" class="E Q"/><use xlink:href="#W" x="160" class="D"/></g><text x="126" y="172" transform="matrix(2 0 0 2 -.5 -.5)" class="H I J L">                     1                 </text><g class="F G V B C"><path d="M408 196l40 19.21v41.58L408 276l-40-19.21v-41.58z" class="E Q"/><use xlink:href="#M" x="240" class="D"/></g><text x="204" y="117" transform="matrix(2 0 0 2 -.5 -.5)" class="H I J K L">                     3                 </text><g class="F G V B C"><use xlink:href="#p" class="E Q"/><use xlink:href="#D" x="160" class="D"/></g><text x="184" y="127" transform="matrix(2 0 0 2 -.5 -.5)" class="H I J K L">                     2                 </text><g class="F G V B C"><use xlink:href="#j" class="E Q"/><use xlink:href="#F" x="160" class="D"/></g><text x="164" y="137" transform="matrix(2 0 0 2 -.5 -.5)" class="H I J K L">                     1                 </text><g class="F G V B C"><use xlink:href="#Z" class="E Q"/><use xlink:href="#H" x="160" class="D"/></g><text x="126" y="152" transform="matrix(2 0 0 2 -.5 -.5)" class="H I J L">                     0                 </text><g class="W B"><g stroke-width="4"><path d="M287.93 302.08l.05 57.45" class="D F"/><circle cx="287.92" cy="296.08" r="6"/><g class="F"><path d="M288 371.53l-8.02-15.99 8 3.99 8-4.01z"/><path d="M293.35 293.27l59.98-30.58" class="D"/></g><circle cx="288" cy="296" r="6"/><path d="M364.02 257.24l-10.62 14.39-.07-8.94-7.2-5.31z" class="F"/></g><g class="G"><path d="M394 346h17q17 0 21.34-19.52l11.32-50.96Q448 256 462.3 248.85l14.31-7.15" class="D F"/><circle cx="388" cy="346" r="6"/><path d="M486 237l-9.39 12.52v-7.82l-6.26-4.7z" class="F"/></g></g><defs ><path id="B" d="M608 135.21l40 19.2 40-19.2m-40 19.2V196"/><path id="C" d="M208 216l40 19.21v41.58L208 296l-40-19.21v-41.58z"/><path id="D" d="M168 235.21l40 19.2 40-19.2m-40 19.2V296"/><path id="E" d="M168 236l40 19.21v41.58L168 316l-40-19.21v-41.58z"/><path id="F" d="M128 255.21l40 19.2 40-19.2m-40 19.2V316"/><path id="G" d="M128 256l40 19.21v41.58L128 336l-40-19.21v-41.58z"/><path id="H" d="M88 275.21l40 19.2 40-19.2m-40 19.2V336"/><path id="I" d="M48 295.21l40 19.2 40-19.2m-40 19.2V356"/><path id="J" d="M208 176l40 19.21v41.58L208 256l-40-19.21v-41.58z"/><path id="K" d="M168 195.21l40 19.2 40-19.2m-40 19.2V256"/><path id="L" d="M168 196l40 19.21v41.58L168 276l-40-19.21v-41.58z"/><path id="M" d="M128 215.21l40 19.2 40-19.2m-40 19.2V276"/><path id="N" d="M128 216l40 19.21v41.58L128 296l-40-19.21v-41.58z"/><path id="O" d="M208 136l40 19.21v41.58L208 216l-40-19.21v-41.58z"/><path id="P" d="M168 155.21l40 19.2 40-19.2m-40 19.2V216"/><path id="Q" d="M168 156l40 19.21v41.58L168 236l-40-19.21v-41.58z"/><path id="R" d="M128 175.21l40 19.2 40-19.2m-40 19.2V236"/><path id="S" d="M128 176l40 19.21v41.58L128 256l-40-19.21v-41.58z"/><path id="T" d="M248 236l40 19.21v41.58L248 316l-40-19.21v-41.58z"/><path id="U" d="M208 256l40 19.21v41.58L208 336l-40-19.21v-41.58z"/><path id="V" d="M168 276l40 19.21v41.58L168 356l-40-19.21v-41.58z"/><path id="W" d="M88 315.21l40 19.2 40-19.2m-40 19.2V376"/><path id="X" d="M248 196l40 19.21v41.58L248 276l-40-19.21v-41.58z"/><path id="Y" d="M248 156l40 19.21v41.58L248 236l-40-19.21v-41.58z"/><path id="Z" d="M288 256l40 19.21v41.58L288 336l-40-19.21v-41.58z"/><path id="a" d="M248 276l40 19.21v41.58L248 356l-40-19.21v-41.58z"/><path id="b" d="M208 296l40 19.21v41.58L208 376l-40-19.21v-41.58z"/><path id="c" d="M128 335.21l40 19.2 40-19.2m-40 19.2V396"/><path id="d" d="M288 216l40 19.21v41.58L288 296l-40-19.21v-41.58z"/><path id="e" d="M288 176l40 19.21v41.58L288 256l-40-19.21v-41.58z"/><path id="f" d="M328 276l40 19.21v41.58L328 356l-40-19.21v-41.58z"/><path id="g" d="M288 296l40 19.21v41.58L288 376l-40-19.21v-41.58z"/><path id="h" d="M248 316l40 19.21v41.58L248 396l-40-19.21v-41.58z"/><path id="i" d="M168 355.21l40 19.2 40-19.2m-40 19.2V416"/><path id="j" d="M328 236l40 19.21v41.58L328 316l-40-19.21v-41.58z"/><path id="k" d="M328 196l40 19.21v41.58L328 276l-40-19.21v-41.58z"/><path id="l" d="M368 296l40 19.21v41.58L368 376l-40-19.21v-41.58z"/><path id="m" d="M328 316l40 19.21v41.58L328 396l-40-19.21v-41.58z"/><path id="n" d="M288 336l40 19.21v41.58L288 416l-40-19.21v-41.58z"/><path id="o" d="M368 256l40 19.21v41.58L368 336l-40-19.21v-41.58z"/><path id="p" d="M368 216l40 19.21v41.58L368 296l-40-19.21v-41.58z"/></defs></svg>