<svg xmlns="http://www.w3.org/2000/svg" xmlns:xlink="http://www.w3.org/1999/xlink" width="1074" height="674" viewBox="-0.5 -0.5 1074 674" style="background-color:rgb(255, 255, 255)" xmlns:v="https://vecta.io/nano"><style><![CDATA[.B{pointer-events:none}.C{stroke-opacity:.8}.D{fill:none}.E{fill-opacity:.8}.F{stroke-miterlimit:10}.G{fill:#dae8fc}.H{fill:#d5e8d4}.I{fill:#fad7ac}.J{fill:#fad9d5}.K{fill:#fff2cc}.L{fill:#b0e3e6}.M{font-family:sans-serif}.N{font-size:12px}.O{fill:#000}.P{stroke-width:2}.Q{opacity:.8}.R{text-anchor:middle}.S{fill:#fff}.T{font-family:serif}.U{font-size:16px}.V{stroke:#000}.W{pointer-events:all}.X{stroke-dasharray:6 6}]]></style><g stroke="#432d57" class="P W"><path fill="#76608a" d="M456 176h240v160H456z"/><g class="D F"><path d="M456 256h240"/><path d="M536 176v160m80-160v160"/></g></g><text x="248" y="112" transform="matrix(2 0 0 2 -.5 -.5)" class="M N R S">                     4                 </text><text x="288" y="112" transform="matrix(2 0 0 2 -.5 -.5)" class="M N R S">                     2                 </text><text x="328" y="112" transform="matrix(2 0 0 2 -.5 -.5)" class="M N R S">                     0                 </text><text x="248" y="152" transform="matrix(2 0 0 2 -.5 -.5)" class="M N R S">                     3                 </text><text x="288" y="152" transform="matrix(2 0 0 2 -.5 -.5)" class="M N R S">                     1                 </text><text x="328" y="152" transform="matrix(2 0 0 2 -.5 -.5)" class="M N R S">                     5                 </text><g class="P V B"><path d="M242 66h233.6q20 0 20 20v77.18" class="D F"/><circle cx="236" cy="66" r="6"/><g class="F"><path d="M495.6 173.68l-7-14 7 3.5 7-3.5z"/><path d="M322 106h233.2q20 0 20.02 20l.05 37.26" class="D"/></g><circle cx="316" cy="106" r="6"/><path d="M575.28 173.76l-7.02-13.99 7.01 3.49 6.99-3.5z" class="F"/></g><text x="288" y="188" transform="matrix(2 0 0 2 -.5 -.5)" class="O R T U">                     indices                 </text><g class="P V B"><path d="M402 146h234q20 0 19.98 8.63l-.03 8.63" class="D F"/><circle cx="396" cy="146" r="6"/><path d="M655.93 173.76l-6.97-14.01 6.99 3.51 7.01-3.48z" class="F"/></g><text x="488" y="163" transform="matrix(2 0 0 2 -.5 -.5)" class="O R T U">                     output[0, ...]                 </text><text x="178" y="188" transform="matrix(2 0 0 2 -.5 -.5)" class="O R T U">                     data                 </text><text x="488" y="323" transform="matrix(2 0 0 2 -.5 -.5)" class="O R T U">                     output[1, ...]                 </text><g stroke="#6c8ebf" class="F P B C"><use xlink:href="#B" class="E G"/><use xlink:href="#C" class="D"/><use xlink:href="#D" class="E G"/><use xlink:href="#E" class="D"/><use xlink:href="#F" class="E G"/><use xlink:href="#G" class="D"/><path d="M776 196l40 19.21v41.58L776 276l-40-19.21v-41.58z" class="E G"/><use xlink:href="#H" class="D"/><use xlink:href="#I" class="E G"/><use xlink:href="#J" class="D"/><use xlink:href="#K" class="E G"/><use xlink:href="#L" class="D"/><use xlink:href="#M" class="E G"/><use xlink:href="#C" x="-80" class="D"/><path d="M776 156l40 19.21v41.58L776 236l-40-19.21v-41.58z" class="E G"/><use xlink:href="#E" x="-80" class="D"/><use xlink:href="#N" class="E G"/><use xlink:href="#O" class="D"/><use xlink:href="#P" class="E G"/><use xlink:href="#Q" class="D"/><use xlink:href="#R" class="E G"/><use xlink:href="#J" x="-80" class="D"/><path d="M776 116l40 19.21v41.58L776 196l-40-19.21v-41.58z" class="E G"/><use xlink:href="#L" x="-80" class="D"/><path d="M896 16l40 19.21v41.58L896 96l-40-19.21V35.21z" class="E G"/><path d="M856 35.21l40 19.2 40-19.2m-40 19.2V96" class="D"/><path d="M856 36l40 19.21v41.58L856 116l-40-19.21V55.21z" class="E G"/><use xlink:href="#S" class="D"/><path d="M816 56l40 19.21v41.58L816 136l-40-19.21V75.21z" class="E G"/><use xlink:href="#O" x="-80" class="D"/><path d="M776 76l40 19.21v41.58L776 156l-40-19.21V95.21z" class="E G"/><use xlink:href="#Q" x="-80" class="D"/></g><text x="370" y="62" transform="matrix(2 0 0 2 -.5 -.5)" class="M N O Q">                     0                 </text><g stroke="#82b366" class="F P B C"><use xlink:href="#T" class="E H"/><use xlink:href="#E" x="80" class="D"/><use xlink:href="#U" class="E H"/><use xlink:href="#G" x="80" class="D"/><use xlink:href="#V" class="E H"/><use xlink:href="#H" x="80" class="D"/><path d="M816 216l40 19.21v41.58L816 296l-40-19.21v-41.58z" class="E H"/><use xlink:href="#W" class="D"/><use xlink:href="#X" class="E H"/><use xlink:href="#L" x="80" class="D"/><use xlink:href="#B" class="E H"/><use xlink:href="#C" class="D"/><use xlink:href="#D" class="E H"/><use xlink:href="#E" class="D"/><use xlink:href="#F" class="E H"/><use xlink:href="#G" class="D"/><use xlink:href="#Y" class="E H"/><use xlink:href="#Q" x="80" class="D"/><use xlink:href="#I" class="E H"/><use xlink:href="#J" class="D"/><use xlink:href="#K" class="E H"/><use xlink:href="#L" class="D"/><use xlink:href="#M" class="E H"/><use xlink:href="#C" x="-80" class="D"/><path d="M936 36l40 19.21v41.58L936 116l-40-19.21V55.21z" class="E H"/><use xlink:href="#S" x="80" class="D"/><use xlink:href="#N" class="E H"/><use xlink:href="#O" class="D"/><use xlink:href="#P" class="E H"/><use xlink:href="#Q" class="D"/><use xlink:href="#R" class="E H"/><use xlink:href="#J" x="-80" class="D"/></g><text x="390" y="72" transform="matrix(2 0 0 2 -.5 -.5)" class="M N O Q">                     2                 </text><g stroke="#b46504" class="F P B C"><path d="M976 176l40 19.21v41.58L976 256l-40-19.21v-41.58z" class="E I"/><use xlink:href="#G" x="160" class="D"/><path d="M936 196l40 19.21v41.58L936 276l-40-19.21v-41.58z" class="E I"/><use xlink:href="#H" x="160" class="D"/><path d="M896 216l40 19.21v41.58L896 296l-40-19.21v-41.58z" class="E I"/><use xlink:href="#W" x="80" class="D"/><path d="M856 236l40 19.21v41.58L856 316l-40-19.21v-41.58z" class="E I"/><use xlink:href="#Z" class="D"/><path d="M976 136l40 19.21v41.58L976 216l-40-19.21v-41.58z" class="E I"/><use xlink:href="#C" x="80" class="D"/><use xlink:href="#T" class="E I"/><use xlink:href="#E" x="80" class="D"/><use xlink:href="#U" class="E I"/><use xlink:href="#G" x="80" class="D"/><use xlink:href="#V" class="E I"/><use xlink:href="#H" x="80" class="D"/><path d="M976 96l40 19.21v41.58L976 176l-40-19.21v-41.58z" class="E I"/><use xlink:href="#J" x="80" class="D"/><use xlink:href="#X" class="E I"/><use xlink:href="#L" x="80" class="D"/><use xlink:href="#B" class="E I"/><use xlink:href="#C" class="D"/><use xlink:href="#D" class="E I"/><use xlink:href="#E" class="D"/><path d="M976 56l40 19.21v41.58L976 136l-40-19.21V75.21z" class="E I"/><use xlink:href="#O" x="80" class="D"/><use xlink:href="#Y" class="E I"/><use xlink:href="#Q" x="80" class="D"/><use xlink:href="#I" class="E I"/><use xlink:href="#J" class="D"/><use xlink:href="#K" class="E I"/><use xlink:href="#L" class="D"/></g><text x="410" y="82" transform="matrix(2 0 0 2 -.5 -.5)" class="M N O Q">                     4                 </text><g class="F P B"><g class="V"><path d="M696 216h10q10 0 10 15v7.5q0 7.5 13.63 7.5h13.63" class="D X"/><path d="M753.76 246l-14 7 3.5-7-3.5-7z"/><path d="M616.08 216h9.96q9.96 0 9.96 20v15q0 15 20 15h127.26" class="D X"/><path d="M793.76 266l-14 7 3.5-7-3.5-7z"/><path d="M535.92 216h10.04Q556 216 556 236v30q0 20 20 20h247.26" class="D X"/><path d="M833.76 286l-14 7 3.5-7-3.5-7z"/></g><g stroke="#ae4132" class="C"><use xlink:href="#a" class="E J"/><use xlink:href="#C" x="-720" class="D"/><use xlink:href="#b" class="E J"/><use xlink:href="#E" x="-720" class="D"/><use xlink:href="#c" class="E J"/><use xlink:href="#G" x="-720" class="D"/><path d="M56 196l40 19.21v41.58L56 276l-40-19.21v-41.58z" class="E J"/><use xlink:href="#H" x="-720" class="D"/><use xlink:href="#d" class="E J"/><use xlink:href="#J" x="-720" class="D"/><use xlink:href="#e" class="E J"/><use xlink:href="#L" x="-720" class="D"/><use xlink:href="#f" class="E J"/><use xlink:href="#C" x="-800" class="D"/><path d="M56 156l40 19.21v41.58L56 236l-40-19.21v-41.58z" class="E J"/><use xlink:href="#E" x="-800" class="D"/><use xlink:href="#g" class="E J"/><use xlink:href="#O" x="-720" class="D"/><use xlink:href="#h" class="E J"/><use xlink:href="#Q" x="-720" class="D"/><use xlink:href="#i" class="E J"/><use xlink:href="#J" x="-800" class="D"/><path d="M56 116l40 19.21v41.58L56 196l-40-19.21v-41.58z" class="E J"/><use xlink:href="#L" x="-800" class="D"/><path d="M176 16l40 19.21v41.58L176 96l-40-19.21V35.21z" class="E J"/><path d="M136 35.21l40 19.2 40-19.2m-40 19.2V96" class="D"/><path d="M136 36l40 19.21v41.58L136 116 96 96.79V55.21z" class="E J"/><use xlink:href="#S" x="-720" class="D"/><path d="M96 56l40 19.21v41.58L96 136l-40-19.21V75.21z" class="E J"/><use xlink:href="#O" x="-800" class="D"/><path d="M56 76l40 19.21v41.58L56 156l-40-19.21V95.21z" class="E J"/><use xlink:href="#Q" x="-800" class="D"/></g></g><text x="10" y="62" transform="matrix(2 0 0 2 -.5 -.5)" class="M N O Q">                     5                 </text><g stroke="#b46504" class="F P B C"><use xlink:href="#j" class="E I"/><use xlink:href="#E" x="-640" class="D"/><use xlink:href="#k" class="E I"/><use xlink:href="#G" x="-640" class="D"/><use xlink:href="#l" class="E I"/><use xlink:href="#H" x="-640" class="D"/><path d="M96 216l40 19.21v41.58L96 296l-40-19.21v-41.58z" class="E I"/><use xlink:href="#W" x="-720" class="D"/><use xlink:href="#m" class="E I"/><use xlink:href="#L" x="-640" class="D"/><use xlink:href="#a" class="E I"/><use xlink:href="#C" x="-720" class="D"/><use xlink:href="#b" class="E I"/><use xlink:href="#E" x="-720" class="D"/><use xlink:href="#c" class="E I"/><use xlink:href="#G" x="-720" class="D"/><use xlink:href="#n" class="E I"/><use xlink:href="#Q" x="-640" class="D"/><use xlink:href="#d" class="E I"/><use xlink:href="#J" x="-720" class="D"/><use xlink:href="#e" class="E I"/><use xlink:href="#L" x="-720" class="D"/><use xlink:href="#f" class="E I"/><use xlink:href="#C" x="-800" class="D"/><path d="M216 36l40 19.21v41.58L216 116l-40-19.21V55.21z" class="E I"/><use xlink:href="#S" x="-640" class="D"/><use xlink:href="#g" class="E I"/><use xlink:href="#O" x="-720" class="D"/><use xlink:href="#h" class="E I"/><use xlink:href="#Q" x="-720" class="D"/><use xlink:href="#i" class="E I"/><use xlink:href="#J" x="-800" class="D"/></g><text x="30" y="72" transform="matrix(2 0 0 2 -.5 -.5)" class="M N O Q">                     4                 </text><g stroke="#d6b656" class="F P B C"><use xlink:href="#o" class="E K"/><use xlink:href="#G" x="-560" class="D"/><use xlink:href="#p" class="E K"/><use xlink:href="#H" x="-560" class="D"/><use xlink:href="#q" class="E K"/><use xlink:href="#W" x="-640" class="D"/><path d="M136 236l40 19.21v41.58L136 316l-40-19.21v-41.58z" class="E K"/><use xlink:href="#Z" x="-720" class="D"/><use xlink:href="#r" class="E K"/><use xlink:href="#C" x="-640" class="D"/><use xlink:href="#j" class="E K"/><use xlink:href="#E" x="-640" class="D"/><use xlink:href="#k" class="E K"/><use xlink:href="#G" x="-640" class="D"/><use xlink:href="#l" class="E K"/><use xlink:href="#H" x="-640" class="D"/><use xlink:href="#s" class="E K"/><use xlink:href="#J" x="-640" class="D"/><use xlink:href="#m" class="E K"/><use xlink:href="#L" x="-640" class="D"/><use xlink:href="#a" class="E K"/><use xlink:href="#C" x="-720" class="D"/><use xlink:href="#b" class="E K"/><use xlink:href="#E" x="-720" class="D"/><path d="M256 56l40 19.21v41.58L256 136l-40-19.21V75.21z" class="E K"/><use xlink:href="#O" x="-640" class="D"/><use xlink:href="#n" class="E K"/><use xlink:href="#Q" x="-640" class="D"/><use xlink:href="#d" class="E K"/><use xlink:href="#J" x="-720" class="D"/><use xlink:href="#e" class="E K"/><use xlink:href="#L" x="-720" class="D"/></g><text x="50" y="82" transform="matrix(2 0 0 2 -.5 -.5)" class="M N O Q">                     3                 </text><g stroke="#82b366" class="F P B C"><use xlink:href="#t" class="E H"/><use xlink:href="#H" x="-480" class="D"/><use xlink:href="#u" class="E H"/><use xlink:href="#W" x="-560" class="D"/><use xlink:href="#v" class="E H"/><use xlink:href="#Z" x="-640" class="D"/><path d="M176 256l40 19.21v41.58L176 336l-40-19.21v-41.58z" class="E H"/><use xlink:href="#w" class="D"/><use xlink:href="#x" class="E H"/><use xlink:href="#E" x="-560" class="D"/><use xlink:href="#o" class="E H"/><use xlink:href="#G" x="-560" class="D"/><use xlink:href="#p" class="E H"/><use xlink:href="#H" x="-560" class="D"/><use xlink:href="#q" class="E H"/><use xlink:href="#W" x="-640" class="D"/><use xlink:href="#y" class="E H"/><use xlink:href="#L" x="-560" class="D"/><use xlink:href="#r" class="E H"/><use xlink:href="#C" x="-640" class="D"/><use xlink:href="#j" class="E H"/><use xlink:href="#E" x="-640" class="D"/><use xlink:href="#k" class="E H"/><use xlink:href="#G" x="-640" class="D"/><path d="M296 76l40 19.21v41.58L296 156l-40-19.21V95.21z" class="E H"/><use xlink:href="#Q" x="-560" class="D"/><use xlink:href="#s" class="E H"/><use xlink:href="#J" x="-640" class="D"/><use xlink:href="#m" class="E H"/><use xlink:href="#L" x="-640" class="D"/><use xlink:href="#a" class="E H"/><use xlink:href="#C" x="-720" class="D"/></g><text x="70" y="92" transform="matrix(2 0 0 2 -.5 -.5)" class="M N O Q">                     2                 </text><g stroke="#0e8088" class="F P B C"><use xlink:href="#z" class="E L"/><use xlink:href="#W" x="-480" class="D"/><use xlink:href="#AA" class="E L"/><use xlink:href="#Z" x="-560" class="D"/><use xlink:href="#AB" class="E L"/><use xlink:href="#w" x="80" class="D"/><path d="M216 276l40 19.21v41.58L216 356l-40-19.21v-41.58z" class="E L"/><path d="M176 295.21l40 19.2 40-19.2m-40 19.2V356" class="D"/><use xlink:href="#AC" class="E L"/><use xlink:href="#G" x="-480" class="D"/><use xlink:href="#t" class="E L"/><use xlink:href="#H" x="-480" class="D"/><use xlink:href="#u" class="E L"/><use xlink:href="#W" x="-560" class="D"/><use xlink:href="#v" class="E L"/><use xlink:href="#Z" x="-640" class="D"/><use xlink:href="#AD" class="E L"/><use xlink:href="#C" x="-560" class="D"/><use xlink:href="#x" class="E L"/><use xlink:href="#E" x="-560" class="D"/><use xlink:href="#o" class="E L"/><use xlink:href="#G" x="-560" class="D"/><use xlink:href="#p" class="E L"/><use xlink:href="#H" x="-560" class="D"/><path d="M336 96l40 19.21v41.58L336 176l-40-19.21v-41.58z" class="E L"/><use xlink:href="#J" x="-560" class="D"/><use xlink:href="#y" class="E L"/><use xlink:href="#L" x="-560" class="D"/><use xlink:href="#r" class="E L"/><use xlink:href="#C" x="-640" class="D"/><use xlink:href="#j" class="E L"/><use xlink:href="#E" x="-640" class="D"/></g><text x="90" y="102" transform="matrix(2 0 0 2 -.5 -.5)" class="M N O Q">                     1                 </text><g stroke="#6c8ebf" class="F P B C"><path d="M376 236l40 19.21v41.58L376 316l-40-19.21v-41.58z" class="E G"/><use xlink:href="#Z" x="-480" class="D"/><path d="M336 256l40 19.21v41.58L336 336l-40-19.21v-41.58z" class="E G"/><use xlink:href="#w" x="160" class="D"/><path d="M296 276l40 19.21v41.58L296 356l-40-19.21v-41.58z" class="E G"/><path d="M256 295.21l40 19.2 40-19.2m-40 19.2V356" class="D"/><path d="M256 296l40 19.21v41.58L256 376l-40-19.21v-41.58z" class="E G"/><path d="M216 315.21l40 19.2 40-19.2m-40 19.2V376" class="D"/><path d="M376 196l40 19.21v41.58L376 276l-40-19.21v-41.58z" class="E G"/><use xlink:href="#H" x="-400" class="D"/><use xlink:href="#z" class="E G"/><use xlink:href="#W" x="-480" class="D"/><use xlink:href="#AA" class="E G"/><use xlink:href="#Z" x="-560" class="D"/><use xlink:href="#AB" class="E G"/><use xlink:href="#w" x="80" class="D"/><path d="M376 156l40 19.21v41.58L376 236l-40-19.21v-41.58z" class="E G"/><use xlink:href="#E" x="-480" class="D"/><use xlink:href="#AC" class="E G"/><use xlink:href="#G" x="-480" class="D"/><use xlink:href="#t" class="E G"/><use xlink:href="#H" x="-480" class="D"/><use xlink:href="#u" class="E G"/><use xlink:href="#W" x="-560" class="D"/><path d="M376 116l40 19.21v41.58L376 196l-40-19.21v-41.58z" class="E G"/><use xlink:href="#L" x="-480" class="D"/><use xlink:href="#AD" class="E G"/><use xlink:href="#C" x="-560" class="D"/><use xlink:href="#x" class="E G"/><use xlink:href="#E" x="-560" class="D"/><use xlink:href="#o" class="E G"/><use xlink:href="#G" x="-560" class="D"/></g><text x="110" y="112" transform="matrix(2 0 0 2 -.5 -.5)" class="M N O Q">                     0                 </text><text x="128" y="123" transform="matrix(2 0 0 2 -.5 -.5)" class="O R T U">                     axis                 </text><g stroke-width="4" class="V B"><path d="M250.61 211.35l-76.23-37.45" class="D F"/><circle cx="256" cy="214" r="6"/><path d="M163.61 168.61l17.89-.12-7.12 5.41.07 8.95z" class="F"/></g><g stroke="#ae4132" class="P B C F"><use xlink:href="#AE" class="E J"/><use xlink:href="#AF" class="D"/><use xlink:href="#AG" class="E J"/><use xlink:href="#AH" class="D"/><use xlink:href="#AI" class="E J"/><use xlink:href="#AJ" class="D"/><path d="M776 516l40 19.21v41.58L776 596l-40-19.21v-41.58z" class="E J"/><use xlink:href="#AK" class="D"/><use xlink:href="#AL" class="E J"/><use xlink:href="#AM" class="D"/><use xlink:href="#AN" class="E J"/><use xlink:href="#AO" class="D"/><use xlink:href="#AP" class="E J"/><use xlink:href="#AF" x="-80" class="D"/><path d="M776 476l40 19.21v41.58L776 556l-40-19.21v-41.58z" class="E J"/><use xlink:href="#AH" x="-80" class="D"/><use xlink:href="#AQ" class="E J"/><use xlink:href="#AR" class="D"/><use xlink:href="#AS" class="E J"/><use xlink:href="#AT" class="D"/><use xlink:href="#AU" class="E J"/><use xlink:href="#AM" x="-80" class="D"/><path d="M776 436l40 19.21v41.58L776 516l-40-19.21v-41.58z" class="E J"/><use xlink:href="#AO" x="-80" class="D"/><path d="M896 336l40 19.21v41.58L896 416l-40-19.21v-41.58z" class="E J"/><path d="M856 355.21l40 19.2 40-19.2m-40 19.2V416" class="D"/><path d="M856 356l40 19.21v41.58L856 436l-40-19.21v-41.58z" class="E J"/><path d="M816 375.21l40 19.2 40-19.2m-40 19.2V436" class="D"/><path d="M816 376l40 19.21v41.58L816 456l-40-19.21v-41.58z" class="E J"/><use xlink:href="#AR" x="-80" class="D"/><path d="M776 396l40 19.21v41.58L776 476l-40-19.21v-41.58z" class="E J"/><use xlink:href="#AT" x="-80" class="D"/></g><text x="370" y="222" transform="matrix(2 0 0 2 -.5 -.5)" class="M N O Q">                     5                 </text><g stroke="#0e8088" class="F P B C"><use xlink:href="#AV" class="E L"/><use xlink:href="#AH" x="80" class="D"/><use xlink:href="#AW" class="E L"/><use xlink:href="#AJ" x="80" class="D"/><use xlink:href="#AX" class="E L"/><use xlink:href="#AK" x="80" class="D"/><path d="M816 536l40 19.21v41.58L816 616l-40-19.21v-41.58z" class="E L"/><path d="M776 555.21l40 19.2 40-19.2m-40 19.2V616" class="D"/><use xlink:href="#AY" class="E L"/><use xlink:href="#AO" x="80" class="D"/><use xlink:href="#AE" class="E L"/><use xlink:href="#AF" class="D"/><use xlink:href="#AG" class="E L"/><use xlink:href="#AH" class="D"/><use xlink:href="#AI" class="E L"/><use xlink:href="#AJ" class="D"/><use xlink:href="#AZ" class="E L"/><use xlink:href="#AT" x="80" class="D"/><use xlink:href="#AL" class="E L"/><use xlink:href="#AM" class="D"/><use xlink:href="#AN" class="E L"/><use xlink:href="#AO" class="D"/><use xlink:href="#AP" class="E L"/><use xlink:href="#AF" x="-80" class="D"/><path d="M936 356l40 19.21v41.58L936 436l-40-19.21v-41.58z" class="E L"/><path d="M896 375.21l40 19.2 40-19.2m-40 19.2V436" class="D"/><use xlink:href="#AQ" class="E L"/><use xlink:href="#AR" class="D"/><use xlink:href="#AS" class="E L"/><use xlink:href="#AT" class="D"/><use xlink:href="#AU" class="E L"/><use xlink:href="#AM" x="-80" class="D"/></g><text x="390" y="232" transform="matrix(2 0 0 2 -.5 -.5)" class="M N O Q">                     1                 </text><g stroke="#d6b656" class="F P B C"><path d="M976 496l40 19.21v41.58L976 576l-40-19.21v-41.58z" class="E K"/><use xlink:href="#AJ" x="160" class="D"/><path d="M936 516l40 19.21v41.58L936 596l-40-19.21v-41.58z" class="E K"/><use xlink:href="#AK" x="160" class="D"/><path d="M896 536l40 19.21v41.58L896 616l-40-19.21v-41.58z" class="E K"/><path d="M856 555.21l40 19.2 40-19.2m-40 19.2V616" class="D"/><path d="M856 556l40 19.21v41.58L856 636l-40-19.21v-41.58z" class="E K"/><path d="M816 575.21l40 19.2 40-19.2m-40 19.2V636" class="D"/><path d="M976 456l40 19.21v41.58L976 536l-40-19.21v-41.58z" class="E K"/><use xlink:href="#AF" x="80" class="D"/><use xlink:href="#AV" class="E K"/><use xlink:href="#AH" x="80" class="D"/><use xlink:href="#AW" class="E K"/><use xlink:href="#AJ" x="80" class="D"/><use xlink:href="#AX" class="E K"/><use xlink:href="#AK" x="80" class="D"/><path d="M976 416l40 19.21v41.58L976 496l-40-19.21v-41.58z" class="E K"/><use xlink:href="#AM" x="80" class="D"/><use xlink:href="#AY" class="E K"/><use xlink:href="#AO" x="80" class="D"/><use xlink:href="#AE" class="E K"/><use xlink:href="#AF" class="D"/><use xlink:href="#AG" class="E K"/><use xlink:href="#AH" class="D"/><path d="M976 376l40 19.21v41.58L976 456l-40-19.21v-41.58z" class="E K"/><use xlink:href="#AR" x="80" class="D"/><use xlink:href="#AZ" class="E K"/><use xlink:href="#AT" x="80" class="D"/><use xlink:href="#AL" class="E K"/><use xlink:href="#AM" class="D"/><use xlink:href="#AN" class="E K"/><use xlink:href="#AO" class="D"/></g><text x="410" y="242" transform="matrix(2 0 0 2 -.5 -.5)" class="M N O Q">                     3                 </text><defs ><path id="B" d="M896 136l40 19.21v41.58L896 216l-40-19.21v-41.58z"/><path id="C" d="M856 155.21l40 19.2 40-19.2m-40 19.2V216"/><path id="D" d="M856 156l40 19.21v41.58L856 236l-40-19.21v-41.58z"/><path id="E" d="M816 175.21l40 19.2 40-19.2m-40 19.2V236"/><path id="F" d="M816 176l40 19.21v41.58L816 256l-40-19.21v-41.58z"/><path id="G" d="M776 195.21l40 19.2 40-19.2m-40 19.2V256"/><path id="H" d="M736 215.21l40 19.2 40-19.2m-40 19.2V276"/><path id="I" d="M896 96l40 19.21v41.58L896 176l-40-19.21v-41.58z"/><path id="J" d="M856 115.21l40 19.2 40-19.2m-40 19.2V176"/><path id="K" d="M856 116l40 19.21v41.58L856 196l-40-19.21v-41.58z"/><path id="L" d="M816 135.21l40 19.2 40-19.2m-40 19.2V196"/><path id="M" d="M816 136l40 19.21v41.58L816 216l-40-19.21v-41.58z"/><path id="N" d="M896 56l40 19.21v41.58L896 136l-40-19.21V75.21z"/><path id="O" d="M856 75.21l40 19.2 40-19.2m-40 19.2V136"/><path id="P" d="M856 76l40 19.21v41.58L856 156l-40-19.21V95.21z"/><path id="Q" d="M816 95.21l40 19.2 40-19.2m-40 19.2V156"/><path id="R" d="M816 96l40 19.21v41.58L816 176l-40-19.21v-41.58z"/><path id="S" d="M816 55.21l40 19.2 40-19.2m-40 19.2V116"/><path id="T" d="M936 156l40 19.21v41.58L936 236l-40-19.21v-41.58z"/><path id="U" d="M896 176l40 19.21v41.58L896 256l-40-19.21v-41.58z"/><path id="V" d="M856 196l40 19.21v41.58L856 276l-40-19.21v-41.58z"/><path id="W" d="M776 235.21l40 19.2 40-19.2m-40 19.2V296"/><path id="X" d="M936 116l40 19.21v41.58L936 196l-40-19.21v-41.58z"/><path id="Y" d="M936 76l40 19.21v41.58L936 156l-40-19.21V95.21z"/><path id="Z" d="M816 255.21l40 19.2 40-19.2m-40 19.2V316"/><path id="a" d="M176 136l40 19.21v41.58L176 216l-40-19.21v-41.58z"/><path id="b" d="M136 156l40 19.21v41.58L136 236l-40-19.21v-41.58z"/><path id="c" d="M96 176l40 19.21v41.58L96 256l-40-19.21v-41.58z"/><path id="d" d="M176 96l40 19.21v41.58L176 176l-40-19.21v-41.58z"/><path id="e" d="M136 116l40 19.21v41.58L136 196l-40-19.21v-41.58z"/><path id="f" d="M96 136l40 19.21v41.58L96 216l-40-19.21v-41.58z"/><path id="g" d="M176 56l40 19.21v41.58L176 136l-40-19.21V75.21z"/><path id="h" d="M136 76l40 19.21v41.58L136 156l-40-19.21V95.21z"/><path id="i" d="M96 96l40 19.21v41.58L96 176l-40-19.21v-41.58z"/><path id="j" d="M216 156l40 19.21v41.58L216 236l-40-19.21v-41.58z"/><path id="k" d="M176 176l40 19.21v41.58L176 256l-40-19.21v-41.58z"/><path id="l" d="M136 196l40 19.21v41.58L136 276l-40-19.21v-41.58z"/><path id="m" d="M216 116l40 19.21v41.58L216 196l-40-19.21v-41.58z"/><path id="n" d="M216 76l40 19.21v41.58L216 156l-40-19.21V95.21z"/><path id="o" d="M256 176l40 19.21v41.58L256 256l-40-19.21v-41.58z"/><path id="p" d="M216 196l40 19.21v41.58L216 276l-40-19.21v-41.58z"/><path id="q" d="M176 216l40 19.21v41.58L176 296l-40-19.21v-41.58z"/><path id="r" d="M256 136l40 19.21v41.58L256 216l-40-19.21v-41.58z"/><path id="s" d="M256 96l40 19.21v41.58L256 176l-40-19.21v-41.58z"/><path id="t" d="M296 196l40 19.21v41.58L296 276l-40-19.21v-41.58z"/><path id="u" d="M256 216l40 19.21v41.58L256 296l-40-19.21v-41.58z"/><path id="v" d="M216 236l40 19.21v41.58L216 316l-40-19.21v-41.58z"/><path id="w" d="M136 275.21l40 19.2 40-19.2m-40 19.2V336"/><path id="x" d="M296 156l40 19.21v41.58L296 236l-40-19.21v-41.58z"/><path id="y" d="M296 116l40 19.21v41.58L296 196l-40-19.21v-41.58z"/><path id="z" d="M336 216l40 19.21v41.58L336 296l-40-19.21v-41.58z"/><path id="AA" d="M296 236l40 19.21v41.58L296 316l-40-19.21v-41.58z"/><path id="AB" d="M256 256l40 19.21v41.58L256 336l-40-19.21v-41.58z"/><path id="AC" d="M336 176l40 19.21v41.58L336 256l-40-19.21v-41.58z"/><path id="AD" d="M336 136l40 19.21v41.58L336 216l-40-19.21v-41.58z"/><path id="AE" d="M896 456l40 19.21v41.58L896 536l-40-19.21v-41.58z"/><path id="AF" d="M856 475.21l40 19.2 40-19.2m-40 19.2V536"/><path id="AG" d="M856 476l40 19.21v41.58L856 556l-40-19.21v-41.58z"/><path id="AH" d="M816 495.21l40 19.2 40-19.2m-40 19.2V556"/><path id="AI" d="M816 496l40 19.21v41.58L816 576l-40-19.21v-41.58z"/><path id="AJ" d="M776 515.21l40 19.2 40-19.2m-40 19.2V576"/><path id="AK" d="M736 535.21l40 19.2 40-19.2m-40 19.2V596"/><path id="AL" d="M896 416l40 19.21v41.58L896 496l-40-19.21v-41.58z"/><path id="AM" d="M856 435.21l40 19.2 40-19.2m-40 19.2V496"/><path id="AN" d="M856 436l40 19.21v41.58L856 516l-40-19.21v-41.58z"/><path id="AO" d="M816 455.21l40 19.2 40-19.2m-40 19.2V516"/><path id="AP" d="M816 456l40 19.21v41.58L816 536l-40-19.21v-41.58z"/><path id="AQ" d="M896 376l40 19.21v41.58L896 456l-40-19.21v-41.58z"/><path id="AR" d="M856 395.21l40 19.2 40-19.2m-40 19.2V456"/><path id="AS" d="M856 396l40 19.21v41.58L856 476l-40-19.21v-41.58z"/><path id="AT" d="M816 415.21l40 19.2 40-19.2m-40 19.2V476"/><path id="AU" d="M816 416l40 19.21v41.58L816 496l-40-19.21v-41.58z"/><path id="AV" d="M936 476l40 19.21v41.58L936 556l-40-19.21v-41.58z"/><path id="AW" d="M896 496l40 19.21v41.58L896 576l-40-19.21v-41.58z"/><path id="AX" d="M856 516l40 19.21v41.58L856 596l-40-19.21v-41.58z"/><path id="AY" d="M936 436l40 19.21v41.58L936 516l-40-19.21v-41.58z"/><path id="AZ" d="M936 396l40 19.21v41.58L936 476l-40-19.21v-41.58z"/></defs></svg>