<svg xmlns="http://www.w3.org/2000/svg" xmlns:xlink="http://www.w3.org/1999/xlink" width="1034" height="404" viewBox="-0.5 -0.5 1034 404" style="background-color:rgb(255, 255, 255)" xmlns:v="https://vecta.io/nano"><style><![CDATA[.B{pointer-events:none}.C{stroke-opacity:.8}.D{fill-opacity:.8}.E{fill:none}.F{stroke-miterlimit:10}.G{font-family:sans-serif}.H{font-size:12px}.I{stroke-width:2}.J{fill:#fad7ac}.K{fill:#fff2cc}.L{fill:#b0e3e6}.M{fill:#000}.N{text-anchor:middle}.O{fill:#fad9d5}.P{fill:#d5e8d4}.Q{fill:#dae8fc}.R{opacity:.8}.S{pointer-events:all}.T{fill:#fff}.U{fill:#a20025}.V{fill:#60a917}.W{fill:#1ba1e2}.X{stroke:#000}.Y{font-family:serif}.Z{stroke:#6c8ebf}.a{stroke-dasharray:6 6}.b{pointer-events:stroke}]]></style><g class="I X"><path d="M322 146h34.06q20 0 20 15.03v7.52q0 7.51 20 7.5l47.2-.04" class="E F b"/><circle cx="316" cy="146" r="6" class="S"/><g class="F"><path d="M453.76 176l-13.99 7.01 3.49-7-3.5-7z" class="S"/><path d="M396.02 270l.02-6.97q.02-6.97 20.02-6.97h27.2" class="E b"/></g><circle cx="396" cy="276" r="6" class="S"/><path d="M453.76 256.06l-14 7 3.5-7-3.5-7z" class="F S"/></g><g stroke="#432d57" class="I S"><path fill="#76608a" d="M456 56h160v240H456z"/><g class="E F"><path d="M456 136h160m-160 80h160"/><path d="M536 56v240"/></g></g><text x="248" y="52" transform="matrix(2 0 0 2 -.5 -.5)" class="G H N T">                     5                 </text><text x="288" y="52" transform="matrix(2 0 0 2 -.5 -.5)" class="G H N T">                     0                 </text><text x="248" y="92" transform="matrix(2 0 0 2 -.5 -.5)" class="G H N T">                     2                 </text><text x="288" y="92" transform="matrix(2 0 0 2 -.5 -.5)" class="G H N T">                     1                 </text><text x="248" y="132" transform="matrix(2 0 0 2 -.5 -.5)" class="G H N T">                     0                 </text><text x="288" y="132" transform="matrix(2 0 0 2 -.5 -.5)" class="G H N T">                     3                 </text><g class="I X B"><path d="M202 46h154.06q20 0 20 20v15.03q0 15.03 20 15.02l47.2-.04" class="E F"/><circle cx="196" cy="46" r="6"/><path d="M453.76 96l-13.99 7.01 3.49-7-3.5-7z" class="F"/></g><text x="268" y="168" font-size="16" transform="matrix(2 0 0 2 -.5 -.5)" class="M N Y">                     indices                 </text><text x="428" y="168" font-size="16" transform="matrix(2 0 0 2 -.5 -.5)" class="M N Y">                     output                 </text><text x="178" y="188" font-size="16" transform="matrix(2 0 0 2 -.5 -.5)" class="M N Y">                     data                 </text><g class="F I B C"><g stroke="#ae4132"><use xlink:href="#B" class="D O"/><use xlink:href="#C" class="E"/><use xlink:href="#D" class="D O"/><use xlink:href="#E" class="E"/><use xlink:href="#F" class="D O"/><use xlink:href="#G" class="E"/><path d="M56 196l40 19.21v41.58L56 276l-40-19.21v-41.58z" class="D O"/><use xlink:href="#H" class="E"/><use xlink:href="#I" class="D O"/><use xlink:href="#J" class="E"/><use xlink:href="#K" class="D O"/><use xlink:href="#L" class="E"/><use xlink:href="#M" class="D O"/><use xlink:href="#C" x="-80" class="E"/><path d="M56 156l40 19.21v41.58L56 236l-40-19.21v-41.58z" class="D O"/><use xlink:href="#E" x="-80" class="E"/><use xlink:href="#N" class="D O"/><use xlink:href="#O" class="E"/><use xlink:href="#P" class="D O"/><use xlink:href="#Q" class="E"/><use xlink:href="#R" class="D O"/><use xlink:href="#J" x="-80" class="E"/><path d="M56 116l40 19.21v41.58L56 196l-40-19.21v-41.58z" class="D O"/><use xlink:href="#L" x="-80" class="E"/></g><g stroke="#6f0000"><path d="M176 16l40 19.21v41.58L176 96l-40-19.21V35.21z" class="D U"/><path d="M136 35.21l40 19.2 40-19.2m-40 19.2V96" class="E"/><path d="M136 36l40 19.21v41.58L136 116 96 96.79V55.21z" class="D U"/><path d="M96 55.21l40 19.2 40-19.2m-40 19.2V116" class="E"/><path d="M96 56l40 19.21v41.58L96 136l-40-19.21V75.21z" class="D U"/><use xlink:href="#O" x="-80" class="E"/><path d="M56 76l40 19.21v41.58L56 156l-40-19.21V95.21z" class="D U"/><use xlink:href="#Q" x="-80" class="E"/></g></g><text x="10" y="62" transform="matrix(2 0 0 2 -.5 -.5)" class="G H M R">                     5                 </text><g stroke="#b46504" class="F I B C"><use xlink:href="#S" class="D J"/><use xlink:href="#E" x="80" class="E"/><use xlink:href="#T" class="D J"/><use xlink:href="#G" x="80" class="E"/><use xlink:href="#U" class="D J"/><use xlink:href="#H" x="80" class="E"/><path d="M96 216l40 19.21v41.58L96 296l-40-19.21v-41.58z" class="D J"/><use xlink:href="#V" class="E"/><use xlink:href="#W" class="D J"/><use xlink:href="#L" x="80" class="E"/><use xlink:href="#B" class="D J"/><use xlink:href="#C" class="E"/><use xlink:href="#D" class="D J"/><use xlink:href="#E" class="E"/><use xlink:href="#F" class="D J"/><use xlink:href="#G" class="E"/><use xlink:href="#X" class="D J"/><use xlink:href="#Q" x="80" class="E"/><use xlink:href="#I" class="D J"/><use xlink:href="#J" class="E"/><use xlink:href="#K" class="D J"/><use xlink:href="#L" class="E"/><use xlink:href="#M" class="D J"/><use xlink:href="#C" x="-80" class="E"/><path d="M216 36l40 19.21v41.58L216 116l-40-19.21V55.21z" class="D J"/><path d="M176 55.21l40 19.2 40-19.2m-40 19.2V116" class="E"/><use xlink:href="#N" class="D J"/><use xlink:href="#O" class="E"/><use xlink:href="#P" class="D J"/><use xlink:href="#Q" class="E"/><use xlink:href="#R" class="D J"/><use xlink:href="#J" x="-80" class="E"/></g><text x="30" y="72" transform="matrix(2 0 0 2 -.5 -.5)" class="G H M R">                     4                 </text><g stroke="#d6b656" class="F I B C"><use xlink:href="#Y" class="D K"/><use xlink:href="#G" x="160" class="E"/><use xlink:href="#Z" class="D K"/><use xlink:href="#H" x="160" class="E"/><use xlink:href="#a" class="D K"/><use xlink:href="#V" x="80" class="E"/><path d="M136 236l40 19.21v41.58L136 316l-40-19.21v-41.58z" class="D K"/><use xlink:href="#b" class="E"/><use xlink:href="#c" class="D K"/><use xlink:href="#C" x="80" class="E"/><use xlink:href="#S" class="D K"/><use xlink:href="#E" x="80" class="E"/><use xlink:href="#T" class="D K"/><use xlink:href="#G" x="80" class="E"/><use xlink:href="#U" class="D K"/><use xlink:href="#H" x="80" class="E"/><use xlink:href="#d" class="D K"/><use xlink:href="#J" x="80" class="E"/><use xlink:href="#W" class="D K"/><use xlink:href="#L" x="80" class="E"/><use xlink:href="#B" class="D K"/><use xlink:href="#C" class="E"/><use xlink:href="#D" class="D K"/><use xlink:href="#E" class="E"/><path d="M256 56l40 19.21v41.58L256 136l-40-19.21V75.21z" class="D K"/><use xlink:href="#O" x="80" class="E"/><use xlink:href="#X" class="D K"/><use xlink:href="#Q" x="80" class="E"/><use xlink:href="#I" class="D K"/><use xlink:href="#J" class="E"/><use xlink:href="#K" class="D K"/><use xlink:href="#L" class="E"/></g><text x="50" y="82" transform="matrix(2 0 0 2 -.5 -.5)" class="G H M R">                     3                 </text><g class="F I B C"><g stroke="#82b366"><use xlink:href="#e" class="D P"/><use xlink:href="#H" x="240" class="E"/><use xlink:href="#f" class="D P"/><use xlink:href="#V" x="160" class="E"/><use xlink:href="#g" class="D P"/><use xlink:href="#b" x="80" class="E"/><path d="M176 256l40 19.21v41.58L176 336l-40-19.21v-41.58z" class="D P"/><use xlink:href="#h" class="E"/><use xlink:href="#i" class="D P"/><use xlink:href="#E" x="160" class="E"/><use xlink:href="#Y" class="D P"/><use xlink:href="#G" x="160" class="E"/><use xlink:href="#Z" class="D P"/><use xlink:href="#H" x="160" class="E"/><use xlink:href="#a" class="D P"/><use xlink:href="#V" x="80" class="E"/></g><g stroke="#2d7600"><use xlink:href="#j" class="D V"/><use xlink:href="#L" x="160" class="E"/><use xlink:href="#c" class="D V"/><use xlink:href="#C" x="80" class="E"/><use xlink:href="#S" class="D V"/><use xlink:href="#E" x="80" class="E"/><use xlink:href="#T" class="D V"/><use xlink:href="#G" x="80" class="E"/></g><g stroke="#82b366"><path d="M296 76l40 19.21v41.58L296 156l-40-19.21V95.21z" class="D P"/><use xlink:href="#Q" x="160" class="E"/><use xlink:href="#d" class="D P"/><use xlink:href="#J" x="80" class="E"/><use xlink:href="#W" class="D P"/><use xlink:href="#L" x="80" class="E"/><use xlink:href="#B" class="D P"/><use xlink:href="#C" class="E"/></g></g><text x="70" y="92" transform="matrix(2 0 0 2 -.5 -.5)" class="G H M R">                     2                 </text><g stroke="#0e8088" class="F I B C"><use xlink:href="#k" class="D L"/><use xlink:href="#V" x="240" class="E"/><use xlink:href="#l" class="D L"/><use xlink:href="#b" x="160" class="E"/><use xlink:href="#m" class="D L"/><use xlink:href="#h" x="80" class="E"/><path d="M216 276l40 19.21v41.58L216 356l-40-19.21v-41.58z" class="D L"/><path d="M176 295.21l40 19.2 40-19.2m-40 19.2V356" class="E"/><use xlink:href="#n" class="D L"/><use xlink:href="#G" x="240" class="E"/><use xlink:href="#e" class="D L"/><use xlink:href="#H" x="240" class="E"/><use xlink:href="#f" class="D L"/><use xlink:href="#V" x="160" class="E"/><use xlink:href="#g" class="D L"/><use xlink:href="#b" x="80" class="E"/><use xlink:href="#o" class="D L"/><use xlink:href="#C" x="160" class="E"/><use xlink:href="#i" class="D L"/><use xlink:href="#E" x="160" class="E"/><use xlink:href="#Y" class="D L"/><use xlink:href="#G" x="160" class="E"/><use xlink:href="#Z" class="D L"/><use xlink:href="#H" x="160" class="E"/><path d="M336 96l40 19.21v41.58L336 176l-40-19.21v-41.58z" class="D L"/><use xlink:href="#J" x="160" class="E"/><use xlink:href="#j" class="D L"/><use xlink:href="#L" x="160" class="E"/><use xlink:href="#c" class="D L"/><use xlink:href="#C" x="80" class="E"/><use xlink:href="#S" class="D L"/><use xlink:href="#E" x="80" class="E"/></g><text x="90" y="102" transform="matrix(2 0 0 2 -.5 -.5)" class="G H M R">                     1                 </text><g stroke="#006eaf" class="F I B C"><path d="M376 236l40 19.21v41.58L376 316l-40-19.21v-41.58z" class="D W"/><use xlink:href="#b" x="240" class="E"/><path d="M336 256l40 19.21v41.58L336 336l-40-19.21v-41.58z" class="D W"/><use xlink:href="#h" x="160" class="E"/><path d="M296 276l40 19.21v41.58L296 356l-40-19.21v-41.58z" class="D W"/><path d="M256 295.21l40 19.2 40-19.2m-40 19.2V356" class="E"/><path d="M256 296l40 19.21v41.58L256 376l-40-19.21v-41.58z" class="D W"/><path d="M216 315.21l40 19.2 40-19.2m-40 19.2V376" class="E"/></g><text x="110" y="172" transform="matrix(2 0 0 2 -.5 -.5)" class="G H M R">                     3                 </text><g class="F I Z B C"><path d="M376 196l40 19.21v41.58L376 276l-40-19.21v-41.58z" class="D Q"/><use xlink:href="#H" x="320" class="E"/><use xlink:href="#k" class="D Q"/><use xlink:href="#V" x="240" class="E"/><use xlink:href="#l" class="D Q"/><use xlink:href="#b" x="160" class="E"/><use xlink:href="#m" class="D Q"/><use xlink:href="#h" x="80" class="E"/></g><text x="110" y="152" transform="matrix(2 0 0 2 -.5 -.5)" class="G H M R">                     2                 </text><g class="F I Z B C"><path d="M376 156l40 19.21v41.58L376 236l-40-19.21v-41.58z" class="D Q"/><use xlink:href="#E" x="240" class="E"/><use xlink:href="#n" class="D Q"/><use xlink:href="#G" x="240" class="E"/><use xlink:href="#e" class="D Q"/><use xlink:href="#H" x="240" class="E"/><use xlink:href="#f" class="D Q"/><use xlink:href="#V" x="160" class="E"/></g><text x="110" y="132" transform="matrix(2 0 0 2 -.5 -.5)" class="G H M R">                     1                 </text><g class="F I Z B C"><path d="M376 116l40 19.21v41.58L376 196l-40-19.21v-41.58z" class="D Q"/><use xlink:href="#L" x="240" class="E"/><use xlink:href="#o" class="D Q"/><use xlink:href="#C" x="160" class="E"/><use xlink:href="#i" class="D Q"/><use xlink:href="#E" x="160" class="E"/><use xlink:href="#Y" class="D Q"/><use xlink:href="#G" x="160" class="E"/></g><text x="110" y="112" transform="matrix(2 0 0 2 -.5 -.5)" class="G H M R">                     0                 </text><g class="X B"><g stroke-width="4"><path d="M255.7 221.6l.26 97.93" class="E F"/><circle cx="255.68" cy="215.6" r="6"/><g class="F"><path d="M255.99 331.53l-8.04-15.98 8.01 3.98 7.99-4.02z"/><path d="M250.73 212.88l-76.44-38.79" class="E"/></g><circle cx="256.08" cy="215.6" r="6"/><path d="M163.59 168.66l17.89.11-7.19 5.32-.05 8.95z" class="F"/></g><g class="I"><path fill="#f5f5f5" d="M696 56h320v240H696z"/><g class="E F"><path d="M696 136h80 240m-320 80h320"/><path d="M776 56v240m80-240v240m80-240v240"/></g></g></g><path d="M696 56h80v80h-80z" class="B D U"/><text x="368" y="52" transform="matrix(2 0 0 2 -.5 -.5)" class="G H M N">                     (5, 0)                 </text><g class="U B D"><path d="M776 56h80v80h-80z"/><path d="M856 56h80v80h-80z"/><path d="M936 56h80v80h-80z"/></g><path d="M696 136h80v80h-80z" class="B D V"/><text x="368" y="92" transform="matrix(2 0 0 2 -.5 -.5)" class="G H M N">                     (2, 1)                 </text><g class="V B D"><path d="M776 136h80v80h-80z"/><path d="M856 136h80v80h-80z"/><path d="M936 136h80v80h-80z"/></g><path d="M696 216h80v80h-80z" class="B D W"/><text x="368" y="132" transform="matrix(2 0 0 2 -.5 -.5)" class="G H M N">                     (0, 3)                 </text><g class="W B D"><path d="M776 216h80v80h-80z"/><path d="M856 216h80v80h-80z"/><path d="M936 216h80v80h-80z"/></g><g class="F I X B"><path d="M616 96h67.26" class="E a"/><path d="M693.76 96l-14 7 3.5-7-3.5-7z"/><path d="M616 176h67.26" class="E a"/><path d="M693.76 176l-14 7 3.5-7-3.5-7z"/><path d="M616 256h67.26" class="E a"/><path d="M693.76 256l-14 7 3.5-7-3.5-7z"/></g><defs ><path id="B" d="M176 136l40 19.21v41.58L176 216l-40-19.21v-41.58z"/><path id="C" d="M136 155.21l40 19.2 40-19.2m-40 19.2V216"/><path id="D" d="M136 156l40 19.21v41.58L136 236l-40-19.21v-41.58z"/><path id="E" d="M96 175.21l40 19.2 40-19.2m-40 19.2V236"/><path id="F" d="M96 176l40 19.21v41.58L96 256l-40-19.21v-41.58z"/><path id="G" d="M56 195.21l40 19.2 40-19.2m-40 19.2V256"/><path id="H" d="M16 215.21l40 19.2 40-19.2m-40 19.2V276"/><path id="I" d="M176 96l40 19.21v41.58L176 176l-40-19.21v-41.58z"/><path id="J" d="M136 115.21l40 19.2 40-19.2m-40 19.2V176"/><path id="K" d="M136 116l40 19.21v41.58L136 196l-40-19.21v-41.58z"/><path id="L" d="M96 135.21l40 19.2 40-19.2m-40 19.2V196"/><path id="M" d="M96 136l40 19.21v41.58L96 216l-40-19.21v-41.58z"/><path id="N" d="M176 56l40 19.21v41.58L176 136l-40-19.21V75.21z"/><path id="O" d="M136 75.21l40 19.2 40-19.2m-40 19.2V136"/><path id="P" d="M136 76l40 19.21v41.58L136 156l-40-19.21V95.21z"/><path id="Q" d="M96 95.21l40 19.2 40-19.2m-40 19.2V156"/><path id="R" d="M96 96l40 19.21v41.58L96 176l-40-19.21v-41.58z"/><path id="S" d="M216 156l40 19.21v41.58L216 236l-40-19.21v-41.58z"/><path id="T" d="M176 176l40 19.21v41.58L176 256l-40-19.21v-41.58z"/><path id="U" d="M136 196l40 19.21v41.58L136 276l-40-19.21v-41.58z"/><path id="V" d="M56 235.21l40 19.2 40-19.2m-40 19.2V296"/><path id="W" d="M216 116l40 19.21v41.58L216 196l-40-19.21v-41.58z"/><path id="X" d="M216 76l40 19.21v41.58L216 156l-40-19.21V95.21z"/><path id="Y" d="M256 176l40 19.21v41.58L256 256l-40-19.21v-41.58z"/><path id="Z" d="M216 196l40 19.21v41.58L216 276l-40-19.21v-41.58z"/><path id="a" d="M176 216l40 19.21v41.58L176 296l-40-19.21v-41.58z"/><path id="b" d="M96 255.21l40 19.2 40-19.2m-40 19.2V316"/><path id="c" d="M256 136l40 19.21v41.58L256 216l-40-19.21v-41.58z"/><path id="d" d="M256 96l40 19.21v41.58L256 176l-40-19.21v-41.58z"/><path id="e" d="M296 196l40 19.21v41.58L296 276l-40-19.21v-41.58z"/><path id="f" d="M256 216l40 19.21v41.58L256 296l-40-19.21v-41.58z"/><path id="g" d="M216 236l40 19.21v41.58L216 316l-40-19.21v-41.58z"/><path id="h" d="M136 275.21l40 19.2 40-19.2m-40 19.2V336"/><path id="i" d="M296 156l40 19.21v41.58L296 236l-40-19.21v-41.58z"/><path id="j" d="M296 116l40 19.21v41.58L296 196l-40-19.21v-41.58z"/><path id="k" d="M336 216l40 19.21v41.58L336 296l-40-19.21v-41.58z"/><path id="l" d="M296 236l40 19.21v41.58L296 316l-40-19.21v-41.58z"/><path id="m" d="M256 256l40 19.21v41.58L256 336l-40-19.21v-41.58z"/><path id="n" d="M336 176l40 19.21v41.58L336 256l-40-19.21v-41.58z"/><path id="o" d="M336 136l40 19.21v41.58L336 216l-40-19.21v-41.58z"/></defs></svg>