<svg xmlns="http://www.w3.org/2000/svg" width="1034" height="518" viewBox="-0.5 -0.5 1034 518" style="background-color:rgb(255, 255, 255)" xmlns:v="https://vecta.io/nano"><style><![CDATA[.B{pointer-events:none}.C{stroke-opacity:.8}.D{text-anchor:middle}.E{font-family:sans-serif}.F{font-size:12px}.G{fill:#000}.H{stroke-miterlimit:10}.I{stroke-width:2}.J{fill:none}.K{stroke:#000}.L{fill-opacity:.8}.M{fill:#1ba1e2}.N{fill:#fff}.O{fill-opacity:.5}.P{stroke-dasharray:6 6}.Q{font-family:serif}.R{font-size:16px}.S{fill:#76608a}.T{pointer-events:all}]]></style><g stroke="#432d57" class="I C T"><path d="M416 90h240v160H416z" class="L S"/><g class="H J"><path d="M416 170h240"/><path d="M496 90v160m80-160v160"/></g></g><g stroke="#b85450" class="B C I"><path fill="#f8cecc" d="M16 90h320v320H16z" class="L"/><g class="H J"><path d="M16 170h80 240M16 250h320"/><path d="M16 330h80 240M96 90v320"/><path d="M176 90v80 240m80-320v320"/></g></g><g stroke="#82b366" class="B C I"><path fill="#d5e8d4" d="M36 110h320v320H36z" class="L"/><g class="H J"><path d="M36 190h80 240M36 270h320"/><path d="M36 350h80 240M116 110v320"/><path d="M196 110v80 240m80-320v320"/></g></g><g stroke="#6c8ebf" class="B C I"><path fill="#dae8fc" d="M56 130h320v320H56z" class="L"/><g class="H J"><path d="M56 210h80 240M56 290h320"/><path d="M56 370h80 240M136 130v320"/><path d="M216 130v80 240m78-320v320"/></g></g><path d="M56 130h80v80H56z" class="B M O"/><text x="48" y="89" transform="matrix(2 0 0 2 -.5 -.5)" class="D E F G">                     α                 </text><text x="88" y="89" transform="matrix(2 0 0 2 -.5 -.5)" class="D E F G">                     B                 </text><path d="M216 130h78v80h-78z" class="B M O"/><text x="128" y="89" transform="matrix(2 0 0 2 -.5 -.5)" class="D E F G">                     θ                 </text><path d="M294 130h82v80h-82z" class="B M O"/><text x="168" y="89" transform="matrix(2 0 0 2 -.5 -.5)" class="D E F G">                     δ                 </text><path d="M56 210h80v80H56z" class="B M O"/><text x="48" y="129" transform="matrix(2 0 0 2 -.5 -.5)" class="D E F G">                     ε                 </text><path d="M136 210h80v80h-80z" class="B M O"/><text x="88" y="129" transform="matrix(2 0 0 2 -.5 -.5)" class="D E F G">                     φ                 </text><text x="128" y="129" transform="matrix(2 0 0 2 -.5 -.5)" class="D E F G">                     G                 </text><text x="168" y="129" transform="matrix(2 0 0 2 -.5 -.5)" class="D E F G">                     H                 </text><text x="48" y="169" transform="matrix(2 0 0 2 -.5 -.5)" class="D E F G">                     I                 </text><text x="88" y="169" transform="matrix(2 0 0 2 -.5 -.5)" class="D E F G">                     J                 </text><text x="128" y="169" transform="matrix(2 0 0 2 -.5 -.5)" class="D E F G">                     K                 </text><text x="168" y="169" transform="matrix(2 0 0 2 -.5 -.5)" class="D E F G">                     L                 </text><text x="48" y="209" transform="matrix(2 0 0 2 -.5 -.5)" class="D E F G">                     M                 </text><text x="88" y="209" transform="matrix(2 0 0 2 -.5 -.5)" class="D E F G">                     N                 </text><text x="128" y="209" transform="matrix(2 0 0 2 -.5 -.5)" class="D E F G">                     O                 </text><text x="168" y="209" transform="matrix(2 0 0 2 -.5 -.5)" class="D E F G">                     P                 </text><g stroke="#432d57" class="I B C"><path d="M436 110h240v160H436z" class="L S"/><g class="H J"><path d="M436 190h240"/><path d="M516 110v160m80-160v160"/></g><path d="M456 130h240v160H456z" class="L S"/><g class="H J"><path d="M456 210h240"/><path d="M536 130v160m80-160v160"/></g></g><text x="248" y="89" transform="matrix(2 0 0 2 -.5 -.5)" class="D E F N">                     0                 </text><text x="288" y="89" transform="matrix(2 0 0 2 -.5 -.5)" class="D E F N">                     3                 </text><text x="328" y="89" transform="matrix(2 0 0 2 -.5 -.5)" class="D E F N">                     2                 </text><text x="248" y="129" transform="matrix(2 0 0 2 -.5 -.5)" class="D E F N">                     1                 </text><text x="288" y="129" transform="matrix(2 0 0 2 -.5 -.5)" class="D E F N">                     0                 </text><text x="328" y="129" transform="matrix(2 0 0 2 -.5 -.5)" class="D E F N">                     1                 </text><g class="I B"><g class="J"><g class="P"><rect x="66" y="140" width="300" height="60" rx="9" stroke="#314354"/><rect x="466" y="140" width="220" height="60" rx="9" stroke="#cce5ff"/></g><path d="M496.36 139.88V90q0-20-20-20H116q-20 0-20 20v37.26" class="H K"/></g><path d="M96 137.76l-7-14 7 3.5 7-3.5z" class="H K"/><path d="M576 140V70q0-20-20-20H356q-20 0-20 20v57.26" class="H J K"/><path d="M336 137.76l-7-14 7 3.5 7-3.5z" class="H K"/><path d="M656.08 139.88V50q0-20-20-20H276q-20 0-20 20v77.26" class="H J K"/><path d="M256 137.76l-7-14 7 3.5 7-3.5z" class="H K"/></g><g stroke-width="4" class="B K"><path d="M62 130h57.53" class="H J"/><circle cx="56" cy="130" r="6"/><path d="M131.53 130l-16 8 4-8-4-8z" class="H"/></g><text x="28" y="60" transform="matrix(2 0 0 2 -.5 -.5)" class="D G Q R">                     axis                 </text><text x="108" y="245" transform="matrix(2 0 0 2 -.5 -.5)" class="D G Q R">                     data &amp; output                 </text><text x="288" y="165" transform="matrix(2 0 0 2 -.5 -.5)" class="D G Q R">                     indices                 </text><text x="448" y="165" transform="matrix(2 0 0 2 -.5 -.5)" class="D G Q R">                     updates                 </text><g class="I B C"><g stroke="#6f0000"><path fill="#a20025" d="M736 90h240v160H736z" class="L"/><g class="H J"><path d="M736 170h240"/><path d="M816 90v160m80-160v160"/></g></g><g stroke="#2d7600"><path fill="#60a917" d="M756 110h240v160H756z" class="L"/><g class="H J"><path d="M756 190h240"/><path d="M836 110v160m80-160v160"/></g></g><g stroke="#006eaf"><path d="M776 130h240v160H776z" class="L M"/><g class="H J"><path d="M776 210h240"/><path d="M856 130v160m80-160v160"/></g></g></g><text x="408" y="89" transform="matrix(2 0 0 2 -.5 -.5)" class="D E F G">                     α                 </text><text x="448" y="89" transform="matrix(2 0 0 2 -.5 -.5)" class="D E F G">                     δ                 </text><text x="488" y="89" transform="matrix(2 0 0 2 -.5 -.5)" class="D E F G">                     θ                 </text><text x="408" y="129" transform="matrix(2 0 0 2 -.5 -.5)" class="D E F G">                     φ                 </text><text x="448" y="129" transform="matrix(2 0 0 2 -.5 -.5)" class="D E F G">                     ε                 </text><text x="488" y="129" transform="matrix(2 0 0 2 -.5 -.5)" class="D E F G">                     φ                 </text><g class="I B"><g class="J P"><rect x="786" y="140" width="220" height="60" rx="9" stroke="#314354"/><path d="M816 200v15q0 15-20 15H516q-20 0-20.02-8.6l-.03-8.6" class="C H K"/></g><path d="M495.93 202.3l7.03 13.98-7.01-3.48-6.99 3.51z" class="C H K L"/><path d="M896 200v30q0 20-20 20H596q-20 0-20-18.63v-18.63" class="C H J K P"/><path d="M576 202.24l7 14-7-3.5-7 3.5z" class="C H K L"/><path d="M976 200v50q0 20-20 20H676.4q-20 0-20.03-20l-.05-37.26" class="C H J K P"/><path d="M656.3 202.24l7.02 13.99-7-3.49-7 3.51z" class="C H K L"/></g></svg>